<svg version="1.1" viewBox="0.0 0.0 670.0 407.0" fill="none" stroke="none" stroke-linecap="square" stroke-miterlimit="10" width="670" height="407" xmlns:xlink="http://www.w3.org/1999/xlink" xmlns="http://www.w3.org/2000/svg"><path fill="#ffffff" d="M0 0L670.0 0L670.0 407.0L0 407.0L0 0Z" fill-rule="nonzero"/><path stroke="#cccccc" stroke-width="1.0" stroke-linecap="butt" d="M78.5 92.5L78.5 366.5" fill-rule="nonzero"/><path stroke="#cccccc" stroke-width="1.0" stroke-linecap="butt" d="M218.5 92.5L218.5 366.5" fill-rule="nonzero"/><path stroke="#cccccc" stroke-width="1.0" stroke-linecap="butt" d="M358.5 92.5L358.5 366.5" fill-rule="nonzero"/><path stroke="#cccccc" stroke-width="1.0" stroke-linecap="butt" d="M499.5 92.5L499.5 366.5" fill-rule="nonzero"/><path stroke="#cccccc" stroke-width="1.0" stroke-linecap="butt" d="M639.5 92.5L639.5 366.5" fill-rule="nonzero"/><path stroke="#333333" stroke-width="1.0" stroke-linecap="butt" d="M68.5 366.5L649.5 366.5" fill-rule="nonzero"/><path stroke="#cccccc" stroke-width="1.0" stroke-linecap="butt" d="M68.5 298.5L649.5 298.5" fill-rule="nonzero"/><path stroke="#cccccc" stroke-width="1.0" stroke-linecap="butt" d="M68.5 229.5L649.5 229.5" fill-rule="nonzero"/><path stroke="#cccccc" stroke-width="1.0" stroke-linecap="butt" d="M68.5 161.5L649.5 161.5" fill-rule="nonzero"/><path stroke="#cccccc" stroke-width="1.0" stroke-linecap="butt" d="M68.5 92.5L649.5 92.5" fill-rule="nonzero"/><clipPath id="id_0"><path d="M68.35 92.48333L649.65 92.48333L649.65 366.65L68.35 366.65L68.35 92.48333Z" clip-rule="nonzero"/></clipPath><path stroke="#e69f00" stroke-width="2.0" stroke-linecap="butt" stroke-dasharray="2.0,3.0" clip-path="url(#id_0)" d="M639.9826 259.1424L499.4913 219.31969L359.0 331.93365L218.5087 285.18823L78.01739 158.66031" fill-rule="nonzero"/><path stroke="#d55e00" stroke-width="2.0" stroke-linecap="butt" stroke-dasharray="2.0,3.0" clip-path="url(#id_0)" d="M639.9826 150.6752L499.4913 146.63126L359.0 249.5123L218.5087 252.01407" fill-rule="nonzero"/><path stroke="#009e73" stroke-width="2.0" stroke-linecap="butt" stroke-dasharray="2.0,3.0" clip-path="url(#id_0)" d="M639.9826 241.86989L639.9826 241.86989" fill-rule="nonzero"/><path fill="#e69f00" clip-path="url(#id_0)" d="M639.9826 253.1424L645.1788 262.1424L634.78644 262.1424Z" fill-rule="nonzero"/><path fill="#e69f00" clip-path="url(#id_0)" d="M499.4913 213.31969L504.68747 222.31969L494.29517 222.31969Z" fill-rule="nonzero"/><path fill="#e69f00" clip-path="url(#id_0)" d="M359.0 325.93365L364.19617 334.93365L353.80383 334.93365Z" fill-rule="nonzero"/><path fill="#e69f00" clip-path="url(#id_0)" d="M218.5087 279.18823L223.70485 288.18823L213.31255 288.18823Z" fill-rule="nonzero"/><path fill="#e69f00" clip-path="url(#id_0)" d="M78.01739 152.66031L83.21354 161.66031L72.821236 161.66031Z" fill-rule="nonzero"/><path fill="#d55e00" clip-path="url(#id_0)" d="M639.9826 144.6752L641.3297 148.8211L645.68896 148.8211L642.16223 151.3834L643.50934 155.52931L639.9826 152.96701L636.4559 155.52931L637.803 151.3834L634.27625 148.8211L638.63556 148.8211Z" fill-rule="nonzero"/><path fill="#d55e00" clip-path="url(#id_0)" d="M499.4913 140.63126L500.83838 144.77715L505.19763 144.77715L501.67093 147.33945L503.018 151.48535L499.4913 148.92305L495.9646 151.48535L497.31168 147.33945L493.78497 144.77715L498.14423 144.77715Z" fill-rule="nonzero"/><path fill="#d55e00" clip-path="url(#id_0)" d="M359.0 243.5123L360.34708 247.65819L364.70633 247.65819L361.17963 250.22049L362.5267 254.3664L359.0 251.8041L355.4733 254.3664L356.82037 250.22049L353.29367 247.65819L357.65292 247.65819Z" fill-rule="nonzero"/><path fill="#d55e00" clip-path="url(#id_0)" d="M218.5087 246.01407L219.85577 250.15996L224.21503 250.15996L220.68832 252.72226L222.0354 256.86816L218.5087 254.30586L214.98198 256.86816L216.32907 252.72226L212.80235 250.15996L217.1616 250.15996Z" fill-rule="nonzero"/><path fill="#009e73" clip-path="url(#id_0)" d="M635.74 237.62726L644.2253 237.62726L644.2253 246.11253L635.74 246.11253Z" fill-rule="nonzero"/><path fill="#000000" d="M27.85 366.41562Q27.85 364.88437 28.1625 363.9625Q28.475 363.025 29.084375 362.525Q29.709375 362.025 30.646875 362.025Q31.334375 362.025 31.85 362.30624Q32.38125 362.5875 32.725 363.11874Q33.06875 363.63437 33.25625 364.38437Q33.44375 365.13437 33.44375 366.41562Q33.44375 367.93124 33.13125 368.85312Q32.834373 369.775 32.209373 370.29062Q31.6 370.79062 30.646875 370.79062Q29.4125 370.79062 28.69375 369.9Q27.85 368.8375 27.85 366.41562ZM28.928125 366.41562Q28.928125 368.525 29.428125 369.22812Q29.928125 369.93124 30.646875 369.93124Q31.38125 369.93124 31.865625 369.22812Q32.365623 368.525 32.365623 366.41562Q32.365623 364.29062 31.865625 363.60312Q31.38125 362.9 30.63125 362.9Q29.9125 362.9 29.475 363.50937Q28.928125 364.29062 28.928125 366.41562ZM35.44375 370.65L35.44375 369.44687L36.646873 369.44687L36.646873 370.65L35.44375 370.65ZM37.85 366.41562Q37.85 364.88437 38.1625 363.9625Q38.475 363.025 39.084373 362.525Q39.709373 362.025 40.646873 362.025Q41.334373 362.025 41.85 362.30624Q42.38125 362.5875 42.725 363.11874Q43.06875 363.63437 43.25625 364.38437Q43.44375 365.13437 43.44375 366.41562Q43.44375 367.93124 43.13125 368.85312Q42.834373 369.775 42.209373 370.29062Q41.6 370.79062 40.646873 370.79062Q39.4125 370.79062 38.69375 369.9Q37.85 368.8375 37.85 366.41562ZM38.928123 366.41562Q38.928123 368.525 39.428123 369.22812Q39.928123 369.93124 40.646873 369.93124Q41.38125 369.93124 41.865623 369.22812Q42.365623 368.525 42.365623 366.41562Q42.365623 364.29062 41.865623 363.60312Q41.38125 362.9 40.63125 362.9Q39.9125 362.9 39.475 363.50937Q38.928123 364.29062 38.928123 366.41562ZM44.85 366.41562Q44.85 364.88437 45.1625 363.9625Q45.475 363.025 46.084373 362.525Q46.709373 362.025 47.646873 362.025Q48.334373 362.025 48.85 362.30624Q49.38125 362.5875 49.725 363.11874Q50.06875 363.63437 50.25625 364.38437Q50.44375 365.13437 50.44375 366.41562Q50.44375 367.93124 50.13125 368.85312Q49.834373 369.775 49.209373 370.29062Q48.6 370.79062 47.646873 370.79062Q46.4125 370.79062 45.69375 369.9Q44.85 368.8375 44.85 366.41562ZM45.928123 366.41562Q45.928123 368.525 46.428123 369.22812Q46.928123 369.93124 47.646873 369.93124Q48.38125 369.93124 48.865623 369.22812Q49.365623 368.525 49.365623 366.41562Q49.365623 364.29062 48.865623 363.60312Q48.38125 362.9 47.63125 362.9Q46.9125 362.9 46.475 363.50937Q45.928123 364.29062 45.928123 366.41562ZM52.053123 364.11874Q52.053123 363.19687 52.50625 362.55624Q52.975 361.91562 53.85 361.91562Q54.6625 361.91562 55.19375 362.49374Q55.725 363.07187 55.725 364.18124Q55.725 365.275 55.178123 365.86874Q54.646873 366.44687 53.865623 366.44687Q53.084373 366.44687 52.56875 365.86874Q52.053123 365.29062 52.053123 364.11874ZM53.88125 362.63437Q53.490623 362.63437 53.225 362.97812Q52.975 363.32187 52.975 364.22812Q52.975 365.05624 53.225 365.4Q53.490623 365.72812 53.88125 365.72812Q54.2875 365.72812 54.5375 365.38437Q54.803123 365.04062 54.803123 364.15Q54.803123 363.30624 54.5375 362.97812Q54.271873 362.63437 53.88125 362.63437ZM53.88125 370.9625L58.584373 361.91562L59.44375 361.91562L54.75625 370.9625L53.88125 370.9625ZM57.6 368.63437Q57.6 367.7125 58.053123 367.07187Q58.521873 366.43124 59.4125 366.43124Q60.225 366.43124 60.75625 367.00937Q61.2875 367.57187 61.2875 368.69687Q61.2875 369.79062 60.740623 370.38437Q60.209373 370.9625 59.4125 370.9625Q58.646873 370.9625 58.115623 370.38437Q57.6 369.80624 57.6 368.63437ZM59.44375 367.15Q59.0375 367.15 58.771873 367.49374Q58.521873 367.8375 58.521873 368.74374Q58.521873 369.55624 58.7875 369.9Q59.053123 370.24374 59.44375 370.24374Q59.834373 370.24374 60.1 369.9Q60.365623 369.55624 60.365623 368.65Q60.365623 367.82187 60.1 367.49374Q59.834373 367.15 59.44375 367.15Z" fill-rule="nonzero"/><path fill="#000000" d="M26.396875 301.0927L26.396875 302.10834L20.709375 302.10834Q20.709375 301.73334 20.834375 301.37396Q21.053125 300.79584 21.521875 300.23334Q22.00625 299.67084 22.9125 298.93646Q24.31875 297.7802 24.803125 297.10834Q25.303125 296.43646 25.303125 295.8427Q25.303125 295.2177 24.85 294.79584Q24.396875 294.35834 23.678125 294.35834Q22.9125 294.35834 22.459375 294.81146Q22.00625 295.2646 21.990625 296.0771L20.9125 295.9677Q21.021875 294.74896 21.740625 294.12396Q22.475 293.48334 23.709375 293.48334Q24.94375 293.48334 25.6625 294.17084Q26.38125 294.85834 26.38125 295.87396Q26.38125 296.3896 26.1625 296.8896Q25.959375 297.37396 25.459375 297.93646Q24.975 298.48334 23.85 299.43646Q22.896875 300.23334 22.615625 300.5302Q22.35 300.81146 22.178125 301.0927L26.396875 301.0927ZM27.85 297.87396Q27.85 296.3427 28.1625 295.42084Q28.475 294.48334 29.084375 293.98334Q29.709375 293.48334 30.646875 293.48334Q31.334375 293.48334 31.85 293.7646Q32.38125 294.04584 32.725 294.5771Q33.06875 295.0927 33.25625 295.8427Q33.44375 296.5927 33.44375 297.87396Q33.44375 299.3896 33.13125 300.31146Q32.834373 301.23334 32.209373 301.74896Q31.6 302.24896 30.646875 302.24896Q29.4125 302.24896 28.69375 301.35834Q27.85 300.29584 27.85 297.87396ZM28.928125 297.87396Q28.928125 299.98334 29.428125 300.68646Q29.928125 301.3896 30.646875 301.3896Q31.38125 301.3896 31.865625 300.68646Q32.365623 299.98334 32.365623 297.87396Q32.365623 295.74896 31.865625 295.06146Q31.38125 294.35834 30.63125 294.35834Q29.9125 294.35834 29.475 294.9677Q28.928125 295.74896 28.928125 297.87396ZM35.44375 302.10834L35.44375 300.9052L36.646873 300.9052L36.646873 302.10834L35.44375 302.10834ZM37.85 297.87396Q37.85 296.3427 38.1625 295.42084Q38.475 294.48334 39.084373 293.98334Q39.709373 293.48334 40.646873 293.48334Q41.334373 293.48334 41.85 293.7646Q42.38125 294.04584 42.725 294.5771Q43.06875 295.0927 43.25625 295.8427Q43.44375 296.5927 43.44375 297.87396Q43.44375 299.3896 43.13125 300.31146Q42.834373 301.23334 42.209373 301.74896Q41.6 302.24896 40.646873 302.24896Q39.4125 302.24896 38.69375 301.35834Q37.85 300.29584 37.85 297.87396ZM38.928123 297.87396Q38.928123 299.98334 39.428123 300.68646Q39.928123 301.3896 40.646873 301.3896Q41.38125 301.3896 41.865623 300.68646Q42.365623 299.98334 42.365623 297.87396Q42.365623 295.74896 41.865623 295.06146Q41.38125 294.35834 40.63125 294.35834Q39.9125 294.35834 39.475 294.9677Q38.928123 295.74896 38.928123 297.87396ZM44.85 297.87396Q44.85 296.3427 45.1625 295.42084Q45.475 294.48334 46.084373 293.98334Q46.709373 293.48334 47.646873 293.48334Q48.334373 293.48334 48.85 293.7646Q49.38125 294.04584 49.725 294.5771Q50.06875 295.0927 50.25625 295.8427Q50.44375 296.5927 50.44375 297.87396Q50.44375 299.3896 50.13125 300.31146Q49.834373 301.23334 49.209373 301.74896Q48.6 302.24896 47.646873 302.24896Q46.4125 302.24896 45.69375 301.35834Q44.85 300.29584 44.85 297.87396ZM45.928123 297.87396Q45.928123 299.98334 46.428123 300.68646Q46.928123 301.3896 47.646873 301.3896Q48.38125 301.3896 48.865623 300.68646Q49.365623 299.98334 49.365623 297.87396Q49.365623 295.74896 48.865623 295.06146Q48.38125 294.35834 47.63125 294.35834Q46.9125 294.35834 46.475 294.9677Q45.928123 295.74896 45.928123 297.87396ZM52.053123 295.5771Q52.053123 294.6552 52.50625 294.0146Q52.975 293.37396 53.85 293.37396Q54.6625 293.37396 55.19375 293.9521Q55.725 294.5302 55.725 295.6396Q55.725 296.73334 55.178123 297.3271Q54.646873 297.9052 53.865623 297.9052Q53.084373 297.9052 52.56875 297.3271Q52.053123 296.74896 52.053123 295.5771ZM53.88125 294.0927Q53.490623 294.0927 53.225 294.43646Q52.975 294.7802 52.975 295.68646Q52.975 296.5146 53.225 296.85834Q53.490623 297.18646 53.88125 297.18646Q54.2875 297.18646 54.5375 296.8427Q54.803123 296.49896 54.803123 295.60834Q54.803123 294.7646 54.5375 294.43646Q54.271873 294.0927 53.88125 294.0927ZM53.88125 302.42084L58.584373 293.37396L59.44375 293.37396L54.75625 302.42084L53.88125 302.42084ZM57.6 300.0927Q57.6 299.17084 58.053123 298.5302Q58.521873 297.8896 59.4125 297.8896Q60.225 297.8896 60.75625 298.4677Q61.2875 299.0302 61.2875 300.1552Q61.2875 301.24896 60.740623 301.8427Q60.209373 302.42084 59.4125 302.42084Q58.646873 302.42084 58.115623 301.8427Q57.6 301.2646 57.6 300.0927ZM59.44375 298.60834Q59.0375 298.60834 58.771873 298.9521Q58.521873 299.29584 58.521873 300.2021Q58.521873 301.0146 58.7875 301.35834Q59.053123 301.7021 59.44375 301.7021Q59.834373 301.7021 60.1 301.35834Q60.365623 301.0146 60.365623 300.10834Q60.365623 299.2802 60.1 298.9521Q59.834373 298.60834 59.44375 298.60834Z" fill-rule="nonzero"/><path fill="#000000" d="M24.225 233.56667L24.225 231.50417L20.50625 231.50417L20.50625 230.53542L24.428125 224.97292L25.2875 224.97292L25.2875 230.53542L26.44375 230.53542L26.44375 231.50417L25.2875 231.50417L25.2875 233.56667L24.225 233.56667ZM24.225 230.53542L24.225 226.67604L21.5375 230.53542L24.225 230.53542ZM27.85 229.33229Q27.85 227.80104 28.1625 226.87917Q28.475 225.94167 29.084375 225.44167Q29.709375 224.94167 30.646875 224.94167Q31.334375 224.94167 31.85 225.22292Q32.38125 225.50417 32.725 226.03542Q33.06875 226.55104 33.25625 227.30104Q33.44375 228.05104 33.44375 229.33229Q33.44375 230.84792 33.13125 231.76979Q32.834373 232.69167 32.209373 233.20729Q31.6 233.70729 30.646875 233.70729Q29.4125 233.70729 28.69375 232.81667Q27.85 231.75417 27.85 229.33229ZM28.928125 229.33229Q28.928125 231.44167 29.428125 232.14479Q29.928125 232.84792 30.646875 232.84792Q31.38125 232.84792 31.865625 232.14479Q32.365623 231.44167 32.365623 229.33229Q32.365623 227.20729 31.865625 226.51979Q31.38125 225.81667 30.63125 225.81667Q29.9125 225.81667 29.475 226.42604Q28.928125 227.20729 28.928125 229.33229ZM35.44375 233.56667L35.44375 232.36354L36.646873 232.36354L36.646873 233.56667L35.44375 233.56667ZM37.85 229.33229Q37.85 227.80104 38.1625 226.87917Q38.475 225.94167 39.084373 225.44167Q39.709373 224.94167 40.646873 224.94167Q41.334373 224.94167 41.85 225.22292Q42.38125 225.50417 42.725 226.03542Q43.06875 226.55104 43.25625 227.30104Q43.44375 228.05104 43.44375 229.33229Q43.44375 230.84792 43.13125 231.76979Q42.834373 232.69167 42.209373 233.20729Q41.6 233.70729 40.646873 233.70729Q39.4125 233.70729 38.69375 232.81667Q37.85 231.75417 37.85 229.33229ZM38.928123 229.33229Q38.928123 231.44167 39.428123 232.14479Q39.928123 232.84792 40.646873 232.84792Q41.38125 232.84792 41.865623 232.14479Q42.365623 231.44167 42.365623 229.33229Q42.365623 227.20729 41.865623 226.51979Q41.38125 225.81667 40.63125 225.81667Q39.9125 225.81667 39.475 226.42604Q38.928123 227.20729 38.928123 229.33229ZM44.85 229.33229Q44.85 227.80104 45.1625 226.87917Q45.475 225.94167 46.084373 225.44167Q46.709373 224.94167 47.646873 224.94167Q48.334373 224.94167 48.85 225.22292Q49.38125 225.50417 49.725 226.03542Q50.06875 226.55104 50.25625 227.30104Q50.44375 228.05104 50.44375 229.33229Q50.44375 230.84792 50.13125 231.76979Q49.834373 232.69167 49.209373 233.20729Q48.6 233.70729 47.646873 233.70729Q46.4125 233.70729 45.69375 232.81667Q44.85 231.75417 44.85 229.33229ZM45.928123 229.33229Q45.928123 231.44167 46.428123 232.14479Q46.928123 232.84792 47.646873 232.84792Q48.38125 232.84792 48.865623 232.14479Q49.365623 231.44167 49.365623 229.33229Q49.365623 227.20729 48.865623 226.51979Q48.38125 225.81667 47.63125 225.81667Q46.9125 225.81667 46.475 226.42604Q45.928123 227.20729 45.928123 229.33229ZM52.053123 227.03542Q52.053123 226.11354 52.50625 225.47292Q52.975 224.83229 53.85 224.83229Q54.6625 224.83229 55.19375 225.41042Q55.725 225.98854 55.725 227.09792Q55.725 228.19167 55.178123 228.78542Q54.646873 229.36354 53.865623 229.36354Q53.084373 229.36354 52.56875 228.78542Q52.053123 228.20729 52.053123 227.03542ZM53.88125 225.55104Q53.490623 225.55104 53.225 225.89479Q52.975 226.23854 52.975 227.14479Q52.975 227.97292 53.225 228.31667Q53.490623 228.64479 53.88125 228.64479Q54.2875 228.64479 54.5375 228.30104Q54.803123 227.95729 54.803123 227.06667Q54.803123 226.22292 54.5375 225.89479Q54.271873 225.55104 53.88125 225.55104ZM53.88125 233.87917L58.584373 224.83229L59.44375 224.83229L54.75625 233.87917L53.88125 233.87917ZM57.6 231.55104Q57.6 230.62917 58.053123 229.98854Q58.521873 229.34792 59.4125 229.34792Q60.225 229.34792 60.75625 229.92604Q61.2875 230.48854 61.2875 231.61354Q61.2875 232.70729 60.740623 233.30104Q60.209373 233.87917 59.4125 233.87917Q58.646873 233.87917 58.115623 233.30104Q57.6 232.72292 57.6 231.55104ZM59.44375 230.06667Q59.0375 230.06667 58.771873 230.41042Q58.521873 230.75417 58.521873 231.66042Q58.521873 232.47292 58.7875 232.81667Q59.053123 233.16042 59.44375 233.16042Q59.834373 233.16042 60.1 232.81667Q60.365623 232.47292 60.365623 231.56667Q60.365623 230.73854 60.1 230.41042Q59.834373 230.06667 59.44375 230.06667Z" fill-rule="nonzero"/><path fill="#000000" d="M26.31875 158.54062L25.271875 158.61874Q25.13125 157.99374 24.88125 157.7125Q24.44375 157.25937 23.81875 157.25937Q23.31875 157.25937 22.928125 157.54062Q22.44375 157.91562 22.146875 158.61874Q21.865625 159.30624 21.85 160.5875Q22.225 160.00937 22.771875 159.72812Q23.334375 159.44687 23.94375 159.44687Q24.990625 159.44687 25.725 160.22812Q26.475 161.00937 26.475 162.22812Q26.475 163.04062 26.115625 163.74374Q25.771875 164.43124 25.1625 164.80624Q24.553125 165.16562 23.7875 165.16562Q22.459375 165.16562 21.63125 164.19687Q20.803125 163.22812 20.803125 161.00937Q20.803125 158.50937 21.725 157.38437Q22.521875 156.4 23.88125 156.4Q24.896875 156.4 25.5375 156.97812Q26.19375 157.54062 26.31875 158.54062ZM22.021875 162.24374Q22.021875 162.79062 22.240625 163.29062Q22.475 163.775 22.88125 164.04062Q23.303125 164.30624 23.771875 164.30624Q24.428125 164.30624 24.9125 163.775Q25.396875 163.22812 25.396875 162.30624Q25.396875 161.41562 24.9125 160.9Q24.44375 160.38437 23.725 160.38437Q23.00625 160.38437 22.50625 160.9Q22.021875 161.41562 22.021875 162.24374ZM27.85 160.79062Q27.85 159.25937 28.1625 158.3375Q28.475 157.4 29.084375 156.9Q29.709375 156.4 30.646875 156.4Q31.334375 156.4 31.85 156.68124Q32.38125 156.9625 32.725 157.49374Q33.06875 158.00937 33.25625 158.75937Q33.44375 159.50937 33.44375 160.79062Q33.44375 162.30624 33.13125 163.22812Q32.834373 164.15 32.209373 164.66562Q31.6 165.16562 30.646875 165.16562Q29.4125 165.16562 28.69375 164.275Q27.85 163.2125 27.85 160.79062ZM28.928125 160.79062Q28.928125 162.9 29.428125 163.60312Q29.928125 164.30624 30.646875 164.30624Q31.38125 164.30624 31.865625 163.60312Q32.365623 162.9 32.365623 160.79062Q32.365623 158.66562 31.865625 157.97812Q31.38125 157.275 30.63125 157.275Q29.9125 157.275 29.475 157.88437Q28.928125 158.66562 28.928125 160.79062ZM35.44375 165.025L35.44375 163.82187L36.646873 163.82187L36.646873 165.025L35.44375 165.025ZM37.85 160.79062Q37.85 159.25937 38.1625 158.3375Q38.475 157.4 39.084373 156.9Q39.709373 156.4 40.646873 156.4Q41.334373 156.4 41.85 156.68124Q42.38125 156.9625 42.725 157.49374Q43.06875 158.00937 43.25625 158.75937Q43.44375 159.50937 43.44375 160.79062Q43.44375 162.30624 43.13125 163.22812Q42.834373 164.15 42.209373 164.66562Q41.6 165.16562 40.646873 165.16562Q39.4125 165.16562 38.69375 164.275Q37.85 163.2125 37.85 160.79062ZM38.928123 160.79062Q38.928123 162.9 39.428123 163.60312Q39.928123 164.30624 40.646873 164.30624Q41.38125 164.30624 41.865623 163.60312Q42.365623 162.9 42.365623 160.79062Q42.365623 158.66562 41.865623 157.97812Q41.38125 157.275 40.63125 157.275Q39.9125 157.275 39.475 157.88437Q38.928123 158.66562 38.928123 160.79062ZM44.85 160.79062Q44.85 159.25937 45.1625 158.3375Q45.475 157.4 46.084373 156.9Q46.709373 156.4 47.646873 156.4Q48.334373 156.4 48.85 156.68124Q49.38125 156.9625 49.725 157.49374Q50.06875 158.00937 50.25625 158.75937Q50.44375 159.50937 50.44375 160.79062Q50.44375 162.30624 50.13125 163.22812Q49.834373 164.15 49.209373 164.66562Q48.6 165.16562 47.646873 165.16562Q46.4125 165.16562 45.69375 164.275Q44.85 163.2125 44.85 160.79062ZM45.928123 160.79062Q45.928123 162.9 46.428123 163.60312Q46.928123 164.30624 47.646873 164.30624Q48.38125 164.30624 48.865623 163.60312Q49.365623 162.9 49.365623 160.79062Q49.365623 158.66562 48.865623 157.97812Q48.38125 157.275 47.63125 157.275Q46.9125 157.275 46.475 157.88437Q45.928123 158.66562 45.928123 160.79062ZM52.053123 158.49374Q52.053123 157.57187 52.50625 156.93124Q52.975 156.29062 53.85 156.29062Q54.6625 156.29062 55.19375 156.86874Q55.725 157.44687 55.725 158.55624Q55.725 159.65 55.178123 160.24374Q54.646873 160.82187 53.865623 160.82187Q53.084373 160.82187 52.56875 160.24374Q52.053123 159.66562 52.053123 158.49374ZM53.88125 157.00937Q53.490623 157.00937 53.225 157.35312Q52.975 157.69687 52.975 158.60312Q52.975 159.43124 53.225 159.775Q53.490623 160.10312 53.88125 160.10312Q54.2875 160.10312 54.5375 159.75937Q54.803123 159.41562 54.803123 158.525Q54.803123 157.68124 54.5375 157.35312Q54.271873 157.00937 53.88125 157.00937ZM53.88125 165.3375L58.584373 156.29062L59.44375 156.29062L54.75625 165.3375L53.88125 165.3375ZM57.6 163.00937Q57.6 162.0875 58.053123 161.44687Q58.521873 160.80624 59.4125 160.80624Q60.225 160.80624 60.75625 161.38437Q61.2875 161.94687 61.2875 163.07187Q61.2875 164.16562 60.740623 164.75937Q60.209373 165.3375 59.4125 165.3375Q58.646873 165.3375 58.115623 164.75937Q57.6 164.18124 57.6 163.00937ZM59.44375 161.525Q59.0375 161.525 58.771873 161.86874Q58.521873 162.2125 58.521873 163.11874Q58.521873 163.93124 58.7875 164.275Q59.053123 164.61874 59.44375 164.61874Q59.834373 164.61874 60.1 164.275Q60.365623 163.93124 60.365623 163.025Q60.365623 162.19687 60.1 161.86874Q59.834373 161.525 59.44375 161.525Z" fill-rule="nonzero"/><path fill="#000000" d="M22.475 91.82708Q21.81875 91.57708 21.490625 91.13958Q21.178125 90.686455 21.178125 90.07708Q21.178125 89.13958 21.85 88.498955Q22.5375 87.85833 23.646875 87.85833Q24.771875 87.85833 25.459375 88.51458Q26.146875 89.17083 26.146875 90.10833Q26.146875 90.70208 25.834375 91.13958Q25.521875 91.57708 24.88125 91.82708Q25.678125 92.07708 26.084375 92.655205Q26.490625 93.23333 26.490625 94.030205Q26.490625 95.123955 25.709375 95.873955Q24.94375 96.623955 23.6625 96.623955Q22.396875 96.623955 21.615625 95.873955Q20.834375 95.123955 20.834375 93.998955Q20.834375 93.155205 21.25625 92.592705Q21.69375 92.030205 22.475 91.82708ZM22.25625 90.030205Q22.25625 90.63958 22.646875 91.030205Q23.053125 91.42083 23.678125 91.42083Q24.2875 91.42083 24.678125 91.04583Q25.06875 90.655205 25.06875 90.092705Q25.06875 89.51458 24.6625 89.123955Q24.25625 88.717705 23.6625 88.717705Q23.053125 88.717705 22.646875 89.10833Q22.25625 89.498955 22.25625 90.030205ZM21.928125 93.998955Q21.928125 94.45208 22.13125 94.873955Q22.35 95.29583 22.771875 95.530205Q23.19375 95.76458 23.678125 95.76458Q24.428125 95.76458 24.9125 95.280205Q25.4125 94.79583 25.4125 94.04583Q25.4125 93.280205 24.9125 92.780205Q24.4125 92.280205 23.646875 92.280205Q22.896875 92.280205 22.4125 92.780205Q21.928125 93.26458 21.928125 93.998955ZM27.85 92.248955Q27.85 90.717705 28.1625 89.79583Q28.475 88.85833 29.084375 88.35833Q29.709375 87.85833 30.646875 87.85833Q31.334375 87.85833 31.85 88.13958Q32.38125 88.42083 32.725 88.95208Q33.06875 89.467705 33.25625 90.217705Q33.44375 90.967705 33.44375 92.248955Q33.44375 93.76458 33.13125 94.686455Q32.834373 95.60833 32.209373 96.123955Q31.6 96.623955 30.646875 96.623955Q29.4125 96.623955 28.69375 95.73333Q27.85 94.67083 27.85 92.248955ZM28.928125 92.248955Q28.928125 94.35833 29.428125 95.061455Q29.928125 95.76458 30.646875 95.76458Q31.38125 95.76458 31.865625 95.061455Q32.365623 94.35833 32.365623 92.248955Q32.365623 90.123955 31.865625 89.436455Q31.38125 88.73333 30.63125 88.73333Q29.9125 88.73333 29.475 89.342705Q28.928125 90.123955 28.928125 92.248955ZM35.44375 96.48333L35.44375 95.280205L36.646873 95.280205L36.646873 96.48333L35.44375 96.48333ZM37.85 92.248955Q37.85 90.717705 38.1625 89.79583Q38.475 88.85833 39.084373 88.35833Q39.709373 87.85833 40.646873 87.85833Q41.334373 87.85833 41.85 88.13958Q42.38125 88.42083 42.725 88.95208Q43.06875 89.467705 43.25625 90.217705Q43.44375 90.967705 43.44375 92.248955Q43.44375 93.76458 43.13125 94.686455Q42.834373 95.60833 42.209373 96.123955Q41.6 96.623955 40.646873 96.623955Q39.4125 96.623955 38.69375 95.73333Q37.85 94.67083 37.85 92.248955ZM38.928123 92.248955Q38.928123 94.35833 39.428123 95.061455Q39.928123 95.76458 40.646873 95.76458Q41.38125 95.76458 41.865623 95.061455Q42.365623 94.35833 42.365623 92.248955Q42.365623 90.123955 41.865623 89.436455Q41.38125 88.73333 40.63125 88.73333Q39.9125 88.73333 39.475 89.342705Q38.928123 90.123955 38.928123 92.248955ZM44.85 92.248955Q44.85 90.717705 45.1625 89.79583Q45.475 88.85833 46.084373 88.35833Q46.709373 87.85833 47.646873 87.85833Q48.334373 87.85833 48.85 88.13958Q49.38125 88.42083 49.725 88.95208Q50.06875 89.467705 50.25625 90.217705Q50.44375 90.967705 50.44375 92.248955Q50.44375 93.76458 50.13125 94.686455Q49.834373 95.60833 49.209373 96.123955Q48.6 96.623955 47.646873 96.623955Q46.4125 96.623955 45.69375 95.73333Q44.85 94.67083 44.85 92.248955ZM45.928123 92.248955Q45.928123 94.35833 46.428123 95.061455Q46.928123 95.76458 47.646873 95.76458Q48.38125 95.76458 48.865623 95.061455Q49.365623 94.35833 49.365623 92.248955Q49.365623 90.123955 48.865623 89.436455Q48.38125 88.73333 47.63125 88.73333Q46.9125 88.73333 46.475 89.342705Q45.928123 90.123955 45.928123 92.248955ZM52.053123 89.95208Q52.053123 89.030205 52.50625 88.38958Q52.975 87.748955 53.85 87.748955Q54.6625 87.748955 55.19375 88.32708Q55.725 88.905205 55.725 90.01458Q55.725 91.10833 55.178123 91.70208Q54.646873 92.280205 53.865623 92.280205Q53.084373 92.280205 52.56875 91.70208Q52.053123 91.123955 52.053123 89.95208ZM53.88125 88.467705Q53.490623 88.467705 53.225 88.811455Q52.975 89.155205 52.975 90.061455Q52.975 90.88958 53.225 91.23333Q53.490623 91.561455 53.88125 91.561455Q54.2875 91.561455 54.5375 91.217705Q54.803123 90.873955 54.803123 89.98333Q54.803123 89.13958 54.5375 88.811455Q54.271873 88.467705 53.88125 88.467705ZM53.88125 96.79583L58.584373 87.748955L59.44375 87.748955L54.75625 96.79583L53.88125 96.79583ZM57.6 94.467705Q57.6 93.54583 58.053123 92.905205Q58.521873 92.26458 59.4125 92.26458Q60.225 92.26458 60.75625 92.842705Q61.2875 93.405205 61.2875 94.530205Q61.2875 95.623955 60.740623 96.217705Q60.209373 96.79583 59.4125 96.79583Q58.646873 96.79583 58.115623 96.217705Q57.6 95.63958 57.6 94.467705ZM59.44375 92.98333Q59.0375 92.98333 58.771873 93.32708Q58.521873 93.67083 58.521873 94.57708Q58.521873 95.38958 58.7875 95.73333Q59.053123 96.07708 59.44375 96.07708Q59.834373 96.07708 60.1 95.73333Q60.365623 95.38958 60.365623 94.48333Q60.365623 93.655205 60.1 93.32708Q59.834373 92.98333 59.44375 92.98333Z" fill-rule="nonzero"/><path fill="#000000" d="M70.06426 382.63437L70.06426 383.65L64.37676 383.65Q64.37676 383.275 64.50176 382.91562Q64.72051 382.3375 65.18926 381.775Q65.67364 381.2125 66.57989 380.47812Q67.98614 379.32187 68.47051 378.65Q68.97051 377.97812 68.97051 377.38437Q68.97051 376.75937 68.51739 376.3375Q68.06426 375.9 67.34551 375.9Q66.57989 375.9 66.12676 376.35312Q65.67364 376.80624 65.65801 377.61874L64.57989 377.50937Q64.68926 376.29062 65.40801 375.66562Q66.14239 375.025 67.37676 375.025Q68.61114 375.025 69.32989 375.7125Q70.04864 376.4 70.04864 377.41562Q70.04864 377.93124 69.82989 378.43124Q69.62676 378.91562 69.12676 379.47812Q68.64239 380.025 67.51739 380.97812Q66.56426 381.775 66.28301 382.07187Q66.01739 382.35312 65.84551 382.63437L70.06426 382.63437ZM71.51739 379.41562Q71.51739 377.88437 71.82989 376.9625Q72.14239 376.025 72.75176 375.525Q73.37676 375.025 74.31426 375.025Q75.00176 375.025 75.51739 375.30624Q76.04864 375.5875 76.39239 376.11874Q76.73614 376.63437 76.92364 377.38437Q77.11114 378.13437 77.11114 379.41562Q77.11114 380.93124 76.79864 381.85312Q76.50176 382.775 75.87676 383.29062Q75.26739 383.79062 74.31426 383.79062Q73.07989 383.79062 72.36114 382.9Q71.51739 381.8375 71.51739 379.41562ZM72.59551 379.41562Q72.59551 381.525 73.09551 382.22812Q73.59551 382.93124 74.31426 382.93124Q75.04864 382.93124 75.53301 382.22812Q76.03301 381.525 76.03301 379.41562Q76.03301 377.29062 75.53301 376.60312Q75.04864 375.9 74.29864 375.9Q73.57989 375.9 73.14239 376.50937Q72.59551 377.29062 72.59551 379.41562ZM82.48614 383.65L81.43926 383.65L81.43926 376.93124Q81.04864 377.29062 80.42364 377.66562Q79.81426 378.025 79.32989 378.19687L79.32989 377.18124Q80.20489 376.75937 80.86114 376.18124Q81.53301 375.5875 81.81426 375.025L82.48614 375.025L82.48614 383.65ZM87.14239 378.99374Q86.48614 378.74374 86.15801 378.30624Q85.84551 377.85312 85.84551 377.24374Q85.84551 376.30624 86.51739 375.66562Q87.20489 375.025 88.31426 375.025Q89.43926 375.025 90.12676 375.68124Q90.81426 376.3375 90.81426 377.275Q90.81426 377.86874 90.50176 378.30624Q90.18926 378.74374 89.54864 378.99374Q90.34551 379.24374 90.75176 379.82187Q91.15801 380.4 91.15801 381.19687Q91.15801 382.29062 90.37676 383.04062Q89.61114 383.79062 88.32989 383.79062Q87.06426 383.79062 86.28301 383.04062Q85.50176 382.29062 85.50176 381.16562Q85.50176 380.32187 85.92364 379.75937Q86.36114 379.19687 87.14239 378.99374ZM86.92364 377.19687Q86.92364 377.80624 87.31426 378.19687Q87.72051 378.5875 88.34551 378.5875Q88.95489 378.5875 89.34551 378.2125Q89.73614 377.82187 89.73614 377.25937Q89.73614 376.68124 89.32989 376.29062Q88.92364 375.88437 88.32989 375.88437Q87.72051 375.88437 87.31426 376.275Q86.92364 376.66562 86.92364 377.19687ZM86.59551 381.16562Q86.59551 381.61874 86.79864 382.04062Q87.01739 382.4625 87.43926 382.69687Q87.86114 382.93124 88.34551 382.93124Q89.09551 382.93124 89.57989 382.44687Q90.07989 381.9625 90.07989 381.2125Q90.07989 380.44687 89.57989 379.94687Q89.07989 379.44687 88.31426 379.44687Q87.56426 379.44687 87.07989 379.94687Q86.59551 380.43124 86.59551 381.16562Z" fill-rule="nonzero"/><path fill="#000000" d="M210.55557 382.63437L210.55557 383.65L204.86807 383.65Q204.86807 383.275 204.99307 382.91562Q205.21182 382.3375 205.68057 381.775Q206.16495 381.2125 207.0712 380.47812Q208.47745 379.32187 208.96182 378.65Q209.46182 377.97812 209.46182 377.38437Q209.46182 376.75937 209.0087 376.3375Q208.55557 375.9 207.83682 375.9Q207.0712 375.9 206.61807 376.35312Q206.16495 376.80624 206.14932 377.61874L205.0712 377.50937Q205.18057 376.29062 205.89932 375.66562Q206.6337 375.025 207.86807 375.025Q209.10245 375.025 209.8212 375.7125Q210.53995 376.4 210.53995 377.41562Q210.53995 377.93124 210.3212 378.43124Q210.11807 378.91562 209.61807 379.47812Q209.1337 380.025 208.0087 380.97812Q207.05557 381.775 206.77432 382.07187Q206.5087 382.35312 206.33682 382.63437L210.55557 382.63437ZM212.0087 379.41562Q212.0087 377.88437 212.3212 376.9625Q212.6337 376.025 213.24307 375.525Q213.86807 375.025 214.80557 375.025Q215.49307 375.025 216.0087 375.30624Q216.53995 375.5875 216.8837 376.11874Q217.22745 376.63437 217.41495 377.38437Q217.60245 378.13437 217.60245 379.41562Q217.60245 380.93124 217.28995 381.85312Q216.99307 382.775 216.36807 383.29062Q215.7587 383.79062 214.80557 383.79062Q213.5712 383.79062 212.85245 382.9Q212.0087 381.8375 212.0087 379.41562ZM213.08682 379.41562Q213.08682 381.525 213.58682 382.22812Q214.08682 382.93124 214.80557 382.93124Q215.53995 382.93124 216.02432 382.22812Q216.52432 381.525 216.52432 379.41562Q216.52432 377.29062 216.02432 376.60312Q215.53995 375.9 214.78995 375.9Q214.0712 375.9 213.6337 376.50937Q213.08682 377.29062 213.08682 379.41562ZM222.97745 383.65L221.93057 383.65L221.93057 376.93124Q221.53995 377.29062 220.91495 377.66562Q220.30557 378.025 219.8212 378.19687L219.8212 377.18124Q220.6962 376.75937 221.35245 376.18124Q222.02432 375.5875 222.30557 375.025L222.97745 375.025L222.97745 383.65ZM226.16495 381.66562L227.18057 381.57187Q227.30557 382.29062 227.66495 382.61874Q228.03995 382.93124 228.60245 382.93124Q229.08682 382.93124 229.4462 382.7125Q229.8212 382.47812 230.05557 382.11874Q230.28995 381.74374 230.4462 381.11874Q230.60245 380.47812 230.60245 379.82187Q230.60245 379.74374 230.60245 379.60312Q230.28995 380.10312 229.74307 380.43124Q229.1962 380.74374 228.55557 380.74374Q227.47745 380.74374 226.74307 379.97812Q226.0087 379.19687 226.0087 377.93124Q226.0087 376.61874 226.77432 375.82187Q227.55557 375.025 228.71182 375.025Q229.53995 375.025 230.22745 375.47812Q230.93057 375.93124 231.28995 376.775Q231.64932 377.60312 231.64932 379.18124Q231.64932 380.82187 231.28995 381.80624Q230.9462 382.775 230.22745 383.29062Q229.52432 383.79062 228.58682 383.79062Q227.5712 383.79062 226.93057 383.24374Q226.28995 382.68124 226.16495 381.66562ZM230.47745 377.86874Q230.47745 376.9625 229.99307 376.43124Q229.52432 375.9 228.83682 375.9Q228.1337 375.9 227.60245 376.47812Q227.08682 377.04062 227.08682 377.9625Q227.08682 378.775 227.58682 379.29062Q228.08682 379.80624 228.80557 379.80624Q229.53995 379.80624 230.0087 379.29062Q230.47745 378.775 230.47745 377.86874Z" fill-rule="nonzero"/><path fill="#000000" d="M351.04688 382.63437L351.04688 383.65L345.35938 383.65Q345.35938 383.275 345.48438 382.91562Q345.70312 382.3375 346.17188 381.775Q346.65625 381.2125 347.5625 380.47812Q348.96875 379.32187 349.45312 378.65Q349.95312 377.97812 349.95312 377.38437Q349.95312 376.75937 349.5 376.3375Q349.04688 375.9 348.32812 375.9Q347.5625 375.9 347.10938 376.35312Q346.65625 376.80624 346.64062 377.61874L345.5625 377.50937Q345.67188 376.29062 346.39062 375.66562Q347.125 375.025 348.35938 375.025Q349.59375 375.025 350.3125 375.7125Q351.03125 376.4 351.03125 377.41562Q351.03125 377.93124 350.8125 378.43124Q350.60938 378.91562 350.10938 379.47812Q349.625 380.025 348.5 380.97812Q347.54688 381.775 347.26562 382.07187Q347.0 382.35312 346.82812 382.63437L351.04688 382.63437ZM352.5 379.41562Q352.5 377.88437 352.8125 376.9625Q353.125 376.025 353.73438 375.525Q354.35938 375.025 355.29688 375.025Q355.98438 375.025 356.5 375.30624Q357.03125 375.5875 357.375 376.11874Q357.71875 376.63437 357.90625 377.38437Q358.09375 378.13437 358.09375 379.41562Q358.09375 380.93124 357.78125 381.85312Q357.48438 382.775 356.85938 383.29062Q356.25 383.79062 355.29688 383.79062Q354.0625 383.79062 353.34375 382.9Q352.5 381.8375 352.5 379.41562ZM353.57812 379.41562Q353.57812 381.525 354.07812 382.22812Q354.57812 382.93124 355.29688 382.93124Q356.03125 382.93124 356.51562 382.22812Q357.01562 381.525 357.01562 379.41562Q357.01562 377.29062 356.51562 376.60312Q356.03125 375.9 355.28125 375.9Q354.5625 375.9 354.125 376.50937Q353.57812 377.29062 353.57812 379.41562ZM365.04688 382.63437L365.04688 383.65L359.35938 383.65Q359.35938 383.275 359.48438 382.91562Q359.70312 382.3375 360.17188 381.775Q360.65625 381.2125 361.5625 380.47812Q362.96875 379.32187 363.45312 378.65Q363.95312 377.97812 363.95312 377.38437Q363.95312 376.75937 363.5 376.3375Q363.04688 375.9 362.32812 375.9Q361.5625 375.9 361.10938 376.35312Q360.65625 376.80624 360.64062 377.61874L359.5625 377.50937Q359.67188 376.29062 360.39062 375.66562Q361.125 375.025 362.35938 375.025Q363.59375 375.025 364.3125 375.7125Q365.03125 376.4 365.03125 377.41562Q365.03125 377.93124 364.8125 378.43124Q364.60938 378.91562 364.10938 379.47812Q363.625 380.025 362.5 380.97812Q361.54688 381.775 361.26562 382.07187Q361.0 382.35312 360.82812 382.63437L365.04688 382.63437ZM366.5 379.41562Q366.5 377.88437 366.8125 376.9625Q367.125 376.025 367.73438 375.525Q368.35938 375.025 369.29688 375.025Q369.98438 375.025 370.5 375.30624Q371.03125 375.5875 371.375 376.11874Q371.71875 376.63437 371.90625 377.38437Q372.09375 378.13437 372.09375 379.41562Q372.09375 380.93124 371.78125 381.85312Q371.48438 382.775 370.85938 383.29062Q370.25 383.79062 369.29688 383.79062Q368.0625 383.79062 367.34375 382.9Q366.5 381.8375 366.5 379.41562ZM367.57812 379.41562Q367.57812 381.525 368.07812 382.22812Q368.57812 382.93124 369.29688 382.93124Q370.03125 382.93124 370.51562 382.22812Q371.01562 381.525 371.01562 379.41562Q371.01562 377.29062 370.51562 376.60312Q370.03125 375.9 369.28125 375.9Q368.5625 375.9 368.125 376.50937Q367.57812 377.29062 367.57812 379.41562Z" fill-rule="nonzero"/><path fill="#000000" d="M491.53818 382.63437L491.53818 383.65L485.85068 383.65Q485.85068 383.275 485.97568 382.91562Q486.19443 382.3375 486.66318 381.775Q487.14755 381.2125 488.0538 380.47812Q489.46005 379.32187 489.94443 378.65Q490.44443 377.97812 490.44443 377.38437Q490.44443 376.75937 489.9913 376.3375Q489.53818 375.9 488.81943 375.9Q488.0538 375.9 487.60068 376.35312Q487.14755 376.80624 487.13193 377.61874L486.0538 377.50937Q486.16318 376.29062 486.88193 375.66562Q487.6163 375.025 488.85068 375.025Q490.08505 375.025 490.8038 375.7125Q491.52255 376.4 491.52255 377.41562Q491.52255 377.93124 491.3038 378.43124Q491.10068 378.91562 490.60068 379.47812Q490.1163 380.025 488.9913 380.97812Q488.03818 381.775 487.75693 382.07187Q487.4913 382.35312 487.31943 382.63437L491.53818 382.63437ZM492.9913 379.41562Q492.9913 377.88437 493.3038 376.9625Q493.6163 376.025 494.22568 375.525Q494.85068 375.025 495.78818 375.025Q496.47568 375.025 496.9913 375.30624Q497.52255 375.5875 497.8663 376.11874Q498.21005 376.63437 498.39755 377.38437Q498.58505 378.13437 498.58505 379.41562Q498.58505 380.93124 498.27255 381.85312Q497.97568 382.775 497.35068 383.29062Q496.7413 383.79062 495.78818 383.79062Q494.5538 383.79062 493.83505 382.9Q492.9913 381.8375 492.9913 379.41562ZM494.06943 379.41562Q494.06943 381.525 494.56943 382.22812Q495.06943 382.93124 495.78818 382.93124Q496.52255 382.93124 497.00693 382.22812Q497.50693 381.525 497.50693 379.41562Q497.50693 377.29062 497.00693 376.60312Q496.52255 375.9 495.77255 375.9Q495.0538 375.9 494.6163 376.50937Q494.06943 377.29062 494.06943 379.41562ZM505.53818 382.63437L505.53818 383.65L499.85068 383.65Q499.85068 383.275 499.97568 382.91562Q500.19443 382.3375 500.66318 381.775Q501.14755 381.2125 502.0538 380.47812Q503.46005 379.32187 503.94443 378.65Q504.44443 377.97812 504.44443 377.38437Q504.44443 376.75937 503.9913 376.3375Q503.53818 375.9 502.81943 375.9Q502.0538 375.9 501.60068 376.35312Q501.14755 376.80624 501.13193 377.61874L500.0538 377.50937Q500.16318 376.29062 500.88193 375.66562Q501.6163 375.025 502.85068 375.025Q504.08505 375.025 504.8038 375.7125Q505.52255 376.4 505.52255 377.41562Q505.52255 377.93124 505.3038 378.43124Q505.10068 378.91562 504.60068 379.47812Q504.1163 380.025 502.9913 380.97812Q502.03818 381.775 501.75693 382.07187Q501.4913 382.35312 501.31943 382.63437L505.53818 382.63437ZM510.96005 383.65L509.91318 383.65L509.91318 376.93124Q509.52255 377.29062 508.89755 377.66562Q508.28818 378.025 507.8038 378.19687L507.8038 377.18124Q508.6788 376.75937 509.33505 376.18124Q510.00693 375.5875 510.28818 375.025L510.96005 375.025L510.96005 383.65Z" fill-rule="nonzero"/><path fill="#000000" d="M632.0295 382.63437L632.0295 383.65L626.342 383.65Q626.342 383.275 626.467 382.91562Q626.6857 382.3375 627.1545 381.775Q627.63885 381.2125 628.5451 380.47812Q629.95135 379.32187 630.4357 378.65Q630.9357 377.97812 630.9357 377.38437Q630.9357 376.75937 630.4826 376.3375Q630.0295 375.9 629.3107 375.9Q628.5451 375.9 628.092 376.35312Q627.63885 376.80624 627.6232 377.61874L626.5451 377.50937Q626.6545 376.29062 627.3732 375.66562Q628.1076 375.025 629.342 375.025Q630.57635 375.025 631.2951 375.7125Q632.01385 376.4 632.01385 377.41562Q632.01385 377.93124 631.7951 378.43124Q631.592 378.91562 631.092 379.47812Q630.6076 380.025 629.4826 380.97812Q628.5295 381.775 628.2482 382.07187Q627.9826 382.35312 627.8107 382.63437L632.0295 382.63437ZM633.4826 379.41562Q633.4826 377.88437 633.7951 376.9625Q634.1076 376.025 634.717 375.525Q635.342 375.025 636.2795 375.025Q636.967 375.025 637.4826 375.30624Q638.01385 375.5875 638.3576 376.11874Q638.70135 376.63437 638.88885 377.38437Q639.07635 378.13437 639.07635 379.41562Q639.07635 380.93124 638.76385 381.85312Q638.467 382.775 637.842 383.29062Q637.2326 383.79062 636.2795 383.79062Q635.0451 383.79062 634.32635 382.9Q633.4826 381.8375 633.4826 379.41562ZM634.5607 379.41562Q634.5607 381.525 635.0607 382.22812Q635.5607 382.93124 636.2795 382.93124Q637.01385 382.93124 637.4982 382.22812Q637.9982 381.525 637.9982 379.41562Q637.9982 377.29062 637.4982 376.60312Q637.01385 375.9 636.26385 375.9Q635.5451 375.9 635.1076 376.50937Q634.5607 377.29062 634.5607 379.41562ZM646.0295 382.63437L646.0295 383.65L640.342 383.65Q640.342 383.275 640.467 382.91562Q640.6857 382.3375 641.1545 381.775Q641.63885 381.2125 642.5451 380.47812Q643.95135 379.32187 644.4357 378.65Q644.9357 377.97812 644.9357 377.38437Q644.9357 376.75937 644.4826 376.3375Q644.0295 375.9 643.3107 375.9Q642.5451 375.9 642.092 376.35312Q641.63885 376.80624 641.6232 377.61874L640.5451 377.50937Q640.6545 376.29062 641.3732 375.66562Q642.1076 375.025 643.342 375.025Q644.57635 375.025 645.2951 375.7125Q646.01385 376.4 646.01385 377.41562Q646.01385 377.93124 645.7951 378.43124Q645.592 378.91562 645.092 379.47812Q644.6076 380.025 643.4826 380.97812Q642.5295 381.775 642.2482 382.07187Q641.9826 382.35312 641.8107 382.63437L646.0295 382.63437ZM653.0295 382.63437L653.0295 383.65L647.342 383.65Q647.342 383.275 647.467 382.91562Q647.6857 382.3375 648.1545 381.775Q648.63885 381.2125 649.5451 380.47812Q650.95135 379.32187 651.4357 378.65Q651.9357 377.97812 651.9357 377.38437Q651.9357 376.75937 651.4826 376.3375Q651.0295 375.9 650.3107 375.9Q649.5451 375.9 649.092 376.35312Q648.63885 376.80624 648.6232 377.61874L647.5451 377.50937Q647.6545 376.29062 648.3732 375.66562Q649.1076 375.025 650.342 375.025Q651.57635 375.025 652.2951 375.7125Q653.01385 376.4 653.01385 377.41562Q653.01385 377.93124 652.7951 378.43124Q652.592 378.91562 652.092 379.47812Q651.6076 380.025 650.4826 380.97812Q649.5295 381.775 649.2482 382.07187Q648.9826 382.35312 648.8107 382.63437L653.0295 382.63437Z" fill-rule="nonzero"/><path fill="#e69f00" d="M235.5 58.916668L240.69615 67.916664L230.30385 67.916664Z" fill-rule="nonzero"/><path fill="#1a1a1a" d="M249.84375 66.479164L250.875 66.33854Q250.90625 67.322914 251.23438 67.68229Q251.5625 68.041664 252.15625 68.041664Q252.57812 68.041664 252.89062 67.854164Q253.20312 67.65104 253.3125 67.322914Q253.4375 66.979164 253.4375 66.24479L253.4375 60.322914L254.5625 60.322914L254.5625 66.18229Q254.5625 67.260414 254.29688 67.854164Q254.04688 68.447914 253.48438 68.760414Q252.92188 69.05729 252.15625 69.05729Q251.03125 69.05729 250.42188 68.416664Q249.82812 67.760414 249.84375 66.479164ZM260.35938 68.15104Q259.76562 68.65104 259.21875 68.854164Q258.6875 69.05729 258.0625 69.05729Q257.03125 69.05729 256.48438 68.55729Q255.9375 68.05729 255.9375 67.27604Q255.9375 66.822914 256.14062 66.447914Q256.34375 66.05729 256.6875 65.83854Q257.03125 65.604164 257.45312 65.49479Q257.75 65.40104 258.39062 65.322914Q259.65625 65.18229 260.26562 64.96354Q260.26562 64.74479 260.26562 64.697914Q260.26562 64.041664 259.96875 63.77604Q259.5625 63.43229 258.76562 63.43229Q258.03125 63.43229 257.67188 63.697914Q257.3125 63.947914 257.14062 64.604164L256.10938 64.46354Q256.25 63.80729 256.57812 63.40104Q256.90625 62.99479 257.51562 62.77604Q258.125 62.55729 258.92188 62.55729Q259.71875 62.55729 260.21875 62.74479Q260.71875 62.93229 260.95312 63.21354Q261.1875 63.49479 261.28125 63.93229Q261.32812 64.197914 261.32812 64.90104L261.32812 66.30729Q261.32812 67.77604 261.39062 68.166664Q261.46875 68.55729 261.67188 68.916664L260.5625 68.916664Q260.40625 68.58854 260.35938 68.15104ZM260.26562 65.791664Q259.6875 66.02604 258.54688 66.197914Q257.89062 66.291664 257.625 66.416664Q257.35938 66.52604 257.20312 66.74479Q257.0625 66.96354 257.0625 67.24479Q257.0625 67.666664 257.375 67.947914Q257.70312 68.229164 258.3125 68.229164Q258.92188 68.229164 259.39062 67.96354Q259.875 67.697914 260.09375 67.229164Q260.26562 66.86979 260.26562 66.18229L260.26562 65.791664ZM265.01562 68.916664L262.65625 62.697914L263.76562 62.697914L265.10938 66.416664Q265.3125 67.02604 265.5 67.666664Q265.64062 67.18229 265.89062 66.49479L267.28125 62.697914L268.35938 62.697914L266.0 68.916664L265.01562 68.916664ZM272.35938 68.15104Q271.76562 68.65104 271.21875 68.854164Q270.6875 69.05729 270.0625 69.05729Q269.03125 69.05729 268.48438 68.55729Q267.9375 68.05729 267.9375 67.27604Q267.9375 66.822914 268.14062 66.447914Q268.34375 66.05729 268.6875 65.83854Q269.03125 65.604164 269.45312 65.49479Q269.75 65.40104 270.39062 65.322914Q271.65625 65.18229 272.26562 64.96354Q272.26562 64.74479 272.26562 64.697914Q272.26562 64.041664 271.96875 63.77604Q271.5625 63.43229 270.76562 63.43229Q270.03125 63.43229 269.67188 63.697914Q269.3125 63.947914 269.14062 64.604164L268.10938 64.46354Q268.25 63.80729 268.57812 63.40104Q268.90625 62.99479 269.51562 62.77604Q270.125 62.55729 270.92188 62.55729Q271.71875 62.55729 272.21875 62.74479Q272.71875 62.93229 272.95312 63.21354Q273.1875 63.49479 273.28125 63.93229Q273.32812 64.197914 273.32812 64.90104L273.32812 66.30729Q273.32812 67.77604 273.39062 68.166664Q273.46875 68.55729 273.67188 68.916664L272.5625 68.916664Q272.40625 68.58854 272.35938 68.15104ZM272.26562 65.791664Q271.6875 66.02604 270.54688 66.197914Q269.89062 66.291664 269.625 66.416664Q269.35938 66.52604 269.20312 66.74479Q269.0625 66.96354 269.0625 67.24479Q269.0625 67.666664 269.375 67.947914Q269.70312 68.229164 270.3125 68.229164Q270.92188 68.229164 271.39062 67.96354Q271.875 67.697914 272.09375 67.229164Q272.26562 66.86979 272.26562 66.18229L272.26562 65.791664ZM279.625 64.260414Q278.96875 64.010414 278.64062 63.572914Q278.32812 63.11979 278.32812 62.510414Q278.32812 61.572914 279.0 60.93229Q279.6875 60.291664 280.79688 60.291664Q281.92188 60.291664 282.60938 60.947914Q283.29688 61.604164 283.29688 62.541664Q283.29688 63.135414 282.98438 63.572914Q282.67188 64.010414 282.03125 64.260414Q282.82812 64.510414 283.23438 65.08854Q283.64062 65.666664 283.64062 66.46354Q283.64062 67.55729 282.85938 68.30729Q282.09375 69.05729 280.8125 69.05729Q279.54688 69.05729 278.76562 68.30729Q277.98438 67.55729 277.98438 66.43229Q277.98438 65.58854 278.40625 65.02604Q278.84375 64.46354 279.625 64.260414ZM279.40625 62.46354Q279.40625 63.072914 279.79688 63.46354Q280.20312 63.854164 280.82812 63.854164Q281.4375 63.854164 281.82812 63.479164Q282.21875 63.08854 282.21875 62.52604Q282.21875 61.947914 281.8125 61.55729Q281.40625 61.15104 280.8125 61.15104Q280.20312 61.15104 279.79688 61.541664Q279.40625 61.93229 279.40625 62.46354ZM279.07812 66.43229Q279.07812 66.885414 279.28125 67.30729Q279.5 67.729164 279.92188 67.96354Q280.34375 68.197914 280.82812 68.197914Q281.57812 68.197914 282.0625 67.71354Q282.5625 67.229164 282.5625 66.479164Q282.5625 65.71354 282.0625 65.21354Q281.5625 64.71354 280.79688 64.71354Q280.04688 64.71354 279.5625 65.21354Q279.07812 65.697914 279.07812 66.43229Z" fill-rule="nonzero"/><path fill="#d55e00" d="M306.5 58.916668L307.84708 63.062565L312.20633 63.062565L308.67963 65.62487L310.0267 69.77077L306.5 67.208466L302.9733 69.77077L304.32037 65.62487L300.79367 63.062565L305.15292 63.062565Z" fill-rule="nonzero"/><path fill="#1a1a1a" d="M320.84375 66.479164L321.875 66.33854Q321.90625 67.322914 322.23438 67.68229Q322.5625 68.041664 323.15625 68.041664Q323.57812 68.041664 323.89062 67.854164Q324.20312 67.65104 324.3125 67.322914Q324.4375 66.979164 324.4375 66.24479L324.4375 60.322914L325.5625 60.322914L325.5625 66.18229Q325.5625 67.260414 325.29688 67.854164Q325.04688 68.447914 324.48438 68.760414Q323.92188 69.05729 323.15625 69.05729Q322.03125 69.05729 321.42188 68.416664Q320.82812 67.760414 320.84375 66.479164ZM331.35938 68.15104Q330.76562 68.65104 330.21875 68.854164Q329.6875 69.05729 329.0625 69.05729Q328.03125 69.05729 327.48438 68.55729Q326.9375 68.05729 326.9375 67.27604Q326.9375 66.822914 327.14062 66.447914Q327.34375 66.05729 327.6875 65.83854Q328.03125 65.604164 328.45312 65.49479Q328.75 65.40104 329.39062 65.322914Q330.65625 65.18229 331.26562 64.96354Q331.26562 64.74479 331.26562 64.697914Q331.26562 64.041664 330.96875 63.77604Q330.5625 63.43229 329.76562 63.43229Q329.03125 63.43229 328.67188 63.697914Q328.3125 63.947914 328.14062 64.604164L327.10938 64.46354Q327.25 63.80729 327.57812 63.40104Q327.90625 62.99479 328.51562 62.77604Q329.125 62.55729 329.92188 62.55729Q330.71875 62.55729 331.21875 62.74479Q331.71875 62.93229 331.95312 63.21354Q332.1875 63.49479 332.28125 63.93229Q332.32812 64.197914 332.32812 64.90104L332.32812 66.30729Q332.32812 67.77604 332.39062 68.166664Q332.46875 68.55729 332.67188 68.916664L331.5625 68.916664Q331.40625 68.58854 331.35938 68.15104ZM331.26562 65.791664Q330.6875 66.02604 329.54688 66.197914Q328.89062 66.291664 328.625 66.416664Q328.35938 66.52604 328.20312 66.74479Q328.0625 66.96354 328.0625 67.24479Q328.0625 67.666664 328.375 67.947914Q328.70312 68.229164 329.3125 68.229164Q329.92188 68.229164 330.39062 67.96354Q330.875 67.697914 331.09375 67.229164Q331.26562 66.86979 331.26562 66.18229L331.26562 65.791664ZM336.01562 68.916664L333.65625 62.697914L334.76562 62.697914L336.10938 66.416664Q336.3125 67.02604 336.5 67.666664Q336.64062 67.18229 336.89062 66.49479L338.28125 62.697914L339.35938 62.697914L337.0 68.916664L336.01562 68.916664ZM343.35938 68.15104Q342.76562 68.65104 342.21875 68.854164Q341.6875 69.05729 341.0625 69.05729Q340.03125 69.05729 339.48438 68.55729Q338.9375 68.05729 338.9375 67.27604Q338.9375 66.822914 339.14062 66.447914Q339.34375 66.05729 339.6875 65.83854Q340.03125 65.604164 340.45312 65.49479Q340.75 65.40104 341.39062 65.322914Q342.65625 65.18229 343.26562 64.96354Q343.26562 64.74479 343.26562 64.697914Q343.26562 64.041664 342.96875 63.77604Q342.5625 63.43229 341.76562 63.43229Q341.03125 63.43229 340.67188 63.697914Q340.3125 63.947914 340.14062 64.604164L339.10938 64.46354Q339.25 63.80729 339.57812 63.40104Q339.90625 62.99479 340.51562 62.77604Q341.125 62.55729 341.92188 62.55729Q342.71875 62.55729 343.21875 62.74479Q343.71875 62.93229 343.95312 63.21354Q344.1875 63.49479 344.28125 63.93229Q344.32812 64.197914 344.32812 64.90104L344.32812 66.30729Q344.32812 67.77604 344.39062 68.166664Q344.46875 68.55729 344.67188 68.916664L343.5625 68.916664Q343.40625 68.58854 343.35938 68.15104ZM343.26562 65.791664Q342.6875 66.02604 341.54688 66.197914Q340.89062 66.291664 340.625 66.416664Q340.35938 66.52604 340.20312 66.74479Q340.0625 66.96354 340.0625 67.24479Q340.0625 67.666664 340.375 67.947914Q340.70312 68.229164 341.3125 68.229164Q341.92188 68.229164 342.39062 67.96354Q342.875 67.697914 343.09375 67.229164Q343.26562 66.86979 343.26562 66.18229L343.26562 65.791664ZM352.96875 68.916664L351.92188 68.916664L351.92188 62.197914Q351.53125 62.55729 350.90625 62.93229Q350.29688 63.291664 349.8125 63.46354L349.8125 62.447914Q350.6875 62.02604 351.34375 61.447914Q352.01562 60.854164 352.29688 60.291664L352.96875 60.291664L352.96875 68.916664ZM359.96875 68.916664L358.92188 68.916664L358.92188 62.197914Q358.53125 62.55729 357.90625 62.93229Q357.29688 63.291664 356.8125 63.46354L356.8125 62.447914Q357.6875 62.02604 358.34375 61.447914Q359.01562 60.854164 359.29688 60.291664L359.96875 60.291664L359.96875 68.916664Z" fill-rule="nonzero"/><path fill="#009e73" d="M380.25735 60.674026L388.74265 60.674026L388.74265 69.15931L380.25735 69.15931Z" fill-rule="nonzero"/><path fill="#1a1a1a" d="M398.84375 66.479164L399.875 66.33854Q399.90625 67.322914 400.23438 67.68229Q400.5625 68.041664 401.15625 68.041664Q401.57812 68.041664 401.89062 67.854164Q402.20312 67.65104 402.3125 67.322914Q402.4375 66.979164 402.4375 66.24479L402.4375 60.322914L403.5625 60.322914L403.5625 66.18229Q403.5625 67.260414 403.29688 67.854164Q403.04688 68.447914 402.48438 68.760414Q401.92188 69.05729 401.15625 69.05729Q400.03125 69.05729 399.42188 68.416664Q398.82812 67.760414 398.84375 66.479164ZM409.35938 68.15104Q408.76562 68.65104 408.21875 68.854164Q407.6875 69.05729 407.0625 69.05729Q406.03125 69.05729 405.48438 68.55729Q404.9375 68.05729 404.9375 67.27604Q404.9375 66.822914 405.14062 66.447914Q405.34375 66.05729 405.6875 65.83854Q406.03125 65.604164 406.45312 65.49479Q406.75 65.40104 407.39062 65.322914Q408.65625 65.18229 409.26562 64.96354Q409.26562 64.74479 409.26562 64.697914Q409.26562 64.041664 408.96875 63.77604Q408.5625 63.43229 407.76562 63.43229Q407.03125 63.43229 406.67188 63.697914Q406.3125 63.947914 406.14062 64.604164L405.10938 64.46354Q405.25 63.80729 405.57812 63.40104Q405.90625 62.99479 406.51562 62.77604Q407.125 62.55729 407.92188 62.55729Q408.71875 62.55729 409.21875 62.74479Q409.71875 62.93229 409.95312 63.21354Q410.1875 63.49479 410.28125 63.93229Q410.32812 64.197914 410.32812 64.90104L410.32812 66.30729Q410.32812 67.77604 410.39062 68.166664Q410.46875 68.55729 410.67188 68.916664L409.5625 68.916664Q409.40625 68.58854 409.35938 68.15104ZM409.26562 65.791664Q408.6875 66.02604 407.54688 66.197914Q406.89062 66.291664 406.625 66.416664Q406.35938 66.52604 406.20312 66.74479Q406.0625 66.96354 406.0625 67.24479Q406.0625 67.666664 406.375 67.947914Q406.70312 68.229164 407.3125 68.229164Q407.92188 68.229164 408.39062 67.96354Q408.875 67.697914 409.09375 67.229164Q409.26562 66.86979 409.26562 66.18229L409.26562 65.791664ZM414.01562 68.916664L411.65625 62.697914L412.76562 62.697914L414.10938 66.416664Q414.3125 67.02604 414.5 67.666664Q414.64062 67.18229 414.89062 66.49479L416.28125 62.697914L417.35938 62.697914L415.0 68.916664L414.01562 68.916664ZM421.35938 68.15104Q420.76562 68.65104 420.21875 68.854164Q419.6875 69.05729 419.0625 69.05729Q418.03125 69.05729 417.48438 68.55729Q416.9375 68.05729 416.9375 67.27604Q416.9375 66.822914 417.14062 66.447914Q417.34375 66.05729 417.6875 65.83854Q418.03125 65.604164 418.45312 65.49479Q418.75 65.40104 419.39062 65.322914Q420.65625 65.18229 421.26562 64.96354Q421.26562 64.74479 421.26562 64.697914Q421.26562 64.041664 420.96875 63.77604Q420.5625 63.43229 419.76562 63.43229Q419.03125 63.43229 418.67188 63.697914Q418.3125 63.947914 418.14062 64.604164L417.10938 64.46354Q417.25 63.80729 417.57812 63.40104Q417.90625 62.99479 418.51562 62.77604Q419.125 62.55729 419.92188 62.55729Q420.71875 62.55729 421.21875 62.74479Q421.71875 62.93229 421.95312 63.21354Q422.1875 63.49479 422.28125 63.93229Q422.32812 64.197914 422.32812 64.90104L422.32812 66.30729Q422.32812 67.77604 422.39062 68.166664Q422.46875 68.55729 422.67188 68.916664L421.5625 68.916664Q421.40625 68.58854 421.35938 68.15104ZM421.26562 65.791664Q420.6875 66.02604 419.54688 66.197914Q418.89062 66.291664 418.625 66.416664Q418.35938 66.52604 418.20312 66.74479Q418.0625 66.96354 418.0625 67.24479Q418.0625 67.666664 418.375 67.947914Q418.70312 68.229164 419.3125 68.229164Q419.92188 68.229164 420.39062 67.96354Q420.875 67.697914 421.09375 67.229164Q421.26562 66.86979 421.26562 66.18229L421.26562 65.791664ZM430.96875 68.916664L429.92188 68.916664L429.92188 62.197914Q429.53125 62.55729 428.90625 62.93229Q428.29688 63.291664 427.8125 63.46354L427.8125 62.447914Q428.6875 62.02604 429.34375 61.447914Q430.01562 60.854164 430.29688 60.291664L430.96875 60.291664L430.96875 68.916664ZM434.0625 61.447914L434.0625 60.43229L439.625 60.43229L439.625 61.260414Q438.8125 62.135414 438.0 63.58854Q437.20312 65.02604 436.76562 66.55729Q436.4375 67.635414 436.35938 68.916664L435.26562 68.916664Q435.28125 67.90104 435.65625 66.46354Q436.04688 65.02604 436.75 63.697914Q437.46875 62.36979 438.28125 61.447914L434.0625 61.447914Z" fill-rule="nonzero"/><path fill="#757575" d="M20.928125 35.2875L22.63125 35.053123Q22.709375 36.69375 23.25625 37.303123Q23.803125 37.896873 24.771875 37.896873Q25.475 37.896873 25.990625 37.584373Q26.50625 37.25625 26.69375 36.69375Q26.896875 36.13125 26.896875 34.896873L26.896875 25.037498L28.803125 25.037498L28.803125 34.7875Q28.803125 36.584373 28.365625 37.56875Q27.928125 38.553123 26.975 39.084373Q26.0375 39.6 24.771875 39.6Q22.896875 39.6 21.88125 38.521873Q20.88125 37.428123 20.928125 35.2875ZM38.44375 38.06875Q37.459373 38.896873 36.553123 39.240623Q35.646873 39.584373 34.615623 39.584373Q32.9125 39.584373 31.990625 38.75625Q31.06875 37.9125 31.06875 36.615623Q31.06875 35.85 31.4125 35.225Q31.771875 34.6 32.334373 34.225Q32.896873 33.834373 33.6 33.63125Q34.115623 33.50625 35.1625 33.365623Q37.2875 33.115623 38.2875 32.771873Q38.303123 32.4125 38.303123 32.303123Q38.303123 31.240623 37.803123 30.787498Q37.13125 30.193748 35.803123 30.193748Q34.553123 30.193748 33.959373 30.631248Q33.38125 31.068748 33.1 32.178123L31.38125 31.943748Q31.615625 30.834373 32.146873 30.162498Q32.678123 29.474998 33.69375 29.115623Q34.709373 28.740623 36.053123 28.740623Q37.38125 28.740623 38.209373 29.053123Q39.0375 29.365623 39.428123 29.849998Q39.81875 30.318748 39.975 31.037498Q40.06875 31.490623 40.06875 32.6625L40.06875 35.00625Q40.06875 37.459373 40.178123 38.115623Q40.2875 38.75625 40.63125 39.35L38.7875 39.35Q38.521873 38.803123 38.44375 38.06875ZM38.2875 34.146873Q37.334373 34.5375 35.4125 34.803123Q34.334373 34.959373 33.88125 35.1625Q33.44375 35.35 33.19375 35.725Q32.94375 36.1 32.94375 36.56875Q32.94375 37.271873 33.475 37.740623Q34.00625 38.209373 35.0375 38.209373Q36.053123 38.209373 36.834373 37.771873Q37.63125 37.31875 38.00625 36.553123Q38.2875 35.94375 38.2875 34.7875L38.2875 34.146873ZM45.553123 39.35L41.6 28.974998L43.459373 28.974998L45.69375 35.19375Q46.053123 36.19375 46.35 37.271873Q46.584373 36.459373 47.00625 35.303123L49.303123 28.974998L51.115623 28.974998L47.19375 39.35L45.553123 39.35ZM58.44375 38.06875Q57.459373 38.896873 56.553123 39.240623Q55.646873 39.584373 54.615623 39.584373Q52.9125 39.584373 51.990623 38.75625Q51.06875 37.9125 51.06875 36.615623Q51.06875 35.85 51.4125 35.225Q51.771873 34.6 52.334373 34.225Q52.896873 33.834373 53.6 33.63125Q54.115623 33.50625 55.1625 33.365623Q57.2875 33.115623 58.2875 32.771873Q58.303123 32.4125 58.303123 32.303123Q58.303123 31.240623 57.803123 30.787498Q57.13125 30.193748 55.803123 30.193748Q54.553123 30.193748 53.959373 30.631248Q53.38125 31.068748 53.1 32.178123L51.38125 31.943748Q51.615623 30.834373 52.146873 30.162498Q52.678123 29.474998 53.69375 29.115623Q54.709373 28.740623 56.053123 28.740623Q57.38125 28.740623 58.209373 29.053123Q59.0375 29.365623 59.428123 29.849998Q59.81875 30.318748 59.975 31.037498Q60.06875 31.490623 60.06875 32.6625L60.06875 35.00625Q60.06875 37.459373 60.178123 38.115623Q60.2875 38.75625 60.63125 39.35L58.7875 39.35Q58.521873 38.803123 58.44375 38.06875ZM58.2875 34.146873Q57.334373 34.5375 55.4125 34.803123Q54.334373 34.959373 53.88125 35.1625Q53.44375 35.35 53.19375 35.725Q52.94375 36.1 52.94375 36.56875Q52.94375 37.271873 53.475 37.740623Q54.00625 38.209373 55.0375 38.209373Q56.053123 38.209373 56.834373 37.771873Q57.63125 37.31875 58.00625 36.553123Q58.2875 35.94375 58.2875 34.7875L58.2875 34.146873ZM72.99062 39.35L67.44375 25.037498L69.49062 25.037498L73.20937 35.428123Q73.6625 36.678123 73.95937 37.771873Q74.2875 36.6 74.74062 35.428123L78.6 25.037498L80.5375 25.037498L74.92812 39.35L72.99062 39.35ZM88.77187 36.00625L90.58437 36.240623Q90.1625 37.81875 88.99062 38.709373Q87.83437 39.584373 86.02187 39.584373Q83.75625 39.584373 82.4125 38.19375Q81.08437 36.7875 81.08437 34.25625Q81.08437 31.631248 82.42812 30.193748Q83.77187 28.740623 85.92812 28.740623Q88.00625 28.740623 89.31875 30.162498Q90.64687 31.568748 90.64687 34.146873Q90.64687 34.303123 90.63125 34.615623L82.89687 34.615623Q82.99062 36.31875 83.86562 37.225Q84.74062 38.13125 86.0375 38.13125Q87.00625 38.13125 87.67812 37.63125Q88.36562 37.115623 88.77187 36.00625ZM82.99062 33.1625L88.7875 33.1625Q88.67812 31.865623 88.13125 31.209373Q87.2875 30.193748 85.94375 30.193748Q84.74062 30.193748 83.9125 31.006248Q83.08437 31.803123 82.99062 33.1625ZM92.64687 39.35L92.64687 28.974998L94.225 28.974998L94.225 30.553123Q94.83437 29.443748 95.35 29.099998Q95.86562 28.740623 96.475 28.740623Q97.36562 28.740623 98.2875 29.303123L97.67812 30.943748Q97.0375 30.553123 96.39687 30.553123Q95.81875 30.553123 95.35 30.912498Q94.89687 31.256248 94.69375 31.865623Q94.4125 32.803123 94.4125 33.9125L94.4125 39.35L92.64687 39.35ZM98.95937 36.25625L100.70937 35.975Q100.85 37.021873 101.52187 37.584373Q102.19375 38.13125 103.39687 38.13125Q104.6 38.13125 105.17812 37.646873Q105.77187 37.146873 105.77187 36.490623Q105.77187 35.896873 105.25625 35.553123Q104.89687 35.31875 103.45937 34.959373Q101.52187 34.459373 100.77187 34.115623Q100.0375 33.75625 99.64687 33.13125Q99.25625 32.490623 99.25625 31.724998Q99.25625 31.037498 99.56875 30.443748Q99.89687 29.849998 100.44375 29.459373Q100.85 29.162498 101.55312 28.959373Q102.27187 28.740623 103.08437 28.740623Q104.30312 28.740623 105.225 29.099998Q106.14687 29.443748 106.58437 30.053123Q107.02187 30.646873 107.19375 31.646873L105.475 31.881248Q105.35 31.084373 104.7875 30.646873Q104.225 30.193748 103.20937 30.193748Q101.99062 30.193748 101.475 30.599998Q100.95937 30.990623 100.95937 31.521873Q100.95937 31.865623 101.17812 32.146873Q101.38125 32.428123 101.85 32.615623Q102.11562 32.709373 103.39687 33.053123Q105.27187 33.553123 106.00625 33.88125Q106.74062 34.19375 107.1625 34.803123Q107.58437 35.396873 107.58437 36.303123Q107.58437 37.178123 107.06875 37.959373Q106.55312 38.740623 105.58437 39.1625Q104.61562 39.584373 103.39687 39.584373Q101.38125 39.584373 100.31875 38.740623Q99.25625 37.896873 98.95937 36.25625ZM109.67812 27.053123L109.67812 25.037498L111.44375 25.037498L111.44375 27.053123L109.67812 27.053123ZM109.67812 39.35L109.67812 28.974998L111.44375 28.974998L111.44375 39.35L109.67812 39.35ZM113.02187 34.1625Q113.02187 31.287498 114.61562 29.896873Q115.95937 28.740623 117.88125 28.740623Q120.02187 28.740623 121.36562 30.146873Q122.725 31.553123 122.725 34.021873Q122.725 36.021873 122.13125 37.178123Q121.5375 38.31875 120.38125 38.959373Q119.24062 39.584373 117.88125 39.584373Q115.69375 39.584373 114.35 38.19375Q113.02187 36.7875 113.02187 34.1625ZM114.81875 34.1625Q114.81875 36.1625 115.67812 37.146873Q116.55312 38.13125 117.88125 38.13125Q119.19375 38.13125 120.05312 37.146873Q120.92812 36.146873 120.92812 34.1Q120.92812 32.178123 120.05312 31.193748Q119.17812 30.193748 117.88125 30.193748Q116.55312 30.193748 115.67812 31.193748Q114.81875 32.178123 114.81875 34.1625ZM124.6625 39.35L124.6625 28.974998L126.25625 28.974998L126.25625 30.459373Q127.39687 28.740623 129.55313 28.740623Q130.49063 28.740623 131.27188 29.084373Q132.06876 29.412498 132.45938 29.959373Q132.85 30.506248 133.00626 31.256248Q133.1 31.756248 133.1 32.975L133.1 39.35L131.33438 39.35L131.33438 33.0375Q131.33438 31.959373 131.13126 31.428123Q130.92813 30.896873 130.39688 30.584373Q129.88126 30.271873 129.17813 30.271873Q128.05313 30.271873 127.24062 30.990623Q126.42812 31.693748 126.42812 33.678123L126.42812 39.35L124.6625 39.35Z" fill-rule="nonzero"/></svg>