<svg version="1.1" viewBox="0.0 0.0 670.0 407.0" fill="none" stroke="none" stroke-linecap="square" stroke-miterlimit="10" width="670" height="407" xmlns:xlink="http://www.w3.org/1999/xlink" xmlns="http://www.w3.org/2000/svg"><path fill="#ffffff" d="M0 0L670.0 0L670.0 407.0L0 407.0L0 0Z" fill-rule="nonzero"/><path stroke="#cccccc" stroke-width="1.0" stroke-linecap="butt" d="M78.5 92.5L78.5 366.5" fill-rule="nonzero"/><path stroke="#cccccc" stroke-width="1.0" stroke-linecap="butt" d="M218.5 92.5L218.5 366.5" fill-rule="nonzero"/><path stroke="#cccccc" stroke-width="1.0" stroke-linecap="butt" d="M358.5 92.5L358.5 366.5" fill-rule="nonzero"/><path stroke="#cccccc" stroke-width="1.0" stroke-linecap="butt" d="M499.5 92.5L499.5 366.5" fill-rule="nonzero"/><path stroke="#cccccc" stroke-width="1.0" stroke-linecap="butt" d="M639.5 92.5L639.5 366.5" fill-rule="nonzero"/><path stroke="#333333" stroke-width="1.0" stroke-linecap="butt" d="M68.5 366.5L649.5 366.5" fill-rule="nonzero"/><path stroke="#cccccc" stroke-width="1.0" stroke-linecap="butt" d="M68.5 298.5L649.5 298.5" fill-rule="nonzero"/><path stroke="#cccccc" stroke-width="1.0" stroke-linecap="butt" d="M68.5 229.5L649.5 229.5" fill-rule="nonzero"/><path stroke="#cccccc" stroke-width="1.0" stroke-linecap="butt" d="M68.5 161.5L649.5 161.5" fill-rule="nonzero"/><path stroke="#cccccc" stroke-width="1.0" stroke-linecap="butt" d="M68.5 92.5L649.5 92.5" fill-rule="nonzero"/><clipPath id="id_0"><path d="M68.35 92.48333L649.65 92.48333L649.65 366.65L68.35 366.65L68.35 92.48333Z" clip-rule="nonzero"/></clipPath><path stroke="#e69f00" stroke-width="2.0" stroke-linecap="butt" stroke-dasharray="2.0,3.0" clip-path="url(#id_0)" d="M639.9826 198.0375L499.4913 158.2148L359.0 155.47313L218.5087 129.2902L78.01739 112.56604" fill-rule="nonzero"/><path stroke="#d55e00" stroke-width="2.0" stroke-linecap="butt" stroke-dasharray="2.0,3.0" clip-path="url(#id_0)" d="M639.9826 168.49605L499.4913 158.76312L359.0 144.84917L218.5087 154.85625L78.01739 170.4152" fill-rule="nonzero"/><path stroke="#009e73" stroke-width="2.0" stroke-linecap="butt" stroke-dasharray="2.0,3.0" clip-path="url(#id_0)" d="M639.9826 240.25917L499.4913 243.41208L359.0 244.71437L218.5087 241.1502L78.01739 235.25563" fill-rule="nonzero"/><path stroke="#56b4e9" stroke-width="2.0" stroke-linecap="butt" stroke-dasharray="2.0,3.0" clip-path="url(#id_0)" d="M639.9826 174.39062L499.4913 220.79333L359.0 236.07812L218.5087 255.95522L78.01739 262.94647" fill-rule="nonzero"/><path fill="#e69f00" clip-path="url(#id_0)" d="M639.9826 192.0375L645.1788 201.0375L634.78644 201.0375Z" fill-rule="nonzero"/><path fill="#e69f00" clip-path="url(#id_0)" d="M499.4913 152.2148L504.68747 161.2148L494.29517 161.2148Z" fill-rule="nonzero"/><path fill="#e69f00" clip-path="url(#id_0)" d="M359.0 149.47313L364.19617 158.47313L353.80383 158.47313Z" fill-rule="nonzero"/><path fill="#e69f00" clip-path="url(#id_0)" d="M218.5087 123.29021L223.70485 132.2902L213.31255 132.2902Z" fill-rule="nonzero"/><path fill="#e69f00" clip-path="url(#id_0)" d="M78.01739 106.56604L83.21354 115.56604L72.821236 115.56604Z" fill-rule="nonzero"/><path fill="#d55e00" clip-path="url(#id_0)" d="M639.9826 162.49605L641.3297 166.64194L645.68896 166.64194L642.16223 169.20424L643.50934 173.35014L639.9826 170.78784L636.4559 173.35014L637.803 169.20424L634.27625 166.64194L638.63556 166.64194Z" fill-rule="nonzero"/><path fill="#d55e00" clip-path="url(#id_0)" d="M499.4913 152.76312L500.83838 156.90903L505.19763 156.90903L501.67093 159.47133L503.018 163.61723L499.4913 161.05492L495.9646 163.61723L497.31168 159.47133L493.78497 156.90903L498.14423 156.90903Z" fill-rule="nonzero"/><path fill="#d55e00" clip-path="url(#id_0)" d="M359.0 138.84917L360.34708 142.99507L364.70633 142.99507L361.17963 145.55737L362.5267 149.70326L359.0 147.14096L355.4733 149.70326L356.82037 145.55737L353.29367 142.99507L357.65292 142.99507Z" fill-rule="nonzero"/><path fill="#d55e00" clip-path="url(#id_0)" d="M218.5087 148.85625L219.85577 153.00215L224.21503 153.00215L220.68832 155.56445L222.0354 159.71036L218.5087 157.14804L214.98198 159.71036L216.32907 155.56445L212.80235 153.00215L217.1616 153.00215Z" fill-rule="nonzero"/><path fill="#d55e00" clip-path="url(#id_0)" d="M78.01739 164.4152L79.36447 168.56111L83.723724 168.56111L80.197014 171.12341L81.5441 175.26932L78.01739 172.707L74.49068 175.26932L75.83776 171.12341L72.31105 168.56111L76.6703 168.56111Z" fill-rule="nonzero"/><path fill="#009e73" clip-path="url(#id_0)" d="M635.74 236.01653L644.2253 236.01653L644.2253 244.5018L635.74 244.5018Z" fill-rule="nonzero"/><path fill="#009e73" clip-path="url(#id_0)" d="M495.24866 239.16945L503.73395 239.16945L503.73395 247.65472L495.24866 247.65472Z" fill-rule="nonzero"/><path fill="#009e73" clip-path="url(#id_0)" d="M354.75735 240.47174L363.24265 240.47174L363.24265 248.95702L354.75735 248.95702Z" fill-rule="nonzero"/><path fill="#009e73" clip-path="url(#id_0)" d="M214.26605 236.90756L222.75133 236.90756L222.75133 245.39285L214.26605 245.39285Z" fill-rule="nonzero"/><path fill="#009e73" clip-path="url(#id_0)" d="M73.77475 231.01299L82.260025 231.01299L82.260025 239.49826L73.77475 239.49826Z" fill-rule="nonzero"/><path fill="#56b4e9" clip-path="url(#id_0)" d="M645.9826 174.39062C645.9826 177.70433 643.2963 180.39062 639.9826 180.39062C636.6689 180.39062 633.9826 177.70433 633.9826 174.39062C633.9826 171.07692 636.6689 168.39062 639.9826 168.39062C643.2963 168.39062 645.9826 171.07692 645.9826 174.39062Z" fill-rule="nonzero"/><path fill="#56b4e9" clip-path="url(#id_0)" d="M505.4913 220.79333C505.4913 224.10704 502.80502 226.79333 499.4913 226.79333C496.1776 226.79333 493.4913 224.10704 493.4913 220.79333C493.4913 217.47963 496.1776 214.79333 499.4913 214.79333C502.80502 214.79333 505.4913 217.47963 505.4913 220.79333Z" fill-rule="nonzero"/><path fill="#56b4e9" clip-path="url(#id_0)" d="M365.0 236.07812C365.0 239.39183 362.31372 242.07812 359.0 242.07812C355.68628 242.07812 353.0 239.39183 353.0 236.07812C353.0 232.76442 355.68628 230.07812 359.0 230.07812C362.31372 230.07812 365.0 232.76442 365.0 236.07812Z" fill-rule="nonzero"/><path fill="#56b4e9" clip-path="url(#id_0)" d="M224.5087 255.95522C224.5087 259.26892 221.8224 261.9552 218.5087 261.9552C215.19499 261.9552 212.5087 259.26892 212.5087 255.95522C212.5087 252.6415 215.19499 249.95522 218.5087 249.95522C221.8224 249.95522 224.5087 252.6415 224.5087 255.95522Z" fill-rule="nonzero"/><path fill="#56b4e9" clip-path="url(#id_0)" d="M84.01739 262.94647C84.01739 266.26016 81.33109 268.94647 78.01739 268.94647C74.70368 268.94647 72.01739 266.26016 72.01739 262.94647C72.01739 259.63275 74.70368 256.94647 78.01739 256.94647C81.33109 256.94647 84.01739 259.63275 84.01739 262.94647Z" fill-rule="nonzero"/><path fill="#000000" d="M27.85 366.41562Q27.85 364.88437 28.1625 363.9625Q28.475 363.025 29.084375 362.525Q29.709375 362.025 30.646875 362.025Q31.334375 362.025 31.85 362.30624Q32.38125 362.5875 32.725 363.11874Q33.06875 363.63437 33.25625 364.38437Q33.44375 365.13437 33.44375 366.41562Q33.44375 367.93124 33.13125 368.85312Q32.834373 369.775 32.209373 370.29062Q31.6 370.79062 30.646875 370.79062Q29.4125 370.79062 28.69375 369.9Q27.85 368.8375 27.85 366.41562ZM28.928125 366.41562Q28.928125 368.525 29.428125 369.22812Q29.928125 369.93124 30.646875 369.93124Q31.38125 369.93124 31.865625 369.22812Q32.365623 368.525 32.365623 366.41562Q32.365623 364.29062 31.865625 363.60312Q31.38125 362.9 30.63125 362.9Q29.9125 362.9 29.475 363.50937Q28.928125 364.29062 28.928125 366.41562ZM35.44375 370.65L35.44375 369.44687L36.646873 369.44687L36.646873 370.65L35.44375 370.65ZM37.85 366.41562Q37.85 364.88437 38.1625 363.9625Q38.475 363.025 39.084373 362.525Q39.709373 362.025 40.646873 362.025Q41.334373 362.025 41.85 362.30624Q42.38125 362.5875 42.725 363.11874Q43.06875 363.63437 43.25625 364.38437Q43.44375 365.13437 43.44375 366.41562Q43.44375 367.93124 43.13125 368.85312Q42.834373 369.775 42.209373 370.29062Q41.6 370.79062 40.646873 370.79062Q39.4125 370.79062 38.69375 369.9Q37.85 368.8375 37.85 366.41562ZM38.928123 366.41562Q38.928123 368.525 39.428123 369.22812Q39.928123 369.93124 40.646873 369.93124Q41.38125 369.93124 41.865623 369.22812Q42.365623 368.525 42.365623 366.41562Q42.365623 364.29062 41.865623 363.60312Q41.38125 362.9 40.63125 362.9Q39.9125 362.9 39.475 363.50937Q38.928123 364.29062 38.928123 366.41562ZM44.85 366.41562Q44.85 364.88437 45.1625 363.9625Q45.475 363.025 46.084373 362.525Q46.709373 362.025 47.646873 362.025Q48.334373 362.025 48.85 362.30624Q49.38125 362.5875 49.725 363.11874Q50.06875 363.63437 50.25625 364.38437Q50.44375 365.13437 50.44375 366.41562Q50.44375 367.93124 50.13125 368.85312Q49.834373 369.775 49.209373 370.29062Q48.6 370.79062 47.646873 370.79062Q46.4125 370.79062 45.69375 369.9Q44.85 368.8375 44.85 366.41562ZM45.928123 366.41562Q45.928123 368.525 46.428123 369.22812Q46.928123 369.93124 47.646873 369.93124Q48.38125 369.93124 48.865623 369.22812Q49.365623 368.525 49.365623 366.41562Q49.365623 364.29062 48.865623 363.60312Q48.38125 362.9 47.63125 362.9Q46.9125 362.9 46.475 363.50937Q45.928123 364.29062 45.928123 366.41562ZM52.053123 364.11874Q52.053123 363.19687 52.50625 362.55624Q52.975 361.91562 53.85 361.91562Q54.6625 361.91562 55.19375 362.49374Q55.725 363.07187 55.725 364.18124Q55.725 365.275 55.178123 365.86874Q54.646873 366.44687 53.865623 366.44687Q53.084373 366.44687 52.56875 365.86874Q52.053123 365.29062 52.053123 364.11874ZM53.88125 362.63437Q53.490623 362.63437 53.225 362.97812Q52.975 363.32187 52.975 364.22812Q52.975 365.05624 53.225 365.4Q53.490623 365.72812 53.88125 365.72812Q54.2875 365.72812 54.5375 365.38437Q54.803123 365.04062 54.803123 364.15Q54.803123 363.30624 54.5375 362.97812Q54.271873 362.63437 53.88125 362.63437ZM53.88125 370.9625L58.584373 361.91562L59.44375 361.91562L54.75625 370.9625L53.88125 370.9625ZM57.6 368.63437Q57.6 367.7125 58.053123 367.07187Q58.521873 366.43124 59.4125 366.43124Q60.225 366.43124 60.75625 367.00937Q61.2875 367.57187 61.2875 368.69687Q61.2875 369.79062 60.740623 370.38437Q60.209373 370.9625 59.4125 370.9625Q58.646873 370.9625 58.115623 370.38437Q57.6 369.80624 57.6 368.63437ZM59.44375 367.15Q59.0375 367.15 58.771873 367.49374Q58.521873 367.8375 58.521873 368.74374Q58.521873 369.55624 58.7875 369.9Q59.053123 370.24374 59.44375 370.24374Q59.834373 370.24374 60.1 369.9Q60.365623 369.55624 60.365623 368.65Q60.365623 367.82187 60.1 367.49374Q59.834373 367.15 59.44375 367.15Z" fill-rule="nonzero"/><path fill="#000000" d="M24.81875 302.10834L23.771875 302.10834L23.771875 295.3896Q23.38125 295.74896 22.75625 296.12396Q22.146875 296.48334 21.6625 296.6552L21.6625 295.6396Q22.5375 295.2177 23.19375 294.6396Q23.865625 294.04584 24.146875 293.48334L24.81875 293.48334L24.81875 302.10834ZM27.85 297.87396Q27.85 296.3427 28.1625 295.42084Q28.475 294.48334 29.084375 293.98334Q29.709375 293.48334 30.646875 293.48334Q31.334375 293.48334 31.85 293.7646Q32.38125 294.04584 32.725 294.5771Q33.06875 295.0927 33.25625 295.8427Q33.44375 296.5927 33.44375 297.87396Q33.44375 299.3896 33.13125 300.31146Q32.834373 301.23334 32.209373 301.74896Q31.6 302.24896 30.646875 302.24896Q29.4125 302.24896 28.69375 301.35834Q27.85 300.29584 27.85 297.87396ZM28.928125 297.87396Q28.928125 299.98334 29.428125 300.68646Q29.928125 301.3896 30.646875 301.3896Q31.38125 301.3896 31.865625 300.68646Q32.365623 299.98334 32.365623 297.87396Q32.365623 295.74896 31.865625 295.06146Q31.38125 294.35834 30.63125 294.35834Q29.9125 294.35834 29.475 294.9677Q28.928125 295.74896 28.928125 297.87396ZM35.44375 302.10834L35.44375 300.9052L36.646873 300.9052L36.646873 302.10834L35.44375 302.10834ZM37.85 297.87396Q37.85 296.3427 38.1625 295.42084Q38.475 294.48334 39.084373 293.98334Q39.709373 293.48334 40.646873 293.48334Q41.334373 293.48334 41.85 293.7646Q42.38125 294.04584 42.725 294.5771Q43.06875 295.0927 43.25625 295.8427Q43.44375 296.5927 43.44375 297.87396Q43.44375 299.3896 43.13125 300.31146Q42.834373 301.23334 42.209373 301.74896Q41.6 302.24896 40.646873 302.24896Q39.4125 302.24896 38.69375 301.35834Q37.85 300.29584 37.85 297.87396ZM38.928123 297.87396Q38.928123 299.98334 39.428123 300.68646Q39.928123 301.3896 40.646873 301.3896Q41.38125 301.3896 41.865623 300.68646Q42.365623 299.98334 42.365623 297.87396Q42.365623 295.74896 41.865623 295.06146Q41.38125 294.35834 40.63125 294.35834Q39.9125 294.35834 39.475 294.9677Q38.928123 295.74896 38.928123 297.87396ZM44.85 297.87396Q44.85 296.3427 45.1625 295.42084Q45.475 294.48334 46.084373 293.98334Q46.709373 293.48334 47.646873 293.48334Q48.334373 293.48334 48.85 293.7646Q49.38125 294.04584 49.725 294.5771Q50.06875 295.0927 50.25625 295.8427Q50.44375 296.5927 50.44375 297.87396Q50.44375 299.3896 50.13125 300.31146Q49.834373 301.23334 49.209373 301.74896Q48.6 302.24896 47.646873 302.24896Q46.4125 302.24896 45.69375 301.35834Q44.85 300.29584 44.85 297.87396ZM45.928123 297.87396Q45.928123 299.98334 46.428123 300.68646Q46.928123 301.3896 47.646873 301.3896Q48.38125 301.3896 48.865623 300.68646Q49.365623 299.98334 49.365623 297.87396Q49.365623 295.74896 48.865623 295.06146Q48.38125 294.35834 47.63125 294.35834Q46.9125 294.35834 46.475 294.9677Q45.928123 295.74896 45.928123 297.87396ZM52.053123 295.5771Q52.053123 294.6552 52.50625 294.0146Q52.975 293.37396 53.85 293.37396Q54.6625 293.37396 55.19375 293.9521Q55.725 294.5302 55.725 295.6396Q55.725 296.73334 55.178123 297.3271Q54.646873 297.9052 53.865623 297.9052Q53.084373 297.9052 52.56875 297.3271Q52.053123 296.74896 52.053123 295.5771ZM53.88125 294.0927Q53.490623 294.0927 53.225 294.43646Q52.975 294.7802 52.975 295.68646Q52.975 296.5146 53.225 296.85834Q53.490623 297.18646 53.88125 297.18646Q54.2875 297.18646 54.5375 296.8427Q54.803123 296.49896 54.803123 295.60834Q54.803123 294.7646 54.5375 294.43646Q54.271873 294.0927 53.88125 294.0927ZM53.88125 302.42084L58.584373 293.37396L59.44375 293.37396L54.75625 302.42084L53.88125 302.42084ZM57.6 300.0927Q57.6 299.17084 58.053123 298.5302Q58.521873 297.8896 59.4125 297.8896Q60.225 297.8896 60.75625 298.4677Q61.2875 299.0302 61.2875 300.1552Q61.2875 301.24896 60.740623 301.8427Q60.209373 302.42084 59.4125 302.42084Q58.646873 302.42084 58.115623 301.8427Q57.6 301.2646 57.6 300.0927ZM59.44375 298.60834Q59.0375 298.60834 58.771873 298.9521Q58.521873 299.29584 58.521873 300.2021Q58.521873 301.0146 58.7875 301.35834Q59.053123 301.7021 59.44375 301.7021Q59.834373 301.7021 60.1 301.35834Q60.365623 301.0146 60.365623 300.10834Q60.365623 299.2802 60.1 298.9521Q59.834373 298.60834 59.44375 298.60834Z" fill-rule="nonzero"/><path fill="#000000" d="M26.396875 232.55104L26.396875 233.56667L20.709375 233.56667Q20.709375 233.19167 20.834375 232.83229Q21.053125 232.25417 21.521875 231.69167Q22.00625 231.12917 22.9125 230.39479Q24.31875 229.23854 24.803125 228.56667Q25.303125 227.89479 25.303125 227.30104Q25.303125 226.67604 24.85 226.25417Q24.396875 225.81667 23.678125 225.81667Q22.9125 225.81667 22.459375 226.26979Q22.00625 226.72292 21.990625 227.53542L20.9125 227.42604Q21.021875 226.20729 21.740625 225.58229Q22.475 224.94167 23.709375 224.94167Q24.94375 224.94167 25.6625 225.62917Q26.38125 226.31667 26.38125 227.33229Q26.38125 227.84792 26.1625 228.34792Q25.959375 228.83229 25.459375 229.39479Q24.975 229.94167 23.85 230.89479Q22.896875 231.69167 22.615625 231.98854Q22.35 232.26979 22.178125 232.55104L26.396875 232.55104ZM27.85 229.33229Q27.85 227.80104 28.1625 226.87917Q28.475 225.94167 29.084375 225.44167Q29.709375 224.94167 30.646875 224.94167Q31.334375 224.94167 31.85 225.22292Q32.38125 225.50417 32.725 226.03542Q33.06875 226.55104 33.25625 227.30104Q33.44375 228.05104 33.44375 229.33229Q33.44375 230.84792 33.13125 231.76979Q32.834373 232.69167 32.209373 233.20729Q31.6 233.70729 30.646875 233.70729Q29.4125 233.70729 28.69375 232.81667Q27.85 231.75417 27.85 229.33229ZM28.928125 229.33229Q28.928125 231.44167 29.428125 232.14479Q29.928125 232.84792 30.646875 232.84792Q31.38125 232.84792 31.865625 232.14479Q32.365623 231.44167 32.365623 229.33229Q32.365623 227.20729 31.865625 226.51979Q31.38125 225.81667 30.63125 225.81667Q29.9125 225.81667 29.475 226.42604Q28.928125 227.20729 28.928125 229.33229ZM35.44375 233.56667L35.44375 232.36354L36.646873 232.36354L36.646873 233.56667L35.44375 233.56667ZM37.85 229.33229Q37.85 227.80104 38.1625 226.87917Q38.475 225.94167 39.084373 225.44167Q39.709373 224.94167 40.646873 224.94167Q41.334373 224.94167 41.85 225.22292Q42.38125 225.50417 42.725 226.03542Q43.06875 226.55104 43.25625 227.30104Q43.44375 228.05104 43.44375 229.33229Q43.44375 230.84792 43.13125 231.76979Q42.834373 232.69167 42.209373 233.20729Q41.6 233.70729 40.646873 233.70729Q39.4125 233.70729 38.69375 232.81667Q37.85 231.75417 37.85 229.33229ZM38.928123 229.33229Q38.928123 231.44167 39.428123 232.14479Q39.928123 232.84792 40.646873 232.84792Q41.38125 232.84792 41.865623 232.14479Q42.365623 231.44167 42.365623 229.33229Q42.365623 227.20729 41.865623 226.51979Q41.38125 225.81667 40.63125 225.81667Q39.9125 225.81667 39.475 226.42604Q38.928123 227.20729 38.928123 229.33229ZM44.85 229.33229Q44.85 227.80104 45.1625 226.87917Q45.475 225.94167 46.084373 225.44167Q46.709373 224.94167 47.646873 224.94167Q48.334373 224.94167 48.85 225.22292Q49.38125 225.50417 49.725 226.03542Q50.06875 226.55104 50.25625 227.30104Q50.44375 228.05104 50.44375 229.33229Q50.44375 230.84792 50.13125 231.76979Q49.834373 232.69167 49.209373 233.20729Q48.6 233.70729 47.646873 233.70729Q46.4125 233.70729 45.69375 232.81667Q44.85 231.75417 44.85 229.33229ZM45.928123 229.33229Q45.928123 231.44167 46.428123 232.14479Q46.928123 232.84792 47.646873 232.84792Q48.38125 232.84792 48.865623 232.14479Q49.365623 231.44167 49.365623 229.33229Q49.365623 227.20729 48.865623 226.51979Q48.38125 225.81667 47.63125 225.81667Q46.9125 225.81667 46.475 226.42604Q45.928123 227.20729 45.928123 229.33229ZM52.053123 227.03542Q52.053123 226.11354 52.50625 225.47292Q52.975 224.83229 53.85 224.83229Q54.6625 224.83229 55.19375 225.41042Q55.725 225.98854 55.725 227.09792Q55.725 228.19167 55.178123 228.78542Q54.646873 229.36354 53.865623 229.36354Q53.084373 229.36354 52.56875 228.78542Q52.053123 228.20729 52.053123 227.03542ZM53.88125 225.55104Q53.490623 225.55104 53.225 225.89479Q52.975 226.23854 52.975 227.14479Q52.975 227.97292 53.225 228.31667Q53.490623 228.64479 53.88125 228.64479Q54.2875 228.64479 54.5375 228.30104Q54.803123 227.95729 54.803123 227.06667Q54.803123 226.22292 54.5375 225.89479Q54.271873 225.55104 53.88125 225.55104ZM53.88125 233.87917L58.584373 224.83229L59.44375 224.83229L54.75625 233.87917L53.88125 233.87917ZM57.6 231.55104Q57.6 230.62917 58.053123 229.98854Q58.521873 229.34792 59.4125 229.34792Q60.225 229.34792 60.75625 229.92604Q61.2875 230.48854 61.2875 231.61354Q61.2875 232.70729 60.740623 233.30104Q60.209373 233.87917 59.4125 233.87917Q58.646873 233.87917 58.115623 233.30104Q57.6 232.72292 57.6 231.55104ZM59.44375 230.06667Q59.0375 230.06667 58.771873 230.41042Q58.521873 230.75417 58.521873 231.66042Q58.521873 232.47292 58.7875 232.81667Q59.053123 233.16042 59.44375 233.16042Q59.834373 233.16042 60.1 232.81667Q60.365623 232.47292 60.365623 231.56667Q60.365623 230.73854 60.1 230.41042Q59.834373 230.06667 59.44375 230.06667Z" fill-rule="nonzero"/><path fill="#000000" d="M20.85 162.75937L21.9125 162.61874Q22.084375 163.50937 22.521875 163.91562Q22.959375 164.30624 23.584375 164.30624Q24.334375 164.30624 24.85 163.79062Q25.365625 163.275 25.365625 162.50937Q25.365625 161.79062 24.88125 161.32187Q24.4125 160.8375 23.678125 160.8375Q23.38125 160.8375 22.928125 160.9625L23.053125 160.025Q23.1625 160.04062 23.225 160.04062Q23.896875 160.04062 24.428125 159.69687Q24.975 159.3375 24.975 158.60312Q24.975 158.025 24.584375 157.65Q24.19375 157.25937 23.56875 157.25937Q22.959375 157.25937 22.5375 157.65Q22.13125 158.04062 22.021875 158.80624L20.959375 158.61874Q21.146875 157.57187 21.834375 156.99374Q22.521875 156.4 23.5375 156.4Q24.240625 156.4 24.834375 156.7125Q25.428125 157.00937 25.740625 157.525Q26.053125 158.04062 26.053125 158.63437Q26.053125 159.18124 25.75625 159.65Q25.459375 160.10312 24.88125 160.36874Q25.63125 160.54062 26.053125 161.10312Q26.475 161.65 26.475 162.49374Q26.475 163.61874 25.646875 164.4Q24.834375 165.18124 23.584375 165.18124Q22.459375 165.18124 21.709375 164.50937Q20.959375 163.82187 20.85 162.75937ZM27.85 160.79062Q27.85 159.25937 28.1625 158.3375Q28.475 157.4 29.084375 156.9Q29.709375 156.4 30.646875 156.4Q31.334375 156.4 31.85 156.68124Q32.38125 156.9625 32.725 157.49374Q33.06875 158.00937 33.25625 158.75937Q33.44375 159.50937 33.44375 160.79062Q33.44375 162.30624 33.13125 163.22812Q32.834373 164.15 32.209373 164.66562Q31.6 165.16562 30.646875 165.16562Q29.4125 165.16562 28.69375 164.275Q27.85 163.2125 27.85 160.79062ZM28.928125 160.79062Q28.928125 162.9 29.428125 163.60312Q29.928125 164.30624 30.646875 164.30624Q31.38125 164.30624 31.865625 163.60312Q32.365623 162.9 32.365623 160.79062Q32.365623 158.66562 31.865625 157.97812Q31.38125 157.275 30.63125 157.275Q29.9125 157.275 29.475 157.88437Q28.928125 158.66562 28.928125 160.79062ZM35.44375 165.025L35.44375 163.82187L36.646873 163.82187L36.646873 165.025L35.44375 165.025ZM37.85 160.79062Q37.85 159.25937 38.1625 158.3375Q38.475 157.4 39.084373 156.9Q39.709373 156.4 40.646873 156.4Q41.334373 156.4 41.85 156.68124Q42.38125 156.9625 42.725 157.49374Q43.06875 158.00937 43.25625 158.75937Q43.44375 159.50937 43.44375 160.79062Q43.44375 162.30624 43.13125 163.22812Q42.834373 164.15 42.209373 164.66562Q41.6 165.16562 40.646873 165.16562Q39.4125 165.16562 38.69375 164.275Q37.85 163.2125 37.85 160.79062ZM38.928123 160.79062Q38.928123 162.9 39.428123 163.60312Q39.928123 164.30624 40.646873 164.30624Q41.38125 164.30624 41.865623 163.60312Q42.365623 162.9 42.365623 160.79062Q42.365623 158.66562 41.865623 157.97812Q41.38125 157.275 40.63125 157.275Q39.9125 157.275 39.475 157.88437Q38.928123 158.66562 38.928123 160.79062ZM44.85 160.79062Q44.85 159.25937 45.1625 158.3375Q45.475 157.4 46.084373 156.9Q46.709373 156.4 47.646873 156.4Q48.334373 156.4 48.85 156.68124Q49.38125 156.9625 49.725 157.49374Q50.06875 158.00937 50.25625 158.75937Q50.44375 159.50937 50.44375 160.79062Q50.44375 162.30624 50.13125 163.22812Q49.834373 164.15 49.209373 164.66562Q48.6 165.16562 47.646873 165.16562Q46.4125 165.16562 45.69375 164.275Q44.85 163.2125 44.85 160.79062ZM45.928123 160.79062Q45.928123 162.9 46.428123 163.60312Q46.928123 164.30624 47.646873 164.30624Q48.38125 164.30624 48.865623 163.60312Q49.365623 162.9 49.365623 160.79062Q49.365623 158.66562 48.865623 157.97812Q48.38125 157.275 47.63125 157.275Q46.9125 157.275 46.475 157.88437Q45.928123 158.66562 45.928123 160.79062ZM52.053123 158.49374Q52.053123 157.57187 52.50625 156.93124Q52.975 156.29062 53.85 156.29062Q54.6625 156.29062 55.19375 156.86874Q55.725 157.44687 55.725 158.55624Q55.725 159.65 55.178123 160.24374Q54.646873 160.82187 53.865623 160.82187Q53.084373 160.82187 52.56875 160.24374Q52.053123 159.66562 52.053123 158.49374ZM53.88125 157.00937Q53.490623 157.00937 53.225 157.35312Q52.975 157.69687 52.975 158.60312Q52.975 159.43124 53.225 159.775Q53.490623 160.10312 53.88125 160.10312Q54.2875 160.10312 54.5375 159.75937Q54.803123 159.41562 54.803123 158.525Q54.803123 157.68124 54.5375 157.35312Q54.271873 157.00937 53.88125 157.00937ZM53.88125 165.3375L58.584373 156.29062L59.44375 156.29062L54.75625 165.3375L53.88125 165.3375ZM57.6 163.00937Q57.6 162.0875 58.053123 161.44687Q58.521873 160.80624 59.4125 160.80624Q60.225 160.80624 60.75625 161.38437Q61.2875 161.94687 61.2875 163.07187Q61.2875 164.16562 60.740623 164.75937Q60.209373 165.3375 59.4125 165.3375Q58.646873 165.3375 58.115623 164.75937Q57.6 164.18124 57.6 163.00937ZM59.44375 161.525Q59.0375 161.525 58.771873 161.86874Q58.521873 162.2125 58.521873 163.11874Q58.521873 163.93124 58.7875 164.275Q59.053123 164.61874 59.44375 164.61874Q59.834373 164.61874 60.1 164.275Q60.365623 163.93124 60.365623 163.025Q60.365623 162.19687 60.1 161.86874Q59.834373 161.525 59.44375 161.525Z" fill-rule="nonzero"/><path fill="#000000" d="M24.225 96.48333L24.225 94.42083L20.50625 94.42083L20.50625 93.45208L24.428125 87.88958L25.2875 87.88958L25.2875 93.45208L26.44375 93.45208L26.44375 94.42083L25.2875 94.42083L25.2875 96.48333L24.225 96.48333ZM24.225 93.45208L24.225 89.592705L21.5375 93.45208L24.225 93.45208ZM27.85 92.248955Q27.85 90.717705 28.1625 89.79583Q28.475 88.85833 29.084375 88.35833Q29.709375 87.85833 30.646875 87.85833Q31.334375 87.85833 31.85 88.13958Q32.38125 88.42083 32.725 88.95208Q33.06875 89.467705 33.25625 90.217705Q33.44375 90.967705 33.44375 92.248955Q33.44375 93.76458 33.13125 94.686455Q32.834373 95.60833 32.209373 96.123955Q31.6 96.623955 30.646875 96.623955Q29.4125 96.623955 28.69375 95.73333Q27.85 94.67083 27.85 92.248955ZM28.928125 92.248955Q28.928125 94.35833 29.428125 95.061455Q29.928125 95.76458 30.646875 95.76458Q31.38125 95.76458 31.865625 95.061455Q32.365623 94.35833 32.365623 92.248955Q32.365623 90.123955 31.865625 89.436455Q31.38125 88.73333 30.63125 88.73333Q29.9125 88.73333 29.475 89.342705Q28.928125 90.123955 28.928125 92.248955ZM35.44375 96.48333L35.44375 95.280205L36.646873 95.280205L36.646873 96.48333L35.44375 96.48333ZM37.85 92.248955Q37.85 90.717705 38.1625 89.79583Q38.475 88.85833 39.084373 88.35833Q39.709373 87.85833 40.646873 87.85833Q41.334373 87.85833 41.85 88.13958Q42.38125 88.42083 42.725 88.95208Q43.06875 89.467705 43.25625 90.217705Q43.44375 90.967705 43.44375 92.248955Q43.44375 93.76458 43.13125 94.686455Q42.834373 95.60833 42.209373 96.123955Q41.6 96.623955 40.646873 96.623955Q39.4125 96.623955 38.69375 95.73333Q37.85 94.67083 37.85 92.248955ZM38.928123 92.248955Q38.928123 94.35833 39.428123 95.061455Q39.928123 95.76458 40.646873 95.76458Q41.38125 95.76458 41.865623 95.061455Q42.365623 94.35833 42.365623 92.248955Q42.365623 90.123955 41.865623 89.436455Q41.38125 88.73333 40.63125 88.73333Q39.9125 88.73333 39.475 89.342705Q38.928123 90.123955 38.928123 92.248955ZM44.85 92.248955Q44.85 90.717705 45.1625 89.79583Q45.475 88.85833 46.084373 88.35833Q46.709373 87.85833 47.646873 87.85833Q48.334373 87.85833 48.85 88.13958Q49.38125 88.42083 49.725 88.95208Q50.06875 89.467705 50.25625 90.217705Q50.44375 90.967705 50.44375 92.248955Q50.44375 93.76458 50.13125 94.686455Q49.834373 95.60833 49.209373 96.123955Q48.6 96.623955 47.646873 96.623955Q46.4125 96.623955 45.69375 95.73333Q44.85 94.67083 44.85 92.248955ZM45.928123 92.248955Q45.928123 94.35833 46.428123 95.061455Q46.928123 95.76458 47.646873 95.76458Q48.38125 95.76458 48.865623 95.061455Q49.365623 94.35833 49.365623 92.248955Q49.365623 90.123955 48.865623 89.436455Q48.38125 88.73333 47.63125 88.73333Q46.9125 88.73333 46.475 89.342705Q45.928123 90.123955 45.928123 92.248955ZM52.053123 89.95208Q52.053123 89.030205 52.50625 88.38958Q52.975 87.748955 53.85 87.748955Q54.6625 87.748955 55.19375 88.32708Q55.725 88.905205 55.725 90.01458Q55.725 91.10833 55.178123 91.70208Q54.646873 92.280205 53.865623 92.280205Q53.084373 92.280205 52.56875 91.70208Q52.053123 91.123955 52.053123 89.95208ZM53.88125 88.467705Q53.490623 88.467705 53.225 88.811455Q52.975 89.155205 52.975 90.061455Q52.975 90.88958 53.225 91.23333Q53.490623 91.561455 53.88125 91.561455Q54.2875 91.561455 54.5375 91.217705Q54.803123 90.873955 54.803123 89.98333Q54.803123 89.13958 54.5375 88.811455Q54.271873 88.467705 53.88125 88.467705ZM53.88125 96.79583L58.584373 87.748955L59.44375 87.748955L54.75625 96.79583L53.88125 96.79583ZM57.6 94.467705Q57.6 93.54583 58.053123 92.905205Q58.521873 92.26458 59.4125 92.26458Q60.225 92.26458 60.75625 92.842705Q61.2875 93.405205 61.2875 94.530205Q61.2875 95.623955 60.740623 96.217705Q60.209373 96.79583 59.4125 96.79583Q58.646873 96.79583 58.115623 96.217705Q57.6 95.63958 57.6 94.467705ZM59.44375 92.98333Q59.0375 92.98333 58.771873 93.32708Q58.521873 93.67083 58.521873 94.57708Q58.521873 95.38958 58.7875 95.73333Q59.053123 96.07708 59.44375 96.07708Q59.834373 96.07708 60.1 95.73333Q60.365623 95.38958 60.365623 94.48333Q60.365623 93.655205 60.1 93.32708Q59.834373 92.98333 59.44375 92.98333Z" fill-rule="nonzero"/><path fill="#000000" d="M70.06426 382.63437L70.06426 383.65L64.37676 383.65Q64.37676 383.275 64.50176 382.91562Q64.72051 382.3375 65.18926 381.775Q65.67364 381.2125 66.57989 380.47812Q67.98614 379.32187 68.47051 378.65Q68.97051 377.97812 68.97051 377.38437Q68.97051 376.75937 68.51739 376.3375Q68.06426 375.9 67.34551 375.9Q66.57989 375.9 66.12676 376.35312Q65.67364 376.80624 65.65801 377.61874L64.57989 377.50937Q64.68926 376.29062 65.40801 375.66562Q66.14239 375.025 67.37676 375.025Q68.61114 375.025 69.32989 375.7125Q70.04864 376.4 70.04864 377.41562Q70.04864 377.93124 69.82989 378.43124Q69.62676 378.91562 69.12676 379.47812Q68.64239 380.025 67.51739 380.97812Q66.56426 381.775 66.28301 382.07187Q66.01739 382.35312 65.84551 382.63437L70.06426 382.63437ZM71.51739 379.41562Q71.51739 377.88437 71.82989 376.9625Q72.14239 376.025 72.75176 375.525Q73.37676 375.025 74.31426 375.025Q75.00176 375.025 75.51739 375.30624Q76.04864 375.5875 76.39239 376.11874Q76.73614 376.63437 76.92364 377.38437Q77.11114 378.13437 77.11114 379.41562Q77.11114 380.93124 76.79864 381.85312Q76.50176 382.775 75.87676 383.29062Q75.26739 383.79062 74.31426 383.79062Q73.07989 383.79062 72.36114 382.9Q71.51739 381.8375 71.51739 379.41562ZM72.59551 379.41562Q72.59551 381.525 73.09551 382.22812Q73.59551 382.93124 74.31426 382.93124Q75.04864 382.93124 75.53301 382.22812Q76.03301 381.525 76.03301 379.41562Q76.03301 377.29062 75.53301 376.60312Q75.04864 375.9 74.29864 375.9Q73.57989 375.9 73.14239 376.50937Q72.59551 377.29062 72.59551 379.41562ZM82.48614 383.65L81.43926 383.65L81.43926 376.93124Q81.04864 377.29062 80.42364 377.66562Q79.81426 378.025 79.32989 378.19687L79.32989 377.18124Q80.20489 376.75937 80.86114 376.18124Q81.53301 375.5875 81.81426 375.025L82.48614 375.025L82.48614 383.65ZM87.14239 378.99374Q86.48614 378.74374 86.15801 378.30624Q85.84551 377.85312 85.84551 377.24374Q85.84551 376.30624 86.51739 375.66562Q87.20489 375.025 88.31426 375.025Q89.43926 375.025 90.12676 375.68124Q90.81426 376.3375 90.81426 377.275Q90.81426 377.86874 90.50176 378.30624Q90.18926 378.74374 89.54864 378.99374Q90.34551 379.24374 90.75176 379.82187Q91.15801 380.4 91.15801 381.19687Q91.15801 382.29062 90.37676 383.04062Q89.61114 383.79062 88.32989 383.79062Q87.06426 383.79062 86.28301 383.04062Q85.50176 382.29062 85.50176 381.16562Q85.50176 380.32187 85.92364 379.75937Q86.36114 379.19687 87.14239 378.99374ZM86.92364 377.19687Q86.92364 377.80624 87.31426 378.19687Q87.72051 378.5875 88.34551 378.5875Q88.95489 378.5875 89.34551 378.2125Q89.73614 377.82187 89.73614 377.25937Q89.73614 376.68124 89.32989 376.29062Q88.92364 375.88437 88.32989 375.88437Q87.72051 375.88437 87.31426 376.275Q86.92364 376.66562 86.92364 377.19687ZM86.59551 381.16562Q86.59551 381.61874 86.79864 382.04062Q87.01739 382.4625 87.43926 382.69687Q87.86114 382.93124 88.34551 382.93124Q89.09551 382.93124 89.57989 382.44687Q90.07989 381.9625 90.07989 381.2125Q90.07989 380.44687 89.57989 379.94687Q89.07989 379.44687 88.31426 379.44687Q87.56426 379.44687 87.07989 379.94687Q86.59551 380.43124 86.59551 381.16562Z" fill-rule="nonzero"/><path fill="#000000" d="M210.55557 382.63437L210.55557 383.65L204.86807 383.65Q204.86807 383.275 204.99307 382.91562Q205.21182 382.3375 205.68057 381.775Q206.16495 381.2125 207.0712 380.47812Q208.47745 379.32187 208.96182 378.65Q209.46182 377.97812 209.46182 377.38437Q209.46182 376.75937 209.0087 376.3375Q208.55557 375.9 207.83682 375.9Q207.0712 375.9 206.61807 376.35312Q206.16495 376.80624 206.14932 377.61874L205.0712 377.50937Q205.18057 376.29062 205.89932 375.66562Q206.6337 375.025 207.86807 375.025Q209.10245 375.025 209.8212 375.7125Q210.53995 376.4 210.53995 377.41562Q210.53995 377.93124 210.3212 378.43124Q210.11807 378.91562 209.61807 379.47812Q209.1337 380.025 208.0087 380.97812Q207.05557 381.775 206.77432 382.07187Q206.5087 382.35312 206.33682 382.63437L210.55557 382.63437ZM212.0087 379.41562Q212.0087 377.88437 212.3212 376.9625Q212.6337 376.025 213.24307 375.525Q213.86807 375.025 214.80557 375.025Q215.49307 375.025 216.0087 375.30624Q216.53995 375.5875 216.8837 376.11874Q217.22745 376.63437 217.41495 377.38437Q217.60245 378.13437 217.60245 379.41562Q217.60245 380.93124 217.28995 381.85312Q216.99307 382.775 216.36807 383.29062Q215.7587 383.79062 214.80557 383.79062Q213.5712 383.79062 212.85245 382.9Q212.0087 381.8375 212.0087 379.41562ZM213.08682 379.41562Q213.08682 381.525 213.58682 382.22812Q214.08682 382.93124 214.80557 382.93124Q215.53995 382.93124 216.02432 382.22812Q216.52432 381.525 216.52432 379.41562Q216.52432 377.29062 216.02432 376.60312Q215.53995 375.9 214.78995 375.9Q214.0712 375.9 213.6337 376.50937Q213.08682 377.29062 213.08682 379.41562ZM222.97745 383.65L221.93057 383.65L221.93057 376.93124Q221.53995 377.29062 220.91495 377.66562Q220.30557 378.025 219.8212 378.19687L219.8212 377.18124Q220.6962 376.75937 221.35245 376.18124Q222.02432 375.5875 222.30557 375.025L222.97745 375.025L222.97745 383.65ZM226.16495 381.66562L227.18057 381.57187Q227.30557 382.29062 227.66495 382.61874Q228.03995 382.93124 228.60245 382.93124Q229.08682 382.93124 229.4462 382.7125Q229.8212 382.47812 230.05557 382.11874Q230.28995 381.74374 230.4462 381.11874Q230.60245 380.47812 230.60245 379.82187Q230.60245 379.74374 230.60245 379.60312Q230.28995 380.10312 229.74307 380.43124Q229.1962 380.74374 228.55557 380.74374Q227.47745 380.74374 226.74307 379.97812Q226.0087 379.19687 226.0087 377.93124Q226.0087 376.61874 226.77432 375.82187Q227.55557 375.025 228.71182 375.025Q229.53995 375.025 230.22745 375.47812Q230.93057 375.93124 231.28995 376.775Q231.64932 377.60312 231.64932 379.18124Q231.64932 380.82187 231.28995 381.80624Q230.9462 382.775 230.22745 383.29062Q229.52432 383.79062 228.58682 383.79062Q227.5712 383.79062 226.93057 383.24374Q226.28995 382.68124 226.16495 381.66562ZM230.47745 377.86874Q230.47745 376.9625 229.99307 376.43124Q229.52432 375.9 228.83682 375.9Q228.1337 375.9 227.60245 376.47812Q227.08682 377.04062 227.08682 377.9625Q227.08682 378.775 227.58682 379.29062Q228.08682 379.80624 228.80557 379.80624Q229.53995 379.80624 230.0087 379.29062Q230.47745 378.775 230.47745 377.86874Z" fill-rule="nonzero"/><path fill="#000000" d="M351.04688 382.63437L351.04688 383.65L345.35938 383.65Q345.35938 383.275 345.48438 382.91562Q345.70312 382.3375 346.17188 381.775Q346.65625 381.2125 347.5625 380.47812Q348.96875 379.32187 349.45312 378.65Q349.95312 377.97812 349.95312 377.38437Q349.95312 376.75937 349.5 376.3375Q349.04688 375.9 348.32812 375.9Q347.5625 375.9 347.10938 376.35312Q346.65625 376.80624 346.64062 377.61874L345.5625 377.50937Q345.67188 376.29062 346.39062 375.66562Q347.125 375.025 348.35938 375.025Q349.59375 375.025 350.3125 375.7125Q351.03125 376.4 351.03125 377.41562Q351.03125 377.93124 350.8125 378.43124Q350.60938 378.91562 350.10938 379.47812Q349.625 380.025 348.5 380.97812Q347.54688 381.775 347.26562 382.07187Q347.0 382.35312 346.82812 382.63437L351.04688 382.63437ZM352.5 379.41562Q352.5 377.88437 352.8125 376.9625Q353.125 376.025 353.73438 375.525Q354.35938 375.025 355.29688 375.025Q355.98438 375.025 356.5 375.30624Q357.03125 375.5875 357.375 376.11874Q357.71875 376.63437 357.90625 377.38437Q358.09375 378.13437 358.09375 379.41562Q358.09375 380.93124 357.78125 381.85312Q357.48438 382.775 356.85938 383.29062Q356.25 383.79062 355.29688 383.79062Q354.0625 383.79062 353.34375 382.9Q352.5 381.8375 352.5 379.41562ZM353.57812 379.41562Q353.57812 381.525 354.07812 382.22812Q354.57812 382.93124 355.29688 382.93124Q356.03125 382.93124 356.51562 382.22812Q357.01562 381.525 357.01562 379.41562Q357.01562 377.29062 356.51562 376.60312Q356.03125 375.9 355.28125 375.9Q354.5625 375.9 354.125 376.50937Q353.57812 377.29062 353.57812 379.41562ZM365.04688 382.63437L365.04688 383.65L359.35938 383.65Q359.35938 383.275 359.48438 382.91562Q359.70312 382.3375 360.17188 381.775Q360.65625 381.2125 361.5625 380.47812Q362.96875 379.32187 363.45312 378.65Q363.95312 377.97812 363.95312 377.38437Q363.95312 376.75937 363.5 376.3375Q363.04688 375.9 362.32812 375.9Q361.5625 375.9 361.10938 376.35312Q360.65625 376.80624 360.64062 377.61874L359.5625 377.50937Q359.67188 376.29062 360.39062 375.66562Q361.125 375.025 362.35938 375.025Q363.59375 375.025 364.3125 375.7125Q365.03125 376.4 365.03125 377.41562Q365.03125 377.93124 364.8125 378.43124Q364.60938 378.91562 364.10938 379.47812Q363.625 380.025 362.5 380.97812Q361.54688 381.775 361.26562 382.07187Q361.0 382.35312 360.82812 382.63437L365.04688 382.63437ZM366.5 379.41562Q366.5 377.88437 366.8125 376.9625Q367.125 376.025 367.73438 375.525Q368.35938 375.025 369.29688 375.025Q369.98438 375.025 370.5 375.30624Q371.03125 375.5875 371.375 376.11874Q371.71875 376.63437 371.90625 377.38437Q372.09375 378.13437 372.09375 379.41562Q372.09375 380.93124 371.78125 381.85312Q371.48438 382.775 370.85938 383.29062Q370.25 383.79062 369.29688 383.79062Q368.0625 383.79062 367.34375 382.9Q366.5 381.8375 366.5 379.41562ZM367.57812 379.41562Q367.57812 381.525 368.07812 382.22812Q368.57812 382.93124 369.29688 382.93124Q370.03125 382.93124 370.51562 382.22812Q371.01562 381.525 371.01562 379.41562Q371.01562 377.29062 370.51562 376.60312Q370.03125 375.9 369.28125 375.9Q368.5625 375.9 368.125 376.50937Q367.57812 377.29062 367.57812 379.41562Z" fill-rule="nonzero"/><path fill="#000000" d="M491.53818 382.63437L491.53818 383.65L485.85068 383.65Q485.85068 383.275 485.97568 382.91562Q486.19443 382.3375 486.66318 381.775Q487.14755 381.2125 488.0538 380.47812Q489.46005 379.32187 489.94443 378.65Q490.44443 377.97812 490.44443 377.38437Q490.44443 376.75937 489.9913 376.3375Q489.53818 375.9 488.81943 375.9Q488.0538 375.9 487.60068 376.35312Q487.14755 376.80624 487.13193 377.61874L486.0538 377.50937Q486.16318 376.29062 486.88193 375.66562Q487.6163 375.025 488.85068 375.025Q490.08505 375.025 490.8038 375.7125Q491.52255 376.4 491.52255 377.41562Q491.52255 377.93124 491.3038 378.43124Q491.10068 378.91562 490.60068 379.47812Q490.1163 380.025 488.9913 380.97812Q488.03818 381.775 487.75693 382.07187Q487.4913 382.35312 487.31943 382.63437L491.53818 382.63437ZM492.9913 379.41562Q492.9913 377.88437 493.3038 376.9625Q493.6163 376.025 494.22568 375.525Q494.85068 375.025 495.78818 375.025Q496.47568 375.025 496.9913 375.30624Q497.52255 375.5875 497.8663 376.11874Q498.21005 376.63437 498.39755 377.38437Q498.58505 378.13437 498.58505 379.41562Q498.58505 380.93124 498.27255 381.85312Q497.97568 382.775 497.35068 383.29062Q496.7413 383.79062 495.78818 383.79062Q494.5538 383.79062 493.83505 382.9Q492.9913 381.8375 492.9913 379.41562ZM494.06943 379.41562Q494.06943 381.525 494.56943 382.22812Q495.06943 382.93124 495.78818 382.93124Q496.52255 382.93124 497.00693 382.22812Q497.50693 381.525 497.50693 379.41562Q497.50693 377.29062 497.00693 376.60312Q496.52255 375.9 495.77255 375.9Q495.0538 375.9 494.6163 376.50937Q494.06943 377.29062 494.06943 379.41562ZM505.53818 382.63437L505.53818 383.65L499.85068 383.65Q499.85068 383.275 499.97568 382.91562Q500.19443 382.3375 500.66318 381.775Q501.14755 381.2125 502.0538 380.47812Q503.46005 379.32187 503.94443 378.65Q504.44443 377.97812 504.44443 377.38437Q504.44443 376.75937 503.9913 376.3375Q503.53818 375.9 502.81943 375.9Q502.0538 375.9 501.60068 376.35312Q501.14755 376.80624 501.13193 377.61874L500.0538 377.50937Q500.16318 376.29062 500.88193 375.66562Q501.6163 375.025 502.85068 375.025Q504.08505 375.025 504.8038 375.7125Q505.52255 376.4 505.52255 377.41562Q505.52255 377.93124 505.3038 378.43124Q505.10068 378.91562 504.60068 379.47812Q504.1163 380.025 502.9913 380.97812Q502.03818 381.775 501.75693 382.07187Q501.4913 382.35312 501.31943 382.63437L505.53818 382.63437ZM510.96005 383.65L509.91318 383.65L509.91318 376.93124Q509.52255 377.29062 508.89755 377.66562Q508.28818 378.025 507.8038 378.19687L507.8038 377.18124Q508.6788 376.75937 509.33505 376.18124Q510.00693 375.5875 510.28818 375.025L510.96005 375.025L510.96005 383.65Z" fill-rule="nonzero"/><path fill="#000000" d="M632.0295 382.63437L632.0295 383.65L626.342 383.65Q626.342 383.275 626.467 382.91562Q626.6857 382.3375 627.1545 381.775Q627.63885 381.2125 628.5451 380.47812Q629.95135 379.32187 630.4357 378.65Q630.9357 377.97812 630.9357 377.38437Q630.9357 376.75937 630.4826 376.3375Q630.0295 375.9 629.3107 375.9Q628.5451 375.9 628.092 376.35312Q627.63885 376.80624 627.6232 377.61874L626.5451 377.50937Q626.6545 376.29062 627.3732 375.66562Q628.1076 375.025 629.342 375.025Q630.57635 375.025 631.2951 375.7125Q632.01385 376.4 632.01385 377.41562Q632.01385 377.93124 631.7951 378.43124Q631.592 378.91562 631.092 379.47812Q630.6076 380.025 629.4826 380.97812Q628.5295 381.775 628.2482 382.07187Q627.9826 382.35312 627.8107 382.63437L632.0295 382.63437ZM633.4826 379.41562Q633.4826 377.88437 633.7951 376.9625Q634.1076 376.025 634.717 375.525Q635.342 375.025 636.2795 375.025Q636.967 375.025 637.4826 375.30624Q638.01385 375.5875 638.3576 376.11874Q638.70135 376.63437 638.88885 377.38437Q639.07635 378.13437 639.07635 379.41562Q639.07635 380.93124 638.76385 381.85312Q638.467 382.775 637.842 383.29062Q637.2326 383.79062 636.2795 383.79062Q635.0451 383.79062 634.32635 382.9Q633.4826 381.8375 633.4826 379.41562ZM634.5607 379.41562Q634.5607 381.525 635.0607 382.22812Q635.5607 382.93124 636.2795 382.93124Q637.01385 382.93124 637.4982 382.22812Q637.9982 381.525 637.9982 379.41562Q637.9982 377.29062 637.4982 376.60312Q637.01385 375.9 636.26385 375.9Q635.5451 375.9 635.1076 376.50937Q634.5607 377.29062 634.5607 379.41562ZM646.0295 382.63437L646.0295 383.65L640.342 383.65Q640.342 383.275 640.467 382.91562Q640.6857 382.3375 641.1545 381.775Q641.63885 381.2125 642.5451 380.47812Q643.95135 379.32187 644.4357 378.65Q644.9357 377.97812 644.9357 377.38437Q644.9357 376.75937 644.4826 376.3375Q644.0295 375.9 643.3107 375.9Q642.5451 375.9 642.092 376.35312Q641.63885 376.80624 641.6232 377.61874L640.5451 377.50937Q640.6545 376.29062 641.3732 375.66562Q642.1076 375.025 643.342 375.025Q644.57635 375.025 645.2951 375.7125Q646.01385 376.4 646.01385 377.41562Q646.01385 377.93124 645.7951 378.43124Q645.592 378.91562 645.092 379.47812Q644.6076 380.025 643.4826 380.97812Q642.5295 381.775 642.2482 382.07187Q641.9826 382.35312 641.8107 382.63437L646.0295 382.63437ZM653.0295 382.63437L653.0295 383.65L647.342 383.65Q647.342 383.275 647.467 382.91562Q647.6857 382.3375 648.1545 381.775Q648.63885 381.2125 649.5451 380.47812Q650.95135 379.32187 651.4357 378.65Q651.9357 377.97812 651.9357 377.38437Q651.9357 376.75937 651.4826 376.3375Q651.0295 375.9 650.3107 375.9Q649.5451 375.9 649.092 376.35312Q648.63885 376.80624 648.6232 377.61874L647.5451 377.50937Q647.6545 376.29062 648.3732 375.66562Q649.1076 375.025 650.342 375.025Q651.57635 375.025 652.2951 375.7125Q653.01385 376.4 653.01385 377.41562Q653.01385 377.93124 652.7951 378.43124Q652.592 378.91562 652.092 379.47812Q651.6076 380.025 650.4826 380.97812Q649.5295 381.775 649.2482 382.07187Q648.9826 382.35312 648.8107 382.63437L653.0295 382.63437Z" fill-rule="nonzero"/><path fill="#e69f00" d="M201.0 58.916668L206.19615 67.916664L195.80385 67.916664Z" fill-rule="nonzero"/><path fill="#1a1a1a" d="M219.46875 68.916664L218.42188 68.916664L218.42188 62.197914Q218.03125 62.55729 217.40625 62.93229Q216.79688 63.291664 216.3125 63.46354L216.3125 62.447914Q217.1875 62.02604 217.84375 61.447914Q218.51562 60.854164 218.79688 60.291664L219.46875 60.291664L219.46875 68.916664ZM222.375 66.33854L222.375 65.27604L225.625 65.27604L225.625 66.33854L222.375 66.33854ZM230.46875 68.916664L229.42188 68.916664L229.42188 62.197914Q229.03125 62.55729 228.40625 62.93229Q227.79688 63.291664 227.3125 63.46354L227.3125 62.447914Q228.1875 62.02604 228.84375 61.447914Q229.51562 60.854164 229.79688 60.291664L230.46875 60.291664L230.46875 68.916664ZM233.5 64.68229Q233.5 63.15104 233.8125 62.229164Q234.125 61.291664 234.73438 60.791664Q235.35938 60.291664 236.29688 60.291664Q236.98438 60.291664 237.5 60.572914Q238.03125 60.854164 238.375 61.385414Q238.71875 61.90104 238.90625 62.65104Q239.09375 63.40104 239.09375 64.68229Q239.09375 66.197914 238.78125 67.11979Q238.48438 68.041664 237.85938 68.55729Q237.25 69.05729 236.29688 69.05729Q235.0625 69.05729 234.34375 68.166664Q233.5 67.104164 233.5 64.68229ZM234.57812 64.68229Q234.57812 66.791664 235.07812 67.49479Q235.57812 68.197914 236.29688 68.197914Q237.03125 68.197914 237.51562 67.49479Q238.01562 66.791664 238.01562 64.68229Q238.01562 62.55729 237.51562 61.86979Q237.03125 61.166664 236.28125 61.166664Q235.5625 61.166664 235.125 61.77604Q234.57812 62.55729 234.57812 64.68229Z" fill-rule="nonzero"/><path fill="#d55e00" d="M262.0 58.916668L263.34708 63.062565L267.70633 63.062565L264.17963 65.62487L265.5267 69.77077L262.0 67.208466L258.4733 69.77077L259.82037 65.62487L256.29367 63.062565L260.65292 63.062565Z" fill-rule="nonzero"/><path fill="#1a1a1a" d="M280.46875 68.916664L279.42188 68.916664L279.42188 62.197914Q279.03125 62.55729 278.40625 62.93229Q277.79688 63.291664 277.3125 63.46354L277.3125 62.447914Q278.1875 62.02604 278.84375 61.447914Q279.51562 60.854164 279.79688 60.291664L280.46875 60.291664L280.46875 68.916664ZM287.46875 68.916664L286.42188 68.916664L286.42188 62.197914Q286.03125 62.55729 285.40625 62.93229Q284.79688 63.291664 284.3125 63.46354L284.3125 62.447914Q285.1875 62.02604 285.84375 61.447914Q286.51562 60.854164 286.79688 60.291664L287.46875 60.291664L287.46875 68.916664ZM290.375 66.33854L290.375 65.27604L293.625 65.27604L293.625 66.33854L290.375 66.33854ZM298.46875 68.916664L297.42188 68.916664L297.42188 62.197914Q297.03125 62.55729 296.40625 62.93229Q295.79688 63.291664 295.3125 63.46354L295.3125 62.447914Q296.1875 62.02604 296.84375 61.447914Q297.51562 60.854164 297.79688 60.291664L298.46875 60.291664L298.46875 68.916664ZM301.5 64.68229Q301.5 63.15104 301.8125 62.229164Q302.125 61.291664 302.73438 60.791664Q303.35938 60.291664 304.29688 60.291664Q304.98438 60.291664 305.5 60.572914Q306.03125 60.854164 306.375 61.385414Q306.71875 61.90104 306.90625 62.65104Q307.09375 63.40104 307.09375 64.68229Q307.09375 66.197914 306.78125 67.11979Q306.48438 68.041664 305.85938 68.55729Q305.25 69.05729 304.29688 69.05729Q303.0625 69.05729 302.34375 68.166664Q301.5 67.104164 301.5 64.68229ZM302.57812 64.68229Q302.57812 66.791664 303.07812 67.49479Q303.57812 68.197914 304.29688 68.197914Q305.03125 68.197914 305.51562 67.49479Q306.01562 66.791664 306.01562 64.68229Q306.01562 62.55729 305.51562 61.86979Q305.03125 61.166664 304.28125 61.166664Q303.5625 61.166664 303.125 61.77604Q302.57812 62.55729 302.57812 64.68229ZM308.5 64.68229Q308.5 63.15104 308.8125 62.229164Q309.125 61.291664 309.73438 60.791664Q310.35938 60.291664 311.29688 60.291664Q311.98438 60.291664 312.5 60.572914Q313.03125 60.854164 313.375 61.385414Q313.71875 61.90104 313.90625 62.65104Q314.09375 63.40104 314.09375 64.68229Q314.09375 66.197914 313.78125 67.11979Q313.48438 68.041664 312.85938 68.55729Q312.25 69.05729 311.29688 69.05729Q310.0625 69.05729 309.34375 68.166664Q308.5 67.104164 308.5 64.68229ZM309.57812 64.68229Q309.57812 66.791664 310.07812 67.49479Q310.57812 68.197914 311.29688 68.197914Q312.03125 68.197914 312.51562 67.49479Q313.01562 66.791664 313.01562 64.68229Q313.01562 62.55729 312.51562 61.86979Q312.03125 61.166664 311.28125 61.166664Q310.5625 61.166664 310.125 61.77604Q309.57812 62.55729 309.57812 64.68229Z" fill-rule="nonzero"/><path fill="#009e73" d="M332.75735 60.674026L341.24265 60.674026L341.24265 69.15931L332.75735 69.15931Z" fill-rule="nonzero"/><path fill="#1a1a1a" d="M355.46875 68.916664L354.42188 68.916664L354.42188 62.197914Q354.03125 62.55729 353.40625 62.93229Q352.79688 63.291664 352.3125 63.46354L352.3125 62.447914Q353.1875 62.02604 353.84375 61.447914Q354.51562 60.854164 354.79688 60.291664L355.46875 60.291664L355.46875 68.916664ZM358.5 64.68229Q358.5 63.15104 358.8125 62.229164Q359.125 61.291664 359.73438 60.791664Q360.35938 60.291664 361.29688 60.291664Q361.98438 60.291664 362.5 60.572914Q363.03125 60.854164 363.375 61.385414Q363.71875 61.90104 363.90625 62.65104Q364.09375 63.40104 364.09375 64.68229Q364.09375 66.197914 363.78125 67.11979Q363.48438 68.041664 362.85938 68.55729Q362.25 69.05729 361.29688 69.05729Q360.0625 69.05729 359.34375 68.166664Q358.5 67.104164 358.5 64.68229ZM359.57812 64.68229Q359.57812 66.791664 360.07812 67.49479Q360.57812 68.197914 361.29688 68.197914Q362.03125 68.197914 362.51562 67.49479Q363.01562 66.791664 363.01562 64.68229Q363.01562 62.55729 362.51562 61.86979Q362.03125 61.166664 361.28125 61.166664Q360.5625 61.166664 360.125 61.77604Q359.57812 62.55729 359.57812 64.68229ZM369.46875 68.916664L368.42188 68.916664L368.42188 62.197914Q368.03125 62.55729 367.40625 62.93229Q366.79688 63.291664 366.3125 63.46354L366.3125 62.447914Q367.1875 62.02604 367.84375 61.447914Q368.51562 60.854164 368.79688 60.291664L369.46875 60.291664L369.46875 68.916664ZM372.375 66.33854L372.375 65.27604L375.625 65.27604L375.625 66.33854L372.375 66.33854ZM380.46875 68.916664L379.42188 68.916664L379.42188 62.197914Q379.03125 62.55729 378.40625 62.93229Q377.79688 63.291664 377.3125 63.46354L377.3125 62.447914Q378.1875 62.02604 378.84375 61.447914Q379.51562 60.854164 379.79688 60.291664L380.46875 60.291664L380.46875 68.916664ZM383.5 64.68229Q383.5 63.15104 383.8125 62.229164Q384.125 61.291664 384.73438 60.791664Q385.35938 60.291664 386.29688 60.291664Q386.98438 60.291664 387.5 60.572914Q388.03125 60.854164 388.375 61.385414Q388.71875 61.90104 388.90625 62.65104Q389.09375 63.40104 389.09375 64.68229Q389.09375 66.197914 388.78125 67.11979Q388.48438 68.041664 387.85938 68.55729Q387.25 69.05729 386.29688 69.05729Q385.0625 69.05729 384.34375 68.166664Q383.5 67.104164 383.5 64.68229ZM384.57812 64.68229Q384.57812 66.791664 385.07812 67.49479Q385.57812 68.197914 386.29688 68.197914Q387.03125 68.197914 387.51562 67.49479Q388.01562 66.791664 388.01562 64.68229Q388.01562 62.55729 387.51562 61.86979Q387.03125 61.166664 386.28125 61.166664Q385.5625 61.166664 385.125 61.77604Q384.57812 62.55729 384.57812 64.68229ZM390.5 64.68229Q390.5 63.15104 390.8125 62.229164Q391.125 61.291664 391.73438 60.791664Q392.35938 60.291664 393.29688 60.291664Q393.98438 60.291664 394.5 60.572914Q395.03125 60.854164 395.375 61.385414Q395.71875 61.90104 395.90625 62.65104Q396.09375 63.40104 396.09375 64.68229Q396.09375 66.197914 395.78125 67.11979Q395.48438 68.041664 394.85938 68.55729Q394.25 69.05729 393.29688 69.05729Q392.0625 69.05729 391.34375 68.166664Q390.5 67.104164 390.5 64.68229ZM391.57812 64.68229Q391.57812 66.791664 392.07812 67.49479Q392.57812 68.197914 393.29688 68.197914Q394.03125 68.197914 394.51562 67.49479Q395.01562 66.791664 395.01562 64.68229Q395.01562 62.55729 394.51562 61.86979Q394.03125 61.166664 393.28125 61.166664Q392.5625 61.166664 392.125 61.77604Q391.57812 62.55729 391.57812 64.68229ZM397.5 64.68229Q397.5 63.15104 397.8125 62.229164Q398.125 61.291664 398.73438 60.791664Q399.35938 60.291664 400.29688 60.291664Q400.98438 60.291664 401.5 60.572914Q402.03125 60.854164 402.375 61.385414Q402.71875 61.90104 402.90625 62.65104Q403.09375 63.40104 403.09375 64.68229Q403.09375 66.197914 402.78125 67.11979Q402.48438 68.041664 401.85938 68.55729Q401.25 69.05729 400.29688 69.05729Q399.0625 69.05729 398.34375 68.166664Q397.5 67.104164 397.5 64.68229ZM398.57812 64.68229Q398.57812 66.791664 399.07812 67.49479Q399.57812 68.197914 400.29688 68.197914Q401.03125 68.197914 401.51562 67.49479Q402.01562 66.791664 402.01562 64.68229Q402.01562 62.55729 401.51562 61.86979Q401.03125 61.166664 400.28125 61.166664Q399.5625 61.166664 399.125 61.77604Q398.57812 62.55729 398.57812 64.68229Z" fill-rule="nonzero"/><path fill="#56b4e9" d="M432.0 64.916664C432.0 68.23038 429.31372 70.916664 426.0 70.916664C422.68628 70.916664 420.0 68.23038 420.0 64.916664C420.0 61.60296 422.68628 58.916668 426.0 58.916668C429.31372 58.916668 432.0 61.60296 432.0 64.916664Z" fill-rule="nonzero"/><path fill="#1a1a1a" d="M444.46875 68.916664L443.42188 68.916664L443.42188 62.197914Q443.03125 62.55729 442.40625 62.93229Q441.79688 63.291664 441.3125 63.46354L441.3125 62.447914Q442.1875 62.02604 442.84375 61.447914Q443.51562 60.854164 443.79688 60.291664L444.46875 60.291664L444.46875 68.916664ZM447.5 64.68229Q447.5 63.15104 447.8125 62.229164Q448.125 61.291664 448.73438 60.791664Q449.35938 60.291664 450.29688 60.291664Q450.98438 60.291664 451.5 60.572914Q452.03125 60.854164 452.375 61.385414Q452.71875 61.90104 452.90625 62.65104Q453.09375 63.40104 453.09375 64.68229Q453.09375 66.197914 452.78125 67.11979Q452.48438 68.041664 451.85938 68.55729Q451.25 69.05729 450.29688 69.05729Q449.0625 69.05729 448.34375 68.166664Q447.5 67.104164 447.5 64.68229ZM448.57812 64.68229Q448.57812 66.791664 449.07812 67.49479Q449.57812 68.197914 450.29688 68.197914Q451.03125 68.197914 451.51562 67.49479Q452.01562 66.791664 452.01562 64.68229Q452.01562 62.55729 451.51562 61.86979Q451.03125 61.166664 450.28125 61.166664Q449.5625 61.166664 449.125 61.77604Q448.57812 62.55729 448.57812 64.68229ZM454.5 64.68229Q454.5 63.15104 454.8125 62.229164Q455.125 61.291664 455.73438 60.791664Q456.35938 60.291664 457.29688 60.291664Q457.98438 60.291664 458.5 60.572914Q459.03125 60.854164 459.375 61.385414Q459.71875 61.90104 459.90625 62.65104Q460.09375 63.40104 460.09375 64.68229Q460.09375 66.197914 459.78125 67.11979Q459.48438 68.041664 458.85938 68.55729Q458.25 69.05729 457.29688 69.05729Q456.0625 69.05729 455.34375 68.166664Q454.5 67.104164 454.5 64.68229ZM455.57812 64.68229Q455.57812 66.791664 456.07812 67.49479Q456.57812 68.197914 457.29688 68.197914Q458.03125 68.197914 458.51562 67.49479Q459.01562 66.791664 459.01562 64.68229Q459.01562 62.55729 458.51562 61.86979Q458.03125 61.166664 457.28125 61.166664Q456.5625 61.166664 456.125 61.77604Q455.57812 62.55729 455.57812 64.68229ZM461.5 64.68229Q461.5 63.15104 461.8125 62.229164Q462.125 61.291664 462.73438 60.791664Q463.35938 60.291664 464.29688 60.291664Q464.98438 60.291664 465.5 60.572914Q466.03125 60.854164 466.375 61.385414Q466.71875 61.90104 466.90625 62.65104Q467.09375 63.40104 467.09375 64.68229Q467.09375 66.197914 466.78125 67.11979Q466.48438 68.041664 465.85938 68.55729Q465.25 69.05729 464.29688 69.05729Q463.0625 69.05729 462.34375 68.166664Q461.5 67.104164 461.5 64.68229ZM462.57812 64.68229Q462.57812 66.791664 463.07812 67.49479Q463.57812 68.197914 464.29688 68.197914Q465.03125 68.197914 465.51562 67.49479Q466.01562 66.791664 466.01562 64.68229Q466.01562 62.55729 465.51562 61.86979Q465.03125 61.166664 464.28125 61.166664Q463.5625 61.166664 463.125 61.77604Q462.57812 62.55729 462.57812 64.68229ZM471.0 67.52604L471.0 65.166664L468.67188 65.166664L468.67188 64.18229L471.0 64.18229L471.0 61.854164L472.0 61.854164L472.0 64.18229L474.34375 64.18229L474.34375 65.166664L472.0 65.166664L472.0 67.52604L471.0 67.52604Z" fill-rule="nonzero"/><path fill="#757575" d="M21.31875 32.38125Q21.31875 28.818748 23.225 26.803123Q25.146875 24.771873 28.178125 24.771873Q30.1625 24.771873 31.740625 25.724998Q33.334373 26.678123 34.1625 28.381248Q35.00625 30.068748 35.00625 32.209373Q35.00625 34.38125 34.13125 36.1Q33.25625 37.81875 31.63125 38.709373Q30.021875 39.6 28.1625 39.6Q26.146875 39.6 24.553125 38.63125Q22.959375 37.646873 22.13125 35.959373Q21.31875 34.25625 21.31875 32.38125ZM23.271875 32.4125Q23.271875 34.990623 24.6625 36.490623Q26.053125 37.975 28.146875 37.975Q30.2875 37.975 31.6625 36.475Q33.053123 34.959373 33.053123 32.19375Q33.053123 30.459373 32.459373 29.162498Q31.88125 27.849998 30.740625 27.131248Q29.6 26.412498 28.178125 26.412498Q26.178125 26.412498 24.725 27.803123Q23.271875 29.178123 23.271875 32.4125ZM37.646873 39.35L37.646873 28.974998L39.225 28.974998L39.225 30.553123Q39.834373 29.443748 40.35 29.099998Q40.865623 28.740623 41.475 28.740623Q42.365623 28.740623 43.2875 29.303123L42.678123 30.943748Q42.0375 30.553123 41.396873 30.553123Q40.81875 30.553123 40.35 30.912498Q39.896873 31.256248 39.69375 31.865623Q39.4125 32.803123 39.4125 33.9125L39.4125 39.35L37.646873 39.35ZM44.35 40.209373L46.053123 40.459373Q46.1625 41.25625 46.646873 41.615623Q47.303123 42.1 48.44375 42.1Q49.6625 42.1 50.31875 41.615623Q50.990623 41.13125 51.225 40.25625Q51.365623 39.709373 51.35 37.990623Q50.19375 39.35 48.475 39.35Q46.334373 39.35 45.1625 37.803123Q43.990623 36.25625 43.990623 34.1Q43.990623 32.615623 44.521873 31.365623Q45.06875 30.115623 46.084373 29.428123Q47.115623 28.740623 48.490623 28.740623Q50.31875 28.740623 51.521873 30.224998L51.521873 28.974998L53.13125 28.974998L53.13125 37.94375Q53.13125 40.365623 52.63125 41.365623Q52.146873 42.38125 51.06875 42.959373Q50.00625 43.553123 48.44375 43.553123Q46.6 43.553123 45.44375 42.725Q44.303123 41.896873 44.35 40.209373ZM45.803123 33.975Q45.803123 36.021873 46.615623 36.959373Q47.428123 37.896873 48.646873 37.896873Q49.85 37.896873 50.6625 36.959373Q51.490623 36.021873 51.490623 34.0375Q51.490623 32.13125 50.646873 31.162498Q49.803123 30.193748 48.615623 30.193748Q47.44375 30.193748 46.615623 31.146873Q45.803123 32.1 45.803123 33.975ZM62.44375 38.06875Q61.459373 38.896873 60.553123 39.240623Q59.646873 39.584373 58.615623 39.584373Q56.9125 39.584373 55.990623 38.75625Q55.06875 37.9125 55.06875 36.615623Q55.06875 35.85 55.4125 35.225Q55.771873 34.6 56.334373 34.225Q56.896873 33.834373 57.6 33.63125Q58.115623 33.50625 59.1625 33.365623Q61.2875 33.115623 62.2875 32.771873Q62.303123 32.4125 62.303123 32.303123Q62.303123 31.240623 61.803123 30.787498Q61.13125 30.193748 59.803123 30.193748Q58.553123 30.193748 57.959373 30.631248Q57.38125 31.068748 57.1 32.178123L55.38125 31.943748Q55.615623 30.834373 56.146873 30.162498Q56.678123 29.474998 57.69375 29.115623Q58.709373 28.740623 60.053123 28.740623Q61.38125 28.740623 62.209373 29.053123Q63.0375 29.365623 63.428123 29.849998Q63.81875 30.318748 63.975 31.037498Q64.06875 31.490623 64.06875 32.6625L64.06875 35.00625Q64.06875 37.459373 64.17812 38.115623Q64.2875 38.75625 64.63125 39.35L62.7875 39.35Q62.521873 38.803123 62.44375 38.06875ZM62.2875 34.146873Q61.334373 34.5375 59.4125 34.803123Q58.334373 34.959373 57.88125 35.1625Q57.44375 35.35 57.19375 35.725Q56.94375 36.1 56.94375 36.56875Q56.94375 37.271873 57.475 37.740623Q58.00625 38.209373 59.0375 38.209373Q60.053123 38.209373 60.834373 37.771873Q61.63125 37.31875 62.00625 36.553123Q62.2875 35.94375 62.2875 34.7875L62.2875 34.146873ZM66.6625 39.35L66.6625 28.974998L68.25625 28.974998L68.25625 30.459373Q69.39687 28.740623 71.55312 28.740623Q72.49062 28.740623 73.27187 29.084373Q74.06875 29.412498 74.45937 29.959373Q74.85 30.506248 75.00625 31.256248Q75.1 31.756248 75.1 32.975L75.1 39.35L73.33437 39.35L73.33437 33.0375Q73.33437 31.959373 73.13125 31.428123Q72.92812 30.896873 72.39687 30.584373Q71.88125 30.271873 71.17812 30.271873Q70.05312 30.271873 69.24062 30.990623Q68.42812 31.693748 68.42812 33.678123L68.42812 39.35L66.6625 39.35ZM76.67812 27.053123L76.67812 25.037498L78.44375 25.037498L78.44375 27.053123L76.67812 27.053123ZM76.67812 39.35L76.67812 28.974998L78.44375 28.974998L78.44375 39.35L76.67812 39.35ZM79.74062 39.35L79.74062 37.928123L86.35 30.349998Q85.225 30.396873 84.36562 30.396873L80.13125 30.396873L80.13125 28.974998L88.61562 28.974998L88.61562 30.146873L82.99062 36.725L81.9125 37.928123Q83.08437 37.834373 84.13125 37.834373L88.92812 37.834373L88.92812 39.35L79.74062 39.35ZM96.44375 38.06875Q95.45937 38.896873 94.55312 39.240623Q93.64687 39.584373 92.61562 39.584373Q90.9125 39.584373 89.99062 38.75625Q89.06875 37.9125 89.06875 36.615623Q89.06875 35.85 89.4125 35.225Q89.77187 34.6 90.33437 34.225Q90.89687 33.834373 91.6 33.63125Q92.11562 33.50625 93.1625 33.365623Q95.2875 33.115623 96.2875 32.771873Q96.30312 32.4125 96.30312 32.303123Q96.30312 31.240623 95.80312 30.787498Q95.13125 30.193748 93.80312 30.193748Q92.55312 30.193748 91.95937 30.631248Q91.38125 31.068748 91.1 32.178123L89.38125 31.943748Q89.61562 30.834373 90.14687 30.162498Q90.67812 29.474998 91.69375 29.115623Q92.70937 28.740623 94.05312 28.740623Q95.38125 28.740623 96.20937 29.053123Q97.0375 29.365623 97.42812 29.849998Q97.81875 30.318748 97.975 31.037498Q98.06875 31.490623 98.06875 32.6625L98.06875 35.00625Q98.06875 37.459373 98.17812 38.115623Q98.2875 38.75625 98.63125 39.35L96.7875 39.35Q96.52187 38.803123 96.44375 38.06875ZM96.2875 34.146873Q95.33437 34.5375 93.4125 34.803123Q92.33437 34.959373 91.88125 35.1625Q91.44375 35.35 91.19375 35.725Q90.94375 36.1 90.94375 36.56875Q90.94375 37.271873 91.475 37.740623Q92.00625 38.209373 93.0375 38.209373Q94.05312 38.209373 94.83437 37.771873Q95.63125 37.31875 96.00625 36.553123Q96.2875 35.94375 96.2875 34.7875L96.2875 34.146873ZM104.50625 37.771873L104.75625 39.334373Q104.02187 39.490623 103.42812 39.490623Q102.475 39.490623 101.94375 39.19375Q101.42812 38.88125 101.20937 38.396873Q100.99062 37.896873 100.99062 36.31875L100.99062 30.349998L99.70937 30.349998L99.70937 28.974998L100.99062 28.974998L100.99062 26.412498L102.74062 25.349998L102.74062 28.974998L104.50625 28.974998L104.50625 30.349998L102.74062 30.349998L102.74062 36.4125Q102.74062 37.1625 102.83437 37.38125Q102.92812 37.584373 103.13125 37.725Q103.35 37.85 103.74062 37.85Q104.02187 37.85 104.50625 37.771873ZM106.67812 27.053123L106.67812 25.037498L108.44375 25.037498L108.44375 27.053123L106.67812 27.053123ZM106.67812 39.35L106.67812 28.974998L108.44375 28.974998L108.44375 39.35L106.67812 39.35ZM110.02187 34.1625Q110.02187 31.287498 111.61562 29.896873Q112.95937 28.740623 114.88125 28.740623Q117.02187 28.740623 118.36562 30.146873Q119.725 31.553123 119.725 34.021873Q119.725 36.021873 119.13125 37.178123Q118.5375 38.31875 117.38125 38.959373Q116.24062 39.584373 114.88125 39.584373Q112.69375 39.584373 111.35 38.19375Q110.02187 36.7875 110.02187 34.1625ZM111.81875 34.1625Q111.81875 36.1625 112.67812 37.146873Q113.55312 38.13125 114.88125 38.13125Q116.19375 38.13125 117.05312 37.146873Q117.92812 36.146873 117.92812 34.1Q117.92812 32.178123 117.05312 31.193748Q116.17812 30.193748 114.88125 30.193748Q113.55312 30.193748 112.67812 31.193748Q111.81875 32.178123 111.81875 34.1625ZM121.6625 39.35L121.6625 28.974998L123.25625 28.974998L123.25625 30.459373Q124.39687 28.740623 126.55312 28.740623Q127.49062 28.740623 128.27188 29.084373Q129.06876 29.412498 129.45938 29.959373Q129.85 30.506248 130.00626 31.256248Q130.1 31.756248 130.1 32.975L130.1 39.35L128.33438 39.35L128.33438 33.0375Q128.33438 31.959373 128.13126 31.428123Q127.92812 30.896873 127.39687 30.584373Q126.88125 30.271873 126.17812 30.271873Q125.05312 30.271873 124.24062 30.990623Q123.42812 31.693748 123.42812 33.678123L123.42812 39.35L121.6625 39.35ZM137.25626 34.75625L139.0375 34.6Q139.1625 35.6625 139.61563 36.35Q140.08438 37.0375 141.05313 37.475Q142.0375 37.896873 143.27188 37.896873Q144.35 37.896873 145.17813 37.584373Q146.00626 37.25625 146.4125 36.69375Q146.81876 36.13125 146.81876 35.459373Q146.81876 34.7875 146.42813 34.2875Q146.0375 33.7875 145.14688 33.44375Q144.56876 33.209373 142.58438 32.740623Q140.61563 32.271873 139.83438 31.849998Q138.80313 31.318748 138.30313 30.521873Q137.80313 29.724998 137.80313 28.740623Q137.80313 27.646873 138.4125 26.709373Q139.02188 25.771873 140.20938 25.287498Q141.39688 24.787498 142.83438 24.787498Q144.42813 24.787498 145.64688 25.303123Q146.86563 25.818748 147.50626 26.818748Q148.1625 27.803123 148.20938 29.068748L146.39688 29.209373Q146.25626 27.849998 145.4125 27.162498Q144.56876 26.459373 142.9125 26.459373Q141.19376 26.459373 140.39688 27.099998Q139.61563 27.724998 139.61563 28.599998Q139.61563 29.381248 140.17813 29.881248Q140.725 30.381248 143.0375 30.896873Q145.35 31.412498 146.20938 31.803123Q147.45938 32.38125 148.05313 33.271873Q148.64688 34.146873 148.64688 35.303123Q148.64688 36.44375 147.99063 37.459373Q147.33438 38.475 146.1 39.0375Q144.88126 39.6 143.35 39.6Q141.4125 39.6 140.1 39.0375Q138.7875 38.459373 138.0375 37.31875Q137.2875 36.178123 137.25626 34.75625ZM150.67813 27.053123L150.67813 25.037498L152.44376 25.037498L152.44376 27.053123L150.67813 27.053123ZM150.67813 39.35L150.67813 28.974998L152.44376 28.974998L152.44376 39.35L150.67813 39.35ZM153.74063 39.35L153.74063 37.928123L160.35 30.349998Q159.225 30.396873 158.36563 30.396873L154.13126 30.396873L154.13126 28.974998L162.61563 28.974998L162.61563 30.146873L156.99063 36.725L155.9125 37.928123Q157.08438 37.834373 158.13126 37.834373L162.92813 37.834373L162.92813 39.35L153.74063 39.35ZM170.77188 36.00625L172.58438 36.240623Q172.1625 37.81875 170.99063 38.709373Q169.83438 39.584373 168.02188 39.584373Q165.75626 39.584373 164.4125 38.19375Q163.08438 36.7875 163.08438 34.25625Q163.08438 31.631248 164.42813 30.193748Q165.77188 28.740623 167.92813 28.740623Q170.00626 28.740623 171.31876 30.162498Q172.64688 31.568748 172.64688 34.146873Q172.64688 34.303123 172.63126 34.615623L164.89688 34.615623Q164.99063 36.31875 165.86563 37.225Q166.74063 38.13125 168.0375 38.13125Q169.00626 38.13125 169.67813 37.63125Q170.36563 37.115623 170.77188 36.00625ZM164.99063 33.1625L170.7875 33.1625Q170.67813 31.865623 170.13126 31.209373Q169.2875 30.193748 167.94376 30.193748Q166.74063 30.193748 165.9125 31.006248Q165.08438 31.803123 164.99063 33.1625Z" fill-rule="nonzero"/></svg>