<svg version="1.1" viewBox="0.0 0.0 670.0 407.0" fill="none" stroke="none" stroke-linecap="square" stroke-miterlimit="10" width="670" height="407" xmlns:xlink="http://www.w3.org/1999/xlink" xmlns="http://www.w3.org/2000/svg"><path fill="#ffffff" d="M0 0L670.0 0L670.0 407.0L0 407.0L0 0Z" fill-rule="nonzero"/><path stroke="#cccccc" stroke-width="1.0" stroke-linecap="butt" d="M78.5 92.5L78.5 366.5" fill-rule="nonzero"/><path stroke="#cccccc" stroke-width="1.0" stroke-linecap="butt" d="M218.5 92.5L218.5 366.5" fill-rule="nonzero"/><path stroke="#cccccc" stroke-width="1.0" stroke-linecap="butt" d="M358.5 92.5L358.5 366.5" fill-rule="nonzero"/><path stroke="#cccccc" stroke-width="1.0" stroke-linecap="butt" d="M499.5 92.5L499.5 366.5" fill-rule="nonzero"/><path stroke="#cccccc" stroke-width="1.0" stroke-linecap="butt" d="M639.5 92.5L639.5 366.5" fill-rule="nonzero"/><path stroke="#333333" stroke-width="1.0" stroke-linecap="butt" d="M68.5 366.5L649.5 366.5" fill-rule="nonzero"/><path stroke="#cccccc" stroke-width="1.0" stroke-linecap="butt" d="M68.5 275.5L649.5 275.5" fill-rule="nonzero"/><path stroke="#cccccc" stroke-width="1.0" stroke-linecap="butt" d="M68.5 183.5L649.5 183.5" fill-rule="nonzero"/><path stroke="#cccccc" stroke-width="1.0" stroke-linecap="butt" d="M68.5 92.5L649.5 92.5" fill-rule="nonzero"/><clipPath id="id_0"><path d="M68.35 92.48333L649.65 92.48333L649.65 366.65L68.35 366.65L68.35 92.48333Z" clip-rule="nonzero"/></clipPath><path stroke="#e69f00" stroke-width="2.0" stroke-linecap="butt" stroke-dasharray="2.0,3.0" clip-path="url(#id_0)" d="M639.9826 185.10597L499.4913 165.68584L359.0 169.11292L218.5087 155.99861L78.01739 137.1725" fill-rule="nonzero"/><path stroke="#d55e00" stroke-width="2.0" stroke-linecap="butt" stroke-dasharray="2.0,3.0" clip-path="url(#id_0)" d="M639.9826 325.79916L499.4913 327.0786L359.0 326.11902L218.5087 320.81848L78.01739 319.99597" fill-rule="nonzero"/><path stroke="#009e73" stroke-width="2.0" stroke-linecap="butt" stroke-dasharray="2.0,3.0" clip-path="url(#id_0)" d="M639.9826 224.76875L499.4913 224.58597L359.0 221.66153L218.5087 228.24153L78.01739 233.54208" fill-rule="nonzero"/><path stroke="#56b4e9" stroke-width="2.0" stroke-linecap="butt" stroke-dasharray="2.0,3.0" clip-path="url(#id_0)" d="M639.9826 361.6693L499.4913 358.19653L359.0 348.96625L218.5087 345.90472L78.01739 341.38098" fill-rule="nonzero"/><path stroke="#0072b2" stroke-width="2.0" stroke-linecap="butt" stroke-dasharray="2.0,3.0" clip-path="url(#id_0)" d="M639.9826 288.4668L499.4913 308.48096L359.0 321.50388L218.5087 308.02402" fill-rule="nonzero"/><path stroke="#000000" stroke-width="2.0" stroke-linecap="butt" stroke-dasharray="2.0,3.0" clip-path="url(#id_0)" d="M639.9826 361.89777L499.4913 363.36L359.0 361.6693L218.5087 359.47598L78.01739 356.6429" fill-rule="nonzero"/><path stroke="#d55e00" stroke-width="2.0" stroke-linecap="butt" stroke-dasharray="2.0,3.0" clip-path="url(#id_0)" d="M639.9826 361.89777L499.4913 362.21765L359.0 360.57263L218.5087 360.07L78.01739 346.45306" fill-rule="nonzero"/><path fill="#e69f00" clip-path="url(#id_0)" d="M639.9826 179.10597L645.1788 188.10597L634.78644 188.10597Z" fill-rule="nonzero"/><path fill="#e69f00" clip-path="url(#id_0)" d="M499.4913 159.68584L504.68747 168.68584L494.29517 168.68584Z" fill-rule="nonzero"/><path fill="#e69f00" clip-path="url(#id_0)" d="M359.0 163.11292L364.19617 172.11292L353.80383 172.11292Z" fill-rule="nonzero"/><path fill="#e69f00" clip-path="url(#id_0)" d="M218.5087 149.99861L223.70485 158.99861L213.31255 158.99861Z" fill-rule="nonzero"/><path fill="#e69f00" clip-path="url(#id_0)" d="M78.01739 131.1725L83.21354 140.1725L72.821236 140.1725Z" fill-rule="nonzero"/><path fill="#d55e00" clip-path="url(#id_0)" d="M639.9826 319.79916L641.3297 323.94507L645.68896 323.94507L642.16223 326.5074L643.50934 330.65326L639.9826 328.09097L636.4559 330.65326L637.803 326.5074L634.27625 323.94507L638.63556 323.94507Z" fill-rule="nonzero"/><path fill="#d55e00" clip-path="url(#id_0)" d="M499.4913 321.0786L500.83838 325.22452L505.19763 325.22452L501.67093 327.7868L503.018 331.9327L499.4913 329.37042L495.9646 331.9327L497.31168 327.7868L493.78497 325.22452L498.14423 325.22452Z" fill-rule="nonzero"/><path fill="#d55e00" clip-path="url(#id_0)" d="M359.0 320.11902L360.34708 324.26492L364.70633 324.26492L361.17963 326.82724L362.5267 330.97314L359.0 328.41083L355.4733 330.97314L356.82037 326.82724L353.29367 324.26492L357.65292 324.26492Z" fill-rule="nonzero"/><path fill="#d55e00" clip-path="url(#id_0)" d="M218.5087 314.81848L219.85577 318.96436L224.21503 318.96436L220.68832 321.52667L222.0354 325.67258L218.5087 323.11026L214.98198 325.67258L216.32907 321.52667L212.80235 318.96436L217.1616 318.96436Z" fill-rule="nonzero"/><path fill="#d55e00" clip-path="url(#id_0)" d="M78.01739 313.99597L79.36447 318.14188L83.723724 318.14188L80.197014 320.70416L81.5441 324.85007L78.01739 322.28778L74.49068 324.85007L75.83776 320.70416L72.31105 318.14188L76.6703 318.14188Z" fill-rule="nonzero"/><path fill="#009e73" clip-path="url(#id_0)" d="M635.74 220.52611L644.2253 220.52611L644.2253 229.0114L635.74 229.0114Z" fill-rule="nonzero"/><path fill="#009e73" clip-path="url(#id_0)" d="M495.24866 220.34334L503.73395 220.34334L503.73395 228.82861L495.24866 228.82861Z" fill-rule="nonzero"/><path fill="#009e73" clip-path="url(#id_0)" d="M354.75735 217.41888L363.24265 217.41888L363.24265 225.90417L354.75735 225.90417Z" fill-rule="nonzero"/><path fill="#009e73" clip-path="url(#id_0)" d="M214.26605 223.99889L222.75133 223.99889L222.75133 232.48416L214.26605 232.48416Z" fill-rule="nonzero"/><path fill="#009e73" clip-path="url(#id_0)" d="M73.77475 229.29944L82.260025 229.29944L82.260025 237.78473L73.77475 237.78473Z" fill-rule="nonzero"/><path fill="#56b4e9" clip-path="url(#id_0)" d="M645.9826 361.6693C645.9826 364.983 643.2963 367.6693 639.9826 367.6693C636.6689 367.6693 633.9826 364.983 633.9826 361.6693C633.9826 358.3556 636.6689 355.6693 639.9826 355.6693C643.2963 355.6693 645.9826 358.3556 645.9826 361.6693Z" fill-rule="nonzero"/><path fill="#56b4e9" clip-path="url(#id_0)" d="M505.4913 358.19653C505.4913 361.51022 502.80502 364.19653 499.4913 364.19653C496.1776 364.19653 493.4913 361.51022 493.4913 358.19653C493.4913 354.8828 496.1776 352.19653 499.4913 352.19653C502.80502 352.19653 505.4913 354.8828 505.4913 358.19653Z" fill-rule="nonzero"/><path fill="#56b4e9" clip-path="url(#id_0)" d="M365.0 348.96625C365.0 352.27997 362.31372 354.96625 359.0 354.96625C355.68628 354.96625 353.0 352.27997 353.0 348.96625C353.0 345.65253 355.68628 342.96625 359.0 342.96625C362.31372 342.96625 365.0 345.65253 365.0 348.96625Z" fill-rule="nonzero"/><path fill="#56b4e9" clip-path="url(#id_0)" d="M224.5087 345.90472C224.5087 349.21844 221.8224 351.90472 218.5087 351.90472C215.19499 351.90472 212.5087 349.21844 212.5087 345.90472C212.5087 342.591 215.19499 339.90472 218.5087 339.90472C221.8224 339.90472 224.5087 342.591 224.5087 345.90472Z" fill-rule="nonzero"/><path fill="#56b4e9" clip-path="url(#id_0)" d="M84.01739 341.38098C84.01739 344.69467 81.33109 347.38098 78.01739 347.38098C74.70368 347.38098 72.01739 344.69467 72.01739 341.38098C72.01739 338.06726 74.70368 335.38098 78.01739 335.38098C81.33109 335.38098 84.01739 338.06726 84.01739 341.38098Z" fill-rule="nonzero"/><path fill="#0072b2" clip-path="url(#id_0)" d="M639.9826 282.4668L645.68896 286.6127L643.50934 293.3209L636.4559 293.3209L634.27625 286.6127Z" fill-rule="nonzero"/><path fill="#0072b2" clip-path="url(#id_0)" d="M499.4913 302.48096L505.19763 306.62686L503.018 313.33508L495.9646 313.33508L493.78497 306.62686Z" fill-rule="nonzero"/><path fill="#0072b2" clip-path="url(#id_0)" d="M359.0 315.50388L364.70633 319.64978L362.5267 326.358L355.4733 326.358L353.29367 319.64978Z" fill-rule="nonzero"/><path fill="#0072b2" clip-path="url(#id_0)" d="M218.5087 302.02402L224.21503 306.16992L222.0354 312.87814L214.98198 312.87814L212.80235 306.16992Z" fill-rule="nonzero"/><path fill="#000000" clip-path="url(#id_0)" d="M635.74 357.65515L639.9826 360.39777L644.2253 357.65515L641.4826 361.89777L644.2253 366.1404L639.9826 363.39777L635.74 366.1404L638.4826 361.89777Z" fill-rule="nonzero"/><path fill="#000000" clip-path="url(#id_0)" d="M495.24866 359.11737L499.4913 361.86L503.73395 359.11737L500.9913 363.36L503.73395 367.60263L499.4913 364.86L495.24866 367.60263L497.9913 363.36Z" fill-rule="nonzero"/><path fill="#000000" clip-path="url(#id_0)" d="M354.75735 357.42667L359.0 360.1693L363.24265 357.42667L360.5 361.6693L363.24265 365.91196L359.0 363.1693L354.75735 365.91196L357.5 361.6693Z" fill-rule="nonzero"/><path fill="#000000" clip-path="url(#id_0)" d="M214.26605 355.23334L218.5087 357.97598L222.75133 355.23334L220.0087 359.47598L222.75133 363.71863L218.5087 360.97598L214.26605 363.71863L217.0087 359.47598Z" fill-rule="nonzero"/><path fill="#000000" clip-path="url(#id_0)" d="M73.77475 352.40027L78.01739 355.1429L82.260025 352.40027L79.51739 356.6429L82.260025 360.88556L78.01739 358.1429L73.77475 360.88556L76.51739 356.6429Z" fill-rule="nonzero"/><path fill="#d55e00" clip-path="url(#id_0)" d="M639.9826 355.89777L645.9826 361.89777L639.9826 367.89777L633.9826 361.89777Z" fill-rule="nonzero"/><path fill="#d55e00" clip-path="url(#id_0)" d="M499.4913 356.21765L505.4913 362.21765L499.4913 368.21765L493.4913 362.21765Z" fill-rule="nonzero"/><path fill="#d55e00" clip-path="url(#id_0)" d="M359.0 354.57263L365.0 360.57263L359.0 366.57263L353.0 360.57263Z" fill-rule="nonzero"/><path fill="#d55e00" clip-path="url(#id_0)" d="M218.5087 354.07L224.5087 360.07L218.5087 366.07L212.5087 360.07Z" fill-rule="nonzero"/><path fill="#d55e00" clip-path="url(#id_0)" d="M78.01739 340.45306L84.01739 346.45306L78.01739 352.45306L72.01739 346.45306Z" fill-rule="nonzero"/><path fill="#000000" d="M27.85 366.41562Q27.85 364.88437 28.1625 363.9625Q28.475 363.025 29.084375 362.525Q29.709375 362.025 30.646875 362.025Q31.334375 362.025 31.85 362.30624Q32.38125 362.5875 32.725 363.11874Q33.06875 363.63437 33.25625 364.38437Q33.44375 365.13437 33.44375 366.41562Q33.44375 367.93124 33.13125 368.85312Q32.834373 369.775 32.209373 370.29062Q31.6 370.79062 30.646875 370.79062Q29.4125 370.79062 28.69375 369.9Q27.85 368.8375 27.85 366.41562ZM28.928125 366.41562Q28.928125 368.525 29.428125 369.22812Q29.928125 369.93124 30.646875 369.93124Q31.38125 369.93124 31.865625 369.22812Q32.365623 368.525 32.365623 366.41562Q32.365623 364.29062 31.865625 363.60312Q31.38125 362.9 30.63125 362.9Q29.9125 362.9 29.475 363.50937Q28.928125 364.29062 28.928125 366.41562ZM35.44375 370.65L35.44375 369.44687L36.646873 369.44687L36.646873 370.65L35.44375 370.65ZM37.85 366.41562Q37.85 364.88437 38.1625 363.9625Q38.475 363.025 39.084373 362.525Q39.709373 362.025 40.646873 362.025Q41.334373 362.025 41.85 362.30624Q42.38125 362.5875 42.725 363.11874Q43.06875 363.63437 43.25625 364.38437Q43.44375 365.13437 43.44375 366.41562Q43.44375 367.93124 43.13125 368.85312Q42.834373 369.775 42.209373 370.29062Q41.6 370.79062 40.646873 370.79062Q39.4125 370.79062 38.69375 369.9Q37.85 368.8375 37.85 366.41562ZM38.928123 366.41562Q38.928123 368.525 39.428123 369.22812Q39.928123 369.93124 40.646873 369.93124Q41.38125 369.93124 41.865623 369.22812Q42.365623 368.525 42.365623 366.41562Q42.365623 364.29062 41.865623 363.60312Q41.38125 362.9 40.63125 362.9Q39.9125 362.9 39.475 363.50937Q38.928123 364.29062 38.928123 366.41562ZM44.85 366.41562Q44.85 364.88437 45.1625 363.9625Q45.475 363.025 46.084373 362.525Q46.709373 362.025 47.646873 362.025Q48.334373 362.025 48.85 362.30624Q49.38125 362.5875 49.725 363.11874Q50.06875 363.63437 50.25625 364.38437Q50.44375 365.13437 50.44375 366.41562Q50.44375 367.93124 50.13125 368.85312Q49.834373 369.775 49.209373 370.29062Q48.6 370.79062 47.646873 370.79062Q46.4125 370.79062 45.69375 369.9Q44.85 368.8375 44.85 366.41562ZM45.928123 366.41562Q45.928123 368.525 46.428123 369.22812Q46.928123 369.93124 47.646873 369.93124Q48.38125 369.93124 48.865623 369.22812Q49.365623 368.525 49.365623 366.41562Q49.365623 364.29062 48.865623 363.60312Q48.38125 362.9 47.63125 362.9Q46.9125 362.9 46.475 363.50937Q45.928123 364.29062 45.928123 366.41562ZM52.053123 364.11874Q52.053123 363.19687 52.50625 362.55624Q52.975 361.91562 53.85 361.91562Q54.6625 361.91562 55.19375 362.49374Q55.725 363.07187 55.725 364.18124Q55.725 365.275 55.178123 365.86874Q54.646873 366.44687 53.865623 366.44687Q53.084373 366.44687 52.56875 365.86874Q52.053123 365.29062 52.053123 364.11874ZM53.88125 362.63437Q53.490623 362.63437 53.225 362.97812Q52.975 363.32187 52.975 364.22812Q52.975 365.05624 53.225 365.4Q53.490623 365.72812 53.88125 365.72812Q54.2875 365.72812 54.5375 365.38437Q54.803123 365.04062 54.803123 364.15Q54.803123 363.30624 54.5375 362.97812Q54.271873 362.63437 53.88125 362.63437ZM53.88125 370.9625L58.584373 361.91562L59.44375 361.91562L54.75625 370.9625L53.88125 370.9625ZM57.6 368.63437Q57.6 367.7125 58.053123 367.07187Q58.521873 366.43124 59.4125 366.43124Q60.225 366.43124 60.75625 367.00937Q61.2875 367.57187 61.2875 368.69687Q61.2875 369.79062 60.740623 370.38437Q60.209373 370.9625 59.4125 370.9625Q58.646873 370.9625 58.115623 370.38437Q57.6 369.80624 57.6 368.63437ZM59.44375 367.15Q59.0375 367.15 58.771873 367.49374Q58.521873 367.8375 58.521873 368.74374Q58.521873 369.55624 58.7875 369.9Q59.053123 370.24374 59.44375 370.24374Q59.834373 370.24374 60.1 369.9Q60.365623 369.55624 60.365623 368.65Q60.365623 367.82187 60.1 367.49374Q59.834373 367.15 59.44375 367.15Z" fill-rule="nonzero"/><path fill="#000000" d="M26.396875 278.24548L26.396875 279.2611L20.709375 279.2611Q20.709375 278.8861 20.834375 278.52673Q21.053125 277.9486 21.521875 277.3861Q22.00625 276.8236 22.9125 276.08923Q24.31875 274.93298 24.803125 274.2611Q25.303125 273.58923 25.303125 272.99548Q25.303125 272.37048 24.85 271.9486Q24.396875 271.5111 23.678125 271.5111Q22.9125 271.5111 22.459375 271.96423Q22.00625 272.41736 21.990625 273.22986L20.9125 273.12048Q21.021875 271.90173 21.740625 271.27673Q22.475 270.6361 23.709375 270.6361Q24.94375 270.6361 25.6625 271.3236Q26.38125 272.0111 26.38125 273.02673Q26.38125 273.54236 26.1625 274.04236Q25.959375 274.52673 25.459375 275.08923Q24.975 275.6361 23.85 276.58923Q22.896875 277.3861 22.615625 277.68298Q22.35 277.96423 22.178125 278.24548L26.396875 278.24548ZM27.85 275.02673Q27.85 273.49548 28.1625 272.5736Q28.475 271.6361 29.084375 271.1361Q29.709375 270.6361 30.646875 270.6361Q31.334375 270.6361 31.85 270.91736Q32.38125 271.1986 32.725 271.72986Q33.06875 272.24548 33.25625 272.99548Q33.44375 273.74548 33.44375 275.02673Q33.44375 276.54236 33.13125 277.46423Q32.834373 278.3861 32.209373 278.90173Q31.6 279.40173 30.646875 279.40173Q29.4125 279.40173 28.69375 278.5111Q27.85 277.4486 27.85 275.02673ZM28.928125 275.02673Q28.928125 277.1361 29.428125 277.83923Q29.928125 278.54236 30.646875 278.54236Q31.38125 278.54236 31.865625 277.83923Q32.365623 277.1361 32.365623 275.02673Q32.365623 272.90173 31.865625 272.21423Q31.38125 271.5111 30.63125 271.5111Q29.9125 271.5111 29.475 272.12048Q28.928125 272.90173 28.928125 275.02673ZM35.44375 279.2611L35.44375 278.05798L36.646873 278.05798L36.646873 279.2611L35.44375 279.2611ZM37.85 275.02673Q37.85 273.49548 38.1625 272.5736Q38.475 271.6361 39.084373 271.1361Q39.709373 270.6361 40.646873 270.6361Q41.334373 270.6361 41.85 270.91736Q42.38125 271.1986 42.725 271.72986Q43.06875 272.24548 43.25625 272.99548Q43.44375 273.74548 43.44375 275.02673Q43.44375 276.54236 43.13125 277.46423Q42.834373 278.3861 42.209373 278.90173Q41.6 279.40173 40.646873 279.40173Q39.4125 279.40173 38.69375 278.5111Q37.85 277.4486 37.85 275.02673ZM38.928123 275.02673Q38.928123 277.1361 39.428123 277.83923Q39.928123 278.54236 40.646873 278.54236Q41.38125 278.54236 41.865623 277.83923Q42.365623 277.1361 42.365623 275.02673Q42.365623 272.90173 41.865623 272.21423Q41.38125 271.5111 40.63125 271.5111Q39.9125 271.5111 39.475 272.12048Q38.928123 272.90173 38.928123 275.02673ZM44.85 275.02673Q44.85 273.49548 45.1625 272.5736Q45.475 271.6361 46.084373 271.1361Q46.709373 270.6361 47.646873 270.6361Q48.334373 270.6361 48.85 270.91736Q49.38125 271.1986 49.725 271.72986Q50.06875 272.24548 50.25625 272.99548Q50.44375 273.74548 50.44375 275.02673Q50.44375 276.54236 50.13125 277.46423Q49.834373 278.3861 49.209373 278.90173Q48.6 279.40173 47.646873 279.40173Q46.4125 279.40173 45.69375 278.5111Q44.85 277.4486 44.85 275.02673ZM45.928123 275.02673Q45.928123 277.1361 46.428123 277.83923Q46.928123 278.54236 47.646873 278.54236Q48.38125 278.54236 48.865623 277.83923Q49.365623 277.1361 49.365623 275.02673Q49.365623 272.90173 48.865623 272.21423Q48.38125 271.5111 47.63125 271.5111Q46.9125 271.5111 46.475 272.12048Q45.928123 272.90173 45.928123 275.02673ZM52.053123 272.72986Q52.053123 271.80798 52.50625 271.16736Q52.975 270.52673 53.85 270.52673Q54.6625 270.52673 55.19375 271.10486Q55.725 271.68298 55.725 272.79236Q55.725 273.8861 55.178123 274.47986Q54.646873 275.05798 53.865623 275.05798Q53.084373 275.05798 52.56875 274.47986Q52.053123 273.90173 52.053123 272.72986ZM53.88125 271.24548Q53.490623 271.24548 53.225 271.58923Q52.975 271.93298 52.975 272.83923Q52.975 273.66736 53.225 274.0111Q53.490623 274.33923 53.88125 274.33923Q54.2875 274.33923 54.5375 273.99548Q54.803123 273.65173 54.803123 272.7611Q54.803123 271.91736 54.5375 271.58923Q54.271873 271.24548 53.88125 271.24548ZM53.88125 279.5736L58.584373 270.52673L59.44375 270.52673L54.75625 279.5736L53.88125 279.5736ZM57.6 277.24548Q57.6 276.3236 58.053123 275.68298Q58.521873 275.04236 59.4125 275.04236Q60.225 275.04236 60.75625 275.62048Q61.2875 276.18298 61.2875 277.30798Q61.2875 278.40173 60.740623 278.99548Q60.209373 279.5736 59.4125 279.5736Q58.646873 279.5736 58.115623 278.99548Q57.6 278.41736 57.6 277.24548ZM59.44375 275.7611Q59.0375 275.7611 58.771873 276.10486Q58.521873 276.4486 58.521873 277.35486Q58.521873 278.16736 58.7875 278.5111Q59.053123 278.85486 59.44375 278.85486Q59.834373 278.85486 60.1 278.5111Q60.365623 278.16736 60.365623 277.2611Q60.365623 276.43298 60.1 276.10486Q59.834373 275.7611 59.44375 275.7611Z" fill-rule="nonzero"/><path fill="#000000" d="M24.225 187.87222L24.225 185.80972L20.50625 185.80972L20.50625 184.84097L24.428125 179.27847L25.2875 179.27847L25.2875 184.84097L26.44375 184.84097L26.44375 185.80972L25.2875 185.80972L25.2875 187.87222L24.225 187.87222ZM24.225 184.84097L24.225 180.9816L21.5375 184.84097L24.225 184.84097ZM27.85 183.63785Q27.85 182.1066 28.1625 181.18472Q28.475 180.24722 29.084375 179.74722Q29.709375 179.24722 30.646875 179.24722Q31.334375 179.24722 31.85 179.52847Q32.38125 179.80972 32.725 180.34097Q33.06875 180.8566 33.25625 181.6066Q33.44375 182.3566 33.44375 183.63785Q33.44375 185.15347 33.13125 186.07535Q32.834373 186.99722 32.209373 187.51285Q31.6 188.01285 30.646875 188.01285Q29.4125 188.01285 28.69375 187.12222Q27.85 186.05972 27.85 183.63785ZM28.928125 183.63785Q28.928125 185.74722 29.428125 186.45035Q29.928125 187.15347 30.646875 187.15347Q31.38125 187.15347 31.865625 186.45035Q32.365623 185.74722 32.365623 183.63785Q32.365623 181.51285 31.865625 180.82535Q31.38125 180.12222 30.63125 180.12222Q29.9125 180.12222 29.475 180.7316Q28.928125 181.51285 28.928125 183.63785ZM35.44375 187.87222L35.44375 186.6691L36.646873 186.6691L36.646873 187.87222L35.44375 187.87222ZM37.85 183.63785Q37.85 182.1066 38.1625 181.18472Q38.475 180.24722 39.084373 179.74722Q39.709373 179.24722 40.646873 179.24722Q41.334373 179.24722 41.85 179.52847Q42.38125 179.80972 42.725 180.34097Q43.06875 180.8566 43.25625 181.6066Q43.44375 182.3566 43.44375 183.63785Q43.44375 185.15347 43.13125 186.07535Q42.834373 186.99722 42.209373 187.51285Q41.6 188.01285 40.646873 188.01285Q39.4125 188.01285 38.69375 187.12222Q37.85 186.05972 37.85 183.63785ZM38.928123 183.63785Q38.928123 185.74722 39.428123 186.45035Q39.928123 187.15347 40.646873 187.15347Q41.38125 187.15347 41.865623 186.45035Q42.365623 185.74722 42.365623 183.63785Q42.365623 181.51285 41.865623 180.82535Q41.38125 180.12222 40.63125 180.12222Q39.9125 180.12222 39.475 180.7316Q38.928123 181.51285 38.928123 183.63785ZM44.85 183.63785Q44.85 182.1066 45.1625 181.18472Q45.475 180.24722 46.084373 179.74722Q46.709373 179.24722 47.646873 179.24722Q48.334373 179.24722 48.85 179.52847Q49.38125 179.80972 49.725 180.34097Q50.06875 180.8566 50.25625 181.6066Q50.44375 182.3566 50.44375 183.63785Q50.44375 185.15347 50.13125 186.07535Q49.834373 186.99722 49.209373 187.51285Q48.6 188.01285 47.646873 188.01285Q46.4125 188.01285 45.69375 187.12222Q44.85 186.05972 44.85 183.63785ZM45.928123 183.63785Q45.928123 185.74722 46.428123 186.45035Q46.928123 187.15347 47.646873 187.15347Q48.38125 187.15347 48.865623 186.45035Q49.365623 185.74722 49.365623 183.63785Q49.365623 181.51285 48.865623 180.82535Q48.38125 180.12222 47.63125 180.12222Q46.9125 180.12222 46.475 180.7316Q45.928123 181.51285 45.928123 183.63785ZM52.053123 181.34097Q52.053123 180.4191 52.50625 179.77847Q52.975 179.13785 53.85 179.13785Q54.6625 179.13785 55.19375 179.71597Q55.725 180.2941 55.725 181.40347Q55.725 182.49722 55.178123 183.09097Q54.646873 183.6691 53.865623 183.6691Q53.084373 183.6691 52.56875 183.09097Q52.053123 182.51285 52.053123 181.34097ZM53.88125 179.8566Q53.490623 179.8566 53.225 180.20035Q52.975 180.5441 52.975 181.45035Q52.975 182.27847 53.225 182.62222Q53.490623 182.95035 53.88125 182.95035Q54.2875 182.95035 54.5375 182.6066Q54.803123 182.26285 54.803123 181.37222Q54.803123 180.52847 54.5375 180.20035Q54.271873 179.8566 53.88125 179.8566ZM53.88125 188.18472L58.584373 179.13785L59.44375 179.13785L54.75625 188.18472L53.88125 188.18472ZM57.6 185.8566Q57.6 184.93472 58.053123 184.2941Q58.521873 183.65347 59.4125 183.65347Q60.225 183.65347 60.75625 184.2316Q61.2875 184.7941 61.2875 185.9191Q61.2875 187.01285 60.740623 187.6066Q60.209373 188.18472 59.4125 188.18472Q58.646873 188.18472 58.115623 187.6066Q57.6 187.02847 57.6 185.8566ZM59.44375 184.37222Q59.0375 184.37222 58.771873 184.71597Q58.521873 185.05972 58.521873 185.96597Q58.521873 186.77847 58.7875 187.12222Q59.053123 187.46597 59.44375 187.46597Q59.834373 187.46597 60.1 187.12222Q60.365623 186.77847 60.365623 185.87222Q60.365623 185.0441 60.1 184.71597Q59.834373 184.37222 59.44375 184.37222Z" fill-rule="nonzero"/><path fill="#000000" d="M26.31875 89.998955L25.271875 90.07708Q25.13125 89.45208 24.88125 89.17083Q24.44375 88.717705 23.81875 88.717705Q23.31875 88.717705 22.928125 88.998955Q22.44375 89.373955 22.146875 90.07708Q21.865625 90.76458 21.85 92.04583Q22.225 91.467705 22.771875 91.186455Q23.334375 90.905205 23.94375 90.905205Q24.990625 90.905205 25.725 91.686455Q26.475 92.467705 26.475 93.686455Q26.475 94.498955 26.115625 95.20208Q25.771875 95.88958 25.1625 96.26458Q24.553125 96.623955 23.7875 96.623955Q22.459375 96.623955 21.63125 95.655205Q20.803125 94.686455 20.803125 92.467705Q20.803125 89.967705 21.725 88.842705Q22.521875 87.85833 23.88125 87.85833Q24.896875 87.85833 25.5375 88.436455Q26.19375 88.998955 26.31875 89.998955ZM22.021875 93.70208Q22.021875 94.248955 22.240625 94.748955Q22.475 95.23333 22.88125 95.498955Q23.303125 95.76458 23.771875 95.76458Q24.428125 95.76458 24.9125 95.23333Q25.396875 94.686455 25.396875 93.76458Q25.396875 92.873955 24.9125 92.35833Q24.44375 91.842705 23.725 91.842705Q23.00625 91.842705 22.50625 92.35833Q22.021875 92.873955 22.021875 93.70208ZM27.85 92.248955Q27.85 90.717705 28.1625 89.79583Q28.475 88.85833 29.084375 88.35833Q29.709375 87.85833 30.646875 87.85833Q31.334375 87.85833 31.85 88.13958Q32.38125 88.42083 32.725 88.95208Q33.06875 89.467705 33.25625 90.217705Q33.44375 90.967705 33.44375 92.248955Q33.44375 93.76458 33.13125 94.686455Q32.834373 95.60833 32.209373 96.123955Q31.6 96.623955 30.646875 96.623955Q29.4125 96.623955 28.69375 95.73333Q27.85 94.67083 27.85 92.248955ZM28.928125 92.248955Q28.928125 94.35833 29.428125 95.061455Q29.928125 95.76458 30.646875 95.76458Q31.38125 95.76458 31.865625 95.061455Q32.365623 94.35833 32.365623 92.248955Q32.365623 90.123955 31.865625 89.436455Q31.38125 88.73333 30.63125 88.73333Q29.9125 88.73333 29.475 89.342705Q28.928125 90.123955 28.928125 92.248955ZM35.44375 96.48333L35.44375 95.280205L36.646873 95.280205L36.646873 96.48333L35.44375 96.48333ZM37.85 92.248955Q37.85 90.717705 38.1625 89.79583Q38.475 88.85833 39.084373 88.35833Q39.709373 87.85833 40.646873 87.85833Q41.334373 87.85833 41.85 88.13958Q42.38125 88.42083 42.725 88.95208Q43.06875 89.467705 43.25625 90.217705Q43.44375 90.967705 43.44375 92.248955Q43.44375 93.76458 43.13125 94.686455Q42.834373 95.60833 42.209373 96.123955Q41.6 96.623955 40.646873 96.623955Q39.4125 96.623955 38.69375 95.73333Q37.85 94.67083 37.85 92.248955ZM38.928123 92.248955Q38.928123 94.35833 39.428123 95.061455Q39.928123 95.76458 40.646873 95.76458Q41.38125 95.76458 41.865623 95.061455Q42.365623 94.35833 42.365623 92.248955Q42.365623 90.123955 41.865623 89.436455Q41.38125 88.73333 40.63125 88.73333Q39.9125 88.73333 39.475 89.342705Q38.928123 90.123955 38.928123 92.248955ZM44.85 92.248955Q44.85 90.717705 45.1625 89.79583Q45.475 88.85833 46.084373 88.35833Q46.709373 87.85833 47.646873 87.85833Q48.334373 87.85833 48.85 88.13958Q49.38125 88.42083 49.725 88.95208Q50.06875 89.467705 50.25625 90.217705Q50.44375 90.967705 50.44375 92.248955Q50.44375 93.76458 50.13125 94.686455Q49.834373 95.60833 49.209373 96.123955Q48.6 96.623955 47.646873 96.623955Q46.4125 96.623955 45.69375 95.73333Q44.85 94.67083 44.85 92.248955ZM45.928123 92.248955Q45.928123 94.35833 46.428123 95.061455Q46.928123 95.76458 47.646873 95.76458Q48.38125 95.76458 48.865623 95.061455Q49.365623 94.35833 49.365623 92.248955Q49.365623 90.123955 48.865623 89.436455Q48.38125 88.73333 47.63125 88.73333Q46.9125 88.73333 46.475 89.342705Q45.928123 90.123955 45.928123 92.248955ZM52.053123 89.95208Q52.053123 89.030205 52.50625 88.38958Q52.975 87.748955 53.85 87.748955Q54.6625 87.748955 55.19375 88.32708Q55.725 88.905205 55.725 90.01458Q55.725 91.10833 55.178123 91.70208Q54.646873 92.280205 53.865623 92.280205Q53.084373 92.280205 52.56875 91.70208Q52.053123 91.123955 52.053123 89.95208ZM53.88125 88.467705Q53.490623 88.467705 53.225 88.811455Q52.975 89.155205 52.975 90.061455Q52.975 90.88958 53.225 91.23333Q53.490623 91.561455 53.88125 91.561455Q54.2875 91.561455 54.5375 91.217705Q54.803123 90.873955 54.803123 89.98333Q54.803123 89.13958 54.5375 88.811455Q54.271873 88.467705 53.88125 88.467705ZM53.88125 96.79583L58.584373 87.748955L59.44375 87.748955L54.75625 96.79583L53.88125 96.79583ZM57.6 94.467705Q57.6 93.54583 58.053123 92.905205Q58.521873 92.26458 59.4125 92.26458Q60.225 92.26458 60.75625 92.842705Q61.2875 93.405205 61.2875 94.530205Q61.2875 95.623955 60.740623 96.217705Q60.209373 96.79583 59.4125 96.79583Q58.646873 96.79583 58.115623 96.217705Q57.6 95.63958 57.6 94.467705ZM59.44375 92.98333Q59.0375 92.98333 58.771873 93.32708Q58.521873 93.67083 58.521873 94.57708Q58.521873 95.38958 58.7875 95.73333Q59.053123 96.07708 59.44375 96.07708Q59.834373 96.07708 60.1 95.73333Q60.365623 95.38958 60.365623 94.48333Q60.365623 93.655205 60.1 93.32708Q59.834373 92.98333 59.44375 92.98333Z" fill-rule="nonzero"/><path fill="#000000" d="M70.06426 382.63437L70.06426 383.65L64.37676 383.65Q64.37676 383.275 64.50176 382.91562Q64.72051 382.3375 65.18926 381.775Q65.67364 381.2125 66.57989 380.47812Q67.98614 379.32187 68.47051 378.65Q68.97051 377.97812 68.97051 377.38437Q68.97051 376.75937 68.51739 376.3375Q68.06426 375.9 67.34551 375.9Q66.57989 375.9 66.12676 376.35312Q65.67364 376.80624 65.65801 377.61874L64.57989 377.50937Q64.68926 376.29062 65.40801 375.66562Q66.14239 375.025 67.37676 375.025Q68.61114 375.025 69.32989 375.7125Q70.04864 376.4 70.04864 377.41562Q70.04864 377.93124 69.82989 378.43124Q69.62676 378.91562 69.12676 379.47812Q68.64239 380.025 67.51739 380.97812Q66.56426 381.775 66.28301 382.07187Q66.01739 382.35312 65.84551 382.63437L70.06426 382.63437ZM71.51739 379.41562Q71.51739 377.88437 71.82989 376.9625Q72.14239 376.025 72.75176 375.525Q73.37676 375.025 74.31426 375.025Q75.00176 375.025 75.51739 375.30624Q76.04864 375.5875 76.39239 376.11874Q76.73614 376.63437 76.92364 377.38437Q77.11114 378.13437 77.11114 379.41562Q77.11114 380.93124 76.79864 381.85312Q76.50176 382.775 75.87676 383.29062Q75.26739 383.79062 74.31426 383.79062Q73.07989 383.79062 72.36114 382.9Q71.51739 381.8375 71.51739 379.41562ZM72.59551 379.41562Q72.59551 381.525 73.09551 382.22812Q73.59551 382.93124 74.31426 382.93124Q75.04864 382.93124 75.53301 382.22812Q76.03301 381.525 76.03301 379.41562Q76.03301 377.29062 75.53301 376.60312Q75.04864 375.9 74.29864 375.9Q73.57989 375.9 73.14239 376.50937Q72.59551 377.29062 72.59551 379.41562ZM82.48614 383.65L81.43926 383.65L81.43926 376.93124Q81.04864 377.29062 80.42364 377.66562Q79.81426 378.025 79.32989 378.19687L79.32989 377.18124Q80.20489 376.75937 80.86114 376.18124Q81.53301 375.5875 81.81426 375.025L82.48614 375.025L82.48614 383.65ZM87.14239 378.99374Q86.48614 378.74374 86.15801 378.30624Q85.84551 377.85312 85.84551 377.24374Q85.84551 376.30624 86.51739 375.66562Q87.20489 375.025 88.31426 375.025Q89.43926 375.025 90.12676 375.68124Q90.81426 376.3375 90.81426 377.275Q90.81426 377.86874 90.50176 378.30624Q90.18926 378.74374 89.54864 378.99374Q90.34551 379.24374 90.75176 379.82187Q91.15801 380.4 91.15801 381.19687Q91.15801 382.29062 90.37676 383.04062Q89.61114 383.79062 88.32989 383.79062Q87.06426 383.79062 86.28301 383.04062Q85.50176 382.29062 85.50176 381.16562Q85.50176 380.32187 85.92364 379.75937Q86.36114 379.19687 87.14239 378.99374ZM86.92364 377.19687Q86.92364 377.80624 87.31426 378.19687Q87.72051 378.5875 88.34551 378.5875Q88.95489 378.5875 89.34551 378.2125Q89.73614 377.82187 89.73614 377.25937Q89.73614 376.68124 89.32989 376.29062Q88.92364 375.88437 88.32989 375.88437Q87.72051 375.88437 87.31426 376.275Q86.92364 376.66562 86.92364 377.19687ZM86.59551 381.16562Q86.59551 381.61874 86.79864 382.04062Q87.01739 382.4625 87.43926 382.69687Q87.86114 382.93124 88.34551 382.93124Q89.09551 382.93124 89.57989 382.44687Q90.07989 381.9625 90.07989 381.2125Q90.07989 380.44687 89.57989 379.94687Q89.07989 379.44687 88.31426 379.44687Q87.56426 379.44687 87.07989 379.94687Q86.59551 380.43124 86.59551 381.16562Z" fill-rule="nonzero"/><path fill="#000000" d="M210.55557 382.63437L210.55557 383.65L204.86807 383.65Q204.86807 383.275 204.99307 382.91562Q205.21182 382.3375 205.68057 381.775Q206.16495 381.2125 207.0712 380.47812Q208.47745 379.32187 208.96182 378.65Q209.46182 377.97812 209.46182 377.38437Q209.46182 376.75937 209.0087 376.3375Q208.55557 375.9 207.83682 375.9Q207.0712 375.9 206.61807 376.35312Q206.16495 376.80624 206.14932 377.61874L205.0712 377.50937Q205.18057 376.29062 205.89932 375.66562Q206.6337 375.025 207.86807 375.025Q209.10245 375.025 209.8212 375.7125Q210.53995 376.4 210.53995 377.41562Q210.53995 377.93124 210.3212 378.43124Q210.11807 378.91562 209.61807 379.47812Q209.1337 380.025 208.0087 380.97812Q207.05557 381.775 206.77432 382.07187Q206.5087 382.35312 206.33682 382.63437L210.55557 382.63437ZM212.0087 379.41562Q212.0087 377.88437 212.3212 376.9625Q212.6337 376.025 213.24307 375.525Q213.86807 375.025 214.80557 375.025Q215.49307 375.025 216.0087 375.30624Q216.53995 375.5875 216.8837 376.11874Q217.22745 376.63437 217.41495 377.38437Q217.60245 378.13437 217.60245 379.41562Q217.60245 380.93124 217.28995 381.85312Q216.99307 382.775 216.36807 383.29062Q215.7587 383.79062 214.80557 383.79062Q213.5712 383.79062 212.85245 382.9Q212.0087 381.8375 212.0087 379.41562ZM213.08682 379.41562Q213.08682 381.525 213.58682 382.22812Q214.08682 382.93124 214.80557 382.93124Q215.53995 382.93124 216.02432 382.22812Q216.52432 381.525 216.52432 379.41562Q216.52432 377.29062 216.02432 376.60312Q215.53995 375.9 214.78995 375.9Q214.0712 375.9 213.6337 376.50937Q213.08682 377.29062 213.08682 379.41562ZM222.97745 383.65L221.93057 383.65L221.93057 376.93124Q221.53995 377.29062 220.91495 377.66562Q220.30557 378.025 219.8212 378.19687L219.8212 377.18124Q220.6962 376.75937 221.35245 376.18124Q222.02432 375.5875 222.30557 375.025L222.97745 375.025L222.97745 383.65ZM226.16495 381.66562L227.18057 381.57187Q227.30557 382.29062 227.66495 382.61874Q228.03995 382.93124 228.60245 382.93124Q229.08682 382.93124 229.4462 382.7125Q229.8212 382.47812 230.05557 382.11874Q230.28995 381.74374 230.4462 381.11874Q230.60245 380.47812 230.60245 379.82187Q230.60245 379.74374 230.60245 379.60312Q230.28995 380.10312 229.74307 380.43124Q229.1962 380.74374 228.55557 380.74374Q227.47745 380.74374 226.74307 379.97812Q226.0087 379.19687 226.0087 377.93124Q226.0087 376.61874 226.77432 375.82187Q227.55557 375.025 228.71182 375.025Q229.53995 375.025 230.22745 375.47812Q230.93057 375.93124 231.28995 376.775Q231.64932 377.60312 231.64932 379.18124Q231.64932 380.82187 231.28995 381.80624Q230.9462 382.775 230.22745 383.29062Q229.52432 383.79062 228.58682 383.79062Q227.5712 383.79062 226.93057 383.24374Q226.28995 382.68124 226.16495 381.66562ZM230.47745 377.86874Q230.47745 376.9625 229.99307 376.43124Q229.52432 375.9 228.83682 375.9Q228.1337 375.9 227.60245 376.47812Q227.08682 377.04062 227.08682 377.9625Q227.08682 378.775 227.58682 379.29062Q228.08682 379.80624 228.80557 379.80624Q229.53995 379.80624 230.0087 379.29062Q230.47745 378.775 230.47745 377.86874Z" fill-rule="nonzero"/><path fill="#000000" d="M351.04688 382.63437L351.04688 383.65L345.35938 383.65Q345.35938 383.275 345.48438 382.91562Q345.70312 382.3375 346.17188 381.775Q346.65625 381.2125 347.5625 380.47812Q348.96875 379.32187 349.45312 378.65Q349.95312 377.97812 349.95312 377.38437Q349.95312 376.75937 349.5 376.3375Q349.04688 375.9 348.32812 375.9Q347.5625 375.9 347.10938 376.35312Q346.65625 376.80624 346.64062 377.61874L345.5625 377.50937Q345.67188 376.29062 346.39062 375.66562Q347.125 375.025 348.35938 375.025Q349.59375 375.025 350.3125 375.7125Q351.03125 376.4 351.03125 377.41562Q351.03125 377.93124 350.8125 378.43124Q350.60938 378.91562 350.10938 379.47812Q349.625 380.025 348.5 380.97812Q347.54688 381.775 347.26562 382.07187Q347.0 382.35312 346.82812 382.63437L351.04688 382.63437ZM352.5 379.41562Q352.5 377.88437 352.8125 376.9625Q353.125 376.025 353.73438 375.525Q354.35938 375.025 355.29688 375.025Q355.98438 375.025 356.5 375.30624Q357.03125 375.5875 357.375 376.11874Q357.71875 376.63437 357.90625 377.38437Q358.09375 378.13437 358.09375 379.41562Q358.09375 380.93124 357.78125 381.85312Q357.48438 382.775 356.85938 383.29062Q356.25 383.79062 355.29688 383.79062Q354.0625 383.79062 353.34375 382.9Q352.5 381.8375 352.5 379.41562ZM353.57812 379.41562Q353.57812 381.525 354.07812 382.22812Q354.57812 382.93124 355.29688 382.93124Q356.03125 382.93124 356.51562 382.22812Q357.01562 381.525 357.01562 379.41562Q357.01562 377.29062 356.51562 376.60312Q356.03125 375.9 355.28125 375.9Q354.5625 375.9 354.125 376.50937Q353.57812 377.29062 353.57812 379.41562ZM365.04688 382.63437L365.04688 383.65L359.35938 383.65Q359.35938 383.275 359.48438 382.91562Q359.70312 382.3375 360.17188 381.775Q360.65625 381.2125 361.5625 380.47812Q362.96875 379.32187 363.45312 378.65Q363.95312 377.97812 363.95312 377.38437Q363.95312 376.75937 363.5 376.3375Q363.04688 375.9 362.32812 375.9Q361.5625 375.9 361.10938 376.35312Q360.65625 376.80624 360.64062 377.61874L359.5625 377.50937Q359.67188 376.29062 360.39062 375.66562Q361.125 375.025 362.35938 375.025Q363.59375 375.025 364.3125 375.7125Q365.03125 376.4 365.03125 377.41562Q365.03125 377.93124 364.8125 378.43124Q364.60938 378.91562 364.10938 379.47812Q363.625 380.025 362.5 380.97812Q361.54688 381.775 361.26562 382.07187Q361.0 382.35312 360.82812 382.63437L365.04688 382.63437ZM366.5 379.41562Q366.5 377.88437 366.8125 376.9625Q367.125 376.025 367.73438 375.525Q368.35938 375.025 369.29688 375.025Q369.98438 375.025 370.5 375.30624Q371.03125 375.5875 371.375 376.11874Q371.71875 376.63437 371.90625 377.38437Q372.09375 378.13437 372.09375 379.41562Q372.09375 380.93124 371.78125 381.85312Q371.48438 382.775 370.85938 383.29062Q370.25 383.79062 369.29688 383.79062Q368.0625 383.79062 367.34375 382.9Q366.5 381.8375 366.5 379.41562ZM367.57812 379.41562Q367.57812 381.525 368.07812 382.22812Q368.57812 382.93124 369.29688 382.93124Q370.03125 382.93124 370.51562 382.22812Q371.01562 381.525 371.01562 379.41562Q371.01562 377.29062 370.51562 376.60312Q370.03125 375.9 369.28125 375.9Q368.5625 375.9 368.125 376.50937Q367.57812 377.29062 367.57812 379.41562Z" fill-rule="nonzero"/><path fill="#000000" d="M491.53818 382.63437L491.53818 383.65L485.85068 383.65Q485.85068 383.275 485.97568 382.91562Q486.19443 382.3375 486.66318 381.775Q487.14755 381.2125 488.0538 380.47812Q489.46005 379.32187 489.94443 378.65Q490.44443 377.97812 490.44443 377.38437Q490.44443 376.75937 489.9913 376.3375Q489.53818 375.9 488.81943 375.9Q488.0538 375.9 487.60068 376.35312Q487.14755 376.80624 487.13193 377.61874L486.0538 377.50937Q486.16318 376.29062 486.88193 375.66562Q487.6163 375.025 488.85068 375.025Q490.08505 375.025 490.8038 375.7125Q491.52255 376.4 491.52255 377.41562Q491.52255 377.93124 491.3038 378.43124Q491.10068 378.91562 490.60068 379.47812Q490.1163 380.025 488.9913 380.97812Q488.03818 381.775 487.75693 382.07187Q487.4913 382.35312 487.31943 382.63437L491.53818 382.63437ZM492.9913 379.41562Q492.9913 377.88437 493.3038 376.9625Q493.6163 376.025 494.22568 375.525Q494.85068 375.025 495.78818 375.025Q496.47568 375.025 496.9913 375.30624Q497.52255 375.5875 497.8663 376.11874Q498.21005 376.63437 498.39755 377.38437Q498.58505 378.13437 498.58505 379.41562Q498.58505 380.93124 498.27255 381.85312Q497.97568 382.775 497.35068 383.29062Q496.7413 383.79062 495.78818 383.79062Q494.5538 383.79062 493.83505 382.9Q492.9913 381.8375 492.9913 379.41562ZM494.06943 379.41562Q494.06943 381.525 494.56943 382.22812Q495.06943 382.93124 495.78818 382.93124Q496.52255 382.93124 497.00693 382.22812Q497.50693 381.525 497.50693 379.41562Q497.50693 377.29062 497.00693 376.60312Q496.52255 375.9 495.77255 375.9Q495.0538 375.9 494.6163 376.50937Q494.06943 377.29062 494.06943 379.41562ZM505.53818 382.63437L505.53818 383.65L499.85068 383.65Q499.85068 383.275 499.97568 382.91562Q500.19443 382.3375 500.66318 381.775Q501.14755 381.2125 502.0538 380.47812Q503.46005 379.32187 503.94443 378.65Q504.44443 377.97812 504.44443 377.38437Q504.44443 376.75937 503.9913 376.3375Q503.53818 375.9 502.81943 375.9Q502.0538 375.9 501.60068 376.35312Q501.14755 376.80624 501.13193 377.61874L500.0538 377.50937Q500.16318 376.29062 500.88193 375.66562Q501.6163 375.025 502.85068 375.025Q504.08505 375.025 504.8038 375.7125Q505.52255 376.4 505.52255 377.41562Q505.52255 377.93124 505.3038 378.43124Q505.10068 378.91562 504.60068 379.47812Q504.1163 380.025 502.9913 380.97812Q502.03818 381.775 501.75693 382.07187Q501.4913 382.35312 501.31943 382.63437L505.53818 382.63437ZM510.96005 383.65L509.91318 383.65L509.91318 376.93124Q509.52255 377.29062 508.89755 377.66562Q508.28818 378.025 507.8038 378.19687L507.8038 377.18124Q508.6788 376.75937 509.33505 376.18124Q510.00693 375.5875 510.28818 375.025L510.96005 375.025L510.96005 383.65Z" fill-rule="nonzero"/><path fill="#000000" d="M632.0295 382.63437L632.0295 383.65L626.342 383.65Q626.342 383.275 626.467 382.91562Q626.6857 382.3375 627.1545 381.775Q627.63885 381.2125 628.5451 380.47812Q629.95135 379.32187 630.4357 378.65Q630.9357 377.97812 630.9357 377.38437Q630.9357 376.75937 630.4826 376.3375Q630.0295 375.9 629.3107 375.9Q628.5451 375.9 628.092 376.35312Q627.63885 376.80624 627.6232 377.61874L626.5451 377.50937Q626.6545 376.29062 627.3732 375.66562Q628.1076 375.025 629.342 375.025Q630.57635 375.025 631.2951 375.7125Q632.01385 376.4 632.01385 377.41562Q632.01385 377.93124 631.7951 378.43124Q631.592 378.91562 631.092 379.47812Q630.6076 380.025 629.4826 380.97812Q628.5295 381.775 628.2482 382.07187Q627.9826 382.35312 627.8107 382.63437L632.0295 382.63437ZM633.4826 379.41562Q633.4826 377.88437 633.7951 376.9625Q634.1076 376.025 634.717 375.525Q635.342 375.025 636.2795 375.025Q636.967 375.025 637.4826 375.30624Q638.01385 375.5875 638.3576 376.11874Q638.70135 376.63437 638.88885 377.38437Q639.07635 378.13437 639.07635 379.41562Q639.07635 380.93124 638.76385 381.85312Q638.467 382.775 637.842 383.29062Q637.2326 383.79062 636.2795 383.79062Q635.0451 383.79062 634.32635 382.9Q633.4826 381.8375 633.4826 379.41562ZM634.5607 379.41562Q634.5607 381.525 635.0607 382.22812Q635.5607 382.93124 636.2795 382.93124Q637.01385 382.93124 637.4982 382.22812Q637.9982 381.525 637.9982 379.41562Q637.9982 377.29062 637.4982 376.60312Q637.01385 375.9 636.26385 375.9Q635.5451 375.9 635.1076 376.50937Q634.5607 377.29062 634.5607 379.41562ZM646.0295 382.63437L646.0295 383.65L640.342 383.65Q640.342 383.275 640.467 382.91562Q640.6857 382.3375 641.1545 381.775Q641.63885 381.2125 642.5451 380.47812Q643.95135 379.32187 644.4357 378.65Q644.9357 377.97812 644.9357 377.38437Q644.9357 376.75937 644.4826 376.3375Q644.0295 375.9 643.3107 375.9Q642.5451 375.9 642.092 376.35312Q641.63885 376.80624 641.6232 377.61874L640.5451 377.50937Q640.6545 376.29062 641.3732 375.66562Q642.1076 375.025 643.342 375.025Q644.57635 375.025 645.2951 375.7125Q646.01385 376.4 646.01385 377.41562Q646.01385 377.93124 645.7951 378.43124Q645.592 378.91562 645.092 379.47812Q644.6076 380.025 643.4826 380.97812Q642.5295 381.775 642.2482 382.07187Q641.9826 382.35312 641.8107 382.63437L646.0295 382.63437ZM653.0295 382.63437L653.0295 383.65L647.342 383.65Q647.342 383.275 647.467 382.91562Q647.6857 382.3375 648.1545 381.775Q648.63885 381.2125 649.5451 380.47812Q650.95135 379.32187 651.4357 378.65Q651.9357 377.97812 651.9357 377.38437Q651.9357 376.75937 651.4826 376.3375Q651.0295 375.9 650.3107 375.9Q649.5451 375.9 649.092 376.35312Q648.63885 376.80624 648.6232 377.61874L647.5451 377.50937Q647.6545 376.29062 648.3732 375.66562Q649.1076 375.025 650.342 375.025Q651.57635 375.025 652.2951 375.7125Q653.01385 376.4 653.01385 377.41562Q653.01385 377.93124 652.7951 378.43124Q652.592 378.91562 652.092 379.47812Q651.6076 380.025 650.4826 380.97812Q649.5295 381.775 649.2482 382.07187Q648.9826 382.35312 648.8107 382.63437L653.0295 382.63437Z" fill-rule="nonzero"/><path fill="#e69f00" d="M42.0 58.916668L47.19615 67.916664L36.80385 67.916664Z" fill-rule="nonzero"/><path fill="#1a1a1a" d="M56.953125 68.916664L56.953125 60.322914L63.15625 60.322914L63.15625 61.33854L58.09375 61.33854L58.09375 63.96354L62.84375 63.96354L62.84375 64.979164L58.09375 64.979164L58.09375 67.90104L63.359375 67.90104L63.359375 68.916664L56.953125 68.916664ZM64.796875 68.916664L64.796875 62.697914L65.734375 62.697914L65.734375 63.572914Q66.03125 63.104164 66.515625 62.83854Q67.0 62.55729 67.625 62.55729Q68.3125 62.55729 68.75 62.83854Q69.203125 63.11979 69.375 63.635414Q70.125 62.55729 71.296875 62.55729Q72.234375 62.55729 72.71875 63.072914Q73.21875 63.572914 73.21875 64.65104L73.21875 68.916664L72.171875 68.916664L72.171875 64.99479Q72.171875 64.36979 72.0625 64.08854Q71.96875 63.80729 71.703125 63.635414Q71.4375 63.46354 71.0625 63.46354Q70.40625 63.46354 69.96875 63.90104Q69.546875 64.33854 69.546875 65.30729L69.546875 68.916664L68.484375 68.916664L68.484375 64.86979Q68.484375 64.166664 68.21875 63.822914Q67.96875 63.46354 67.390625 63.46354Q66.9375 63.46354 66.5625 63.697914Q66.1875 63.93229 66.015625 64.385414Q65.84375 64.83854 65.84375 65.68229L65.84375 68.916664L64.796875 68.916664ZM79.859375 68.15104Q79.265625 68.65104 78.71875 68.854164Q78.1875 69.05729 77.5625 69.05729Q76.53125 69.05729 75.984375 68.55729Q75.4375 68.05729 75.4375 67.27604Q75.4375 66.822914 75.640625 66.447914Q75.84375 66.05729 76.1875 65.83854Q76.53125 65.604164 76.953125 65.49479Q77.25 65.40104 77.890625 65.322914Q79.15625 65.18229 79.765625 64.96354Q79.765625 64.74479 79.765625 64.697914Q79.765625 64.041664 79.46875 63.77604Q79.0625 63.43229 78.265625 63.43229Q77.53125 63.43229 77.171875 63.697914Q76.8125 63.947914 76.640625 64.604164L75.609375 64.46354Q75.75 63.80729 76.078125 63.40104Q76.40625 62.99479 77.015625 62.77604Q77.625 62.55729 78.421875 62.55729Q79.21875 62.55729 79.71875 62.74479Q80.21875 62.93229 80.453125 63.21354Q80.6875 63.49479 80.78125 63.93229Q80.828125 64.197914 80.828125 64.90104L80.828125 66.30729Q80.828125 67.77604 80.890625 68.166664Q80.96875 68.55729 81.171875 68.916664L80.0625 68.916664Q79.90625 68.58854 79.859375 68.15104ZM79.765625 65.791664Q79.1875 66.02604 78.046875 66.197914Q77.390625 66.291664 77.125 66.416664Q76.859375 66.52604 76.703125 66.74479Q76.5625 66.96354 76.5625 67.24479Q76.5625 67.666664 76.875 67.947914Q77.203125 68.229164 77.8125 68.229164Q78.421875 68.229164 78.890625 67.96354Q79.375 67.697914 79.59375 67.229164Q79.765625 66.86979 79.765625 66.18229L79.765625 65.791664ZM86.859375 66.635414L87.890625 66.77604Q87.71875 67.83854 87.015625 68.447914Q86.3125 69.05729 85.296875 69.05729Q84.015625 69.05729 83.234375 68.229164Q82.46875 67.385414 82.46875 65.822914Q82.46875 64.822914 82.796875 64.072914Q83.140625 63.30729 83.8125 62.93229Q84.5 62.55729 85.3125 62.55729Q86.3125 62.55729 86.953125 63.072914Q87.609375 63.572914 87.796875 64.52604L86.765625 64.68229Q86.625 64.05729 86.25 63.74479Q85.875 63.416664 85.34375 63.416664Q84.546875 63.416664 84.046875 63.99479Q83.546875 64.55729 83.546875 65.791664Q83.546875 67.05729 84.03125 67.61979Q84.515625 68.18229 85.28125 68.18229Q85.90625 68.18229 86.3125 67.80729Q86.734375 67.43229 86.859375 66.635414ZM88.375 67.05729L89.40625 66.90104Q89.5 67.52604 89.890625 67.854164Q90.296875 68.18229 91.03125 68.18229Q91.75 68.18229 92.09375 67.90104Q92.453125 67.604164 92.453125 67.197914Q92.453125 66.83854 92.140625 66.635414Q91.921875 66.49479 91.0625 66.27604Q89.90625 65.979164 89.453125 65.77604Q89.015625 65.55729 88.78125 65.18229Q88.546875 64.80729 88.546875 64.33854Q88.546875 63.93229 88.734375 63.572914Q88.921875 63.21354 89.25 62.979164Q89.5 62.80729 89.921875 62.68229Q90.34375 62.55729 90.84375 62.55729Q91.5625 62.55729 92.109375 62.77604Q92.671875 62.979164 92.9375 63.33854Q93.203125 63.697914 93.296875 64.291664L92.265625 64.43229Q92.203125 63.96354 91.859375 63.697914Q91.53125 63.416664 90.90625 63.416664Q90.1875 63.416664 89.875 63.666664Q89.5625 63.90104 89.5625 64.229164Q89.5625 64.43229 89.6875 64.58854Q89.828125 64.760414 90.09375 64.86979Q90.25 64.93229 91.03125 65.135414Q92.15625 65.447914 92.59375 65.635414Q93.03125 65.822914 93.28125 66.18229Q93.53125 66.541664 93.53125 67.08854Q93.53125 67.61979 93.21875 68.08854Q92.921875 68.541664 92.34375 68.80729Q91.765625 69.05729 91.03125 69.05729Q89.8125 69.05729 89.171875 68.55729Q88.546875 68.041664 88.375 67.05729Z" fill-rule="nonzero"/><path fill="#d55e00" d="M117.0 58.916668L118.347084 63.062565L122.70634 63.062565L119.17963 65.62487L120.52671 69.77077L117.0 67.208466L113.47329 69.77077L114.82037 65.62487L111.29366 63.062565L115.652916 63.062565Z" fill-rule="nonzero"/><path fill="#1a1a1a" d="M134.375 68.916664L131.04688 60.322914L132.28125 60.322914L134.51562 66.572914Q134.78125 67.322914 134.96875 67.979164Q135.17188 67.27604 135.4375 66.572914L137.75 60.322914L138.90625 60.322914L135.54688 68.916664L134.375 68.916664ZM138.79688 61.541664L138.79688 60.322914L139.85938 60.322914L139.85938 61.541664L138.79688 61.541664ZM138.79688 68.916664L138.79688 62.697914L139.85938 62.697914L139.85938 68.916664L138.79688 68.916664ZM141.79688 68.916664L141.79688 62.697914L142.73438 62.697914L142.73438 63.572914Q143.03125 63.104164 143.51562 62.83854Q144.0 62.55729 144.625 62.55729Q145.3125 62.55729 145.75 62.83854Q146.20312 63.11979 146.375 63.635414Q147.125 62.55729 148.29688 62.55729Q149.23438 62.55729 149.71875 63.072914Q150.21875 63.572914 150.21875 64.65104L150.21875 68.916664L149.17188 68.916664L149.17188 64.99479Q149.17188 64.36979 149.0625 64.08854Q148.96875 63.80729 148.70312 63.635414Q148.4375 63.46354 148.0625 63.46354Q147.40625 63.46354 146.96875 63.90104Q146.54688 64.33854 146.54688 65.30729L146.54688 68.916664L145.48438 68.916664L145.48438 64.86979Q145.48438 64.166664 145.21875 63.822914Q144.96875 63.46354 144.39062 63.46354Q143.9375 63.46354 143.5625 63.697914Q143.1875 63.93229 143.01562 64.385414Q142.84375 64.83854 142.84375 65.68229L142.84375 68.916664L141.79688 68.916664Z" fill-rule="nonzero"/><path fill="#009e73" d="M169.75735 60.674026L178.24265 60.674026L178.24265 69.15931L169.75735 69.15931Z" fill-rule="nonzero"/><path fill="#1a1a1a" d="M189.125 68.916664L189.125 60.322914L190.25 60.322914L190.25 68.916664L189.125 68.916664ZM191.79688 68.916664L191.79688 62.697914L192.73438 62.697914L192.73438 63.572914Q193.42188 62.55729 194.71875 62.55729Q195.28125 62.55729 195.75 62.760414Q196.23438 62.96354 196.46875 63.291664Q196.70312 63.61979 196.79688 64.05729Q196.84375 64.354164 196.84375 65.08854L196.84375 68.916664L195.79688 68.916664L195.79688 65.135414Q195.79688 64.479164 195.67188 64.166664Q195.54688 63.854164 195.23438 63.666664Q194.92188 63.46354 194.5 63.46354Q193.82812 63.46354 193.32812 63.90104Q192.84375 64.322914 192.84375 65.510414L192.84375 68.916664L191.79688 68.916664ZM201.09375 67.979164L201.25 68.90104Q200.79688 68.99479 200.45312 68.99479Q199.875 68.99479 199.5625 68.822914Q199.25 68.635414 199.10938 68.33854Q198.98438 68.041664 198.98438 67.08854L198.98438 63.510414L198.21875 63.510414L198.21875 62.697914L198.98438 62.697914L198.98438 61.15104L200.03125 60.52604L200.03125 62.697914L201.09375 62.697914L201.09375 63.510414L200.03125 63.510414L200.03125 67.15104Q200.03125 67.604164 200.07812 67.729164Q200.14062 67.854164 200.26562 67.93229Q200.39062 68.010414 200.625 68.010414Q200.8125 68.010414 201.09375 67.979164ZM206.04688 66.916664L207.14062 67.041664Q206.89062 67.99479 206.1875 68.52604Q205.48438 69.05729 204.40625 69.05729Q203.04688 69.05729 202.23438 68.21354Q201.4375 67.36979 201.4375 65.854164Q201.4375 64.291664 202.25 63.43229Q203.0625 62.55729 204.34375 62.55729Q205.59375 62.55729 206.375 63.40104Q207.17188 64.24479 207.17188 65.791664Q207.17188 65.885414 207.17188 66.072914L202.53125 66.072914Q202.59375 67.104164 203.10938 67.65104Q203.625 68.18229 204.40625 68.18229Q204.98438 68.18229 205.39062 67.885414Q205.8125 67.572914 206.04688 66.916664ZM202.59375 65.21354L206.0625 65.21354Q206.0 64.416664 205.67188 64.02604Q205.15625 63.416664 204.35938 63.416664Q203.625 63.416664 203.125 63.90104Q202.64062 64.385414 202.59375 65.21354ZM208.76562 68.916664L208.76562 60.322914L209.82812 60.322914L209.82812 68.916664L208.76562 68.916664ZM211.76562 68.916664L211.76562 60.322914L212.82812 60.322914L212.82812 68.916664L211.76562 68.916664ZM214.79688 61.541664L214.79688 60.322914L215.85938 60.322914L215.85938 61.541664L214.79688 61.541664ZM214.79688 68.916664L214.79688 62.697914L215.85938 62.697914L215.85938 68.916664L214.79688 68.916664ZM217.34375 66.479164L218.375 66.33854Q218.40625 67.322914 218.73438 67.68229Q219.0625 68.041664 219.65625 68.041664Q220.07812 68.041664 220.39062 67.854164Q220.70312 67.65104 220.8125 67.322914Q220.9375 66.979164 220.9375 66.24479L220.9375 60.322914L222.0625 60.322914L222.0625 66.18229Q222.0625 67.260414 221.79688 67.854164Q221.54688 68.447914 220.98438 68.760414Q220.42188 69.05729 219.65625 69.05729Q218.53125 69.05729 217.92188 68.416664Q217.32812 67.760414 217.34375 66.479164Z" fill-rule="nonzero"/><path fill="#56b4e9" d="M251.0 64.916664C251.0 68.23038 248.3137 70.916664 245.0 70.916664C241.6863 70.916664 239.0 68.23038 239.0 64.916664C239.0 61.60296 241.6863 58.916668 245.0 58.916668C248.3137 58.916668 251.0 61.60296 251.0 64.916664Z" fill-rule="nonzero"/><path fill="#1a1a1a" d="M258.98438 68.916664L262.28125 60.322914L263.5 60.322914L267.01562 68.916664L265.73438 68.916664L264.71875 66.30729L261.14062 66.30729L260.1875 68.916664L258.98438 68.916664ZM261.46875 65.385414L264.375 65.385414L263.48438 63.010414Q263.0625 61.93229 262.875 61.229164Q262.70312 62.05729 262.40625 62.86979L261.46875 65.385414ZM269.09375 67.979164L269.25 68.90104Q268.79688 68.99479 268.45312 68.99479Q267.875 68.99479 267.5625 68.822914Q267.25 68.635414 267.10938 68.33854Q266.98438 68.041664 266.98438 67.08854L266.98438 63.510414L266.21875 63.510414L266.21875 62.697914L266.98438 62.697914L266.98438 61.15104L268.03125 60.52604L268.03125 62.697914L269.09375 62.697914L269.09375 63.510414L268.03125 63.510414L268.03125 67.15104Q268.03125 67.604164 268.07812 67.729164Q268.14062 67.854164 268.26562 67.93229Q268.39062 68.010414 268.625 68.010414Q268.8125 68.010414 269.09375 67.979164ZM269.40625 65.80729Q269.40625 64.072914 270.35938 63.24479Q271.15625 62.55729 272.3125 62.55729Q273.59375 62.55729 274.40625 63.40104Q275.23438 64.229164 275.23438 65.71354Q275.23438 66.916664 274.875 67.604164Q274.51562 68.291664 273.8125 68.68229Q273.125 69.05729 272.3125 69.05729Q271.01562 69.05729 270.20312 68.229164Q269.40625 67.385414 269.40625 65.80729ZM270.48438 65.80729Q270.48438 66.99479 271.0 67.58854Q271.53125 68.18229 272.3125 68.18229Q273.10938 68.18229 273.625 67.58854Q274.14062 66.99479 274.14062 65.77604Q274.14062 64.61979 273.60938 64.02604Q273.09375 63.43229 272.3125 63.43229Q271.53125 63.43229 271.0 64.02604Q270.48438 64.604164 270.48438 65.80729ZM276.79688 68.916664L276.79688 62.697914L277.73438 62.697914L277.73438 63.572914Q278.03125 63.104164 278.51562 62.83854Q279.0 62.55729 279.625 62.55729Q280.3125 62.55729 280.75 62.83854Q281.20312 63.11979 281.375 63.635414Q282.125 62.55729 283.29688 62.55729Q284.23438 62.55729 284.71875 63.072914Q285.21875 63.572914 285.21875 64.65104L285.21875 68.916664L284.17188 68.916664L284.17188 64.99479Q284.17188 64.36979 284.0625 64.08854Q283.96875 63.80729 283.70312 63.635414Q283.4375 63.46354 283.0625 63.46354Q282.40625 63.46354 281.96875 63.90104Q281.54688 64.33854 281.54688 65.30729L281.54688 68.916664L280.48438 68.916664L280.48438 64.86979Q280.48438 64.166664 280.21875 63.822914Q279.96875 63.46354 279.39062 63.46354Q278.9375 63.46354 278.5625 63.697914Q278.1875 63.93229 278.01562 64.385414Q277.84375 64.83854 277.84375 65.68229L277.84375 68.916664L276.79688 68.916664Z" fill-rule="nonzero"/><path fill="#0072b2" d="M309.0 58.916668L314.70633 63.062565L312.5267 69.77077L305.4733 69.77077L303.29367 63.062565Z" fill-rule="nonzero"/><path fill="#1a1a1a" d="M326.375 68.916664L323.04688 60.322914L324.28125 60.322914L326.51562 66.572914Q326.78125 67.322914 326.96875 67.979164Q327.17188 67.27604 327.4375 66.572914L329.75 60.322914L330.90625 60.322914L327.54688 68.916664L326.375 68.916664ZM330.54688 66.15104L331.60938 66.05729Q331.6875 66.71354 331.96875 67.11979Q332.25 67.52604 332.82812 67.791664Q333.42188 68.041664 334.15625 68.041664Q334.79688 68.041664 335.29688 67.854164Q335.79688 67.65104 336.03125 67.322914Q336.28125 66.979164 336.28125 66.58854Q336.28125 66.18229 336.04688 65.885414Q335.8125 65.572914 335.28125 65.36979Q334.92188 65.229164 333.73438 64.947914Q332.5625 64.666664 332.09375 64.416664Q331.46875 64.08854 331.17188 63.61979Q330.875 63.135414 330.875 62.541664Q330.875 61.90104 331.23438 61.33854Q331.60938 60.760414 332.3125 60.479164Q333.03125 60.18229 333.89062 60.18229Q334.84375 60.18229 335.57812 60.49479Q336.3125 60.791664 336.70312 61.40104Q337.09375 61.99479 337.125 62.74479L336.03125 62.822914Q335.9375 62.010414 335.42188 61.604164Q334.92188 61.18229 333.9375 61.18229Q332.90625 61.18229 332.4375 61.55729Q331.96875 61.93229 331.96875 62.46354Q331.96875 62.93229 332.29688 63.229164Q332.625 63.52604 334.0 63.83854Q335.39062 64.15104 335.90625 64.385414Q336.65625 64.74479 337.01562 65.27604Q337.375 65.791664 337.375 66.49479Q337.375 67.18229 336.98438 67.791664Q336.59375 68.385414 335.85938 68.729164Q335.125 69.05729 334.20312 69.05729Q333.03125 69.05729 332.23438 68.729164Q331.45312 68.385414 331.0 67.697914Q330.5625 67.010414 330.54688 66.15104ZM348.0625 65.90104L349.1875 66.197914Q348.82812 67.58854 347.90625 68.322914Q346.98438 69.05729 345.64062 69.05729Q344.25 69.05729 343.375 68.49479Q342.5 67.93229 342.04688 66.86979Q341.59375 65.791664 341.59375 64.55729Q341.59375 63.21354 342.10938 62.21354Q342.625 61.21354 343.5625 60.697914Q344.51562 60.18229 345.65625 60.18229Q346.9375 60.18229 347.8125 60.83854Q348.70312 61.49479 349.04688 62.68229L347.92188 62.947914Q347.625 62.010414 347.04688 61.58854Q346.48438 61.15104 345.625 61.15104Q344.64062 61.15104 343.96875 61.635414Q343.3125 62.104164 343.03125 62.90104Q342.76562 63.697914 342.76562 64.55729Q342.76562 65.65104 343.07812 66.46354Q343.40625 67.27604 344.07812 67.68229Q344.75 68.08854 345.54688 68.08854Q346.5 68.08854 347.15625 67.541664Q347.82812 66.99479 348.0625 65.90104ZM350.40625 65.80729Q350.40625 64.072914 351.35938 63.24479Q352.15625 62.55729 353.3125 62.55729Q354.59375 62.55729 355.40625 63.40104Q356.23438 64.229164 356.23438 65.71354Q356.23438 66.916664 355.875 67.604164Q355.51562 68.291664 354.8125 68.68229Q354.125 69.05729 353.3125 69.05729Q352.01562 69.05729 351.20312 68.229164Q350.40625 67.385414 350.40625 65.80729ZM351.48438 65.80729Q351.48438 66.99479 352.0 67.58854Q352.53125 68.18229 353.3125 68.18229Q354.10938 68.18229 354.625 67.58854Q355.14062 66.99479 355.14062 65.77604Q355.14062 64.61979 354.60938 64.02604Q354.09375 63.43229 353.3125 63.43229Q352.53125 63.43229 352.0 64.02604Q351.48438 64.604164 351.48438 65.80729ZM361.82812 68.916664L361.82812 68.135414Q361.23438 69.05729 360.09375 69.05729Q359.34375 69.05729 358.71875 68.65104Q358.09375 68.229164 357.75 67.49479Q357.40625 66.760414 357.40625 65.80729Q357.40625 64.885414 357.71875 64.11979Q358.03125 63.354164 358.65625 62.96354Q359.28125 62.55729 360.04688 62.55729Q360.60938 62.55729 361.04688 62.791664Q361.48438 63.02604 361.76562 63.40104L361.76562 60.322914L362.8125 60.322914L362.8125 68.916664L361.82812 68.916664ZM358.5 65.80729Q358.5 67.010414 359.0 67.604164Q359.5 68.18229 360.1875 68.18229Q360.875 68.18229 361.35938 67.61979Q361.84375 67.05729 361.84375 65.90104Q361.84375 64.61979 361.34375 64.02604Q360.85938 63.43229 360.14062 63.43229Q359.4375 63.43229 358.96875 64.010414Q358.5 64.572914 358.5 65.80729ZM369.04688 66.916664L370.14062 67.041664Q369.89062 67.99479 369.1875 68.52604Q368.48438 69.05729 367.40625 69.05729Q366.04688 69.05729 365.23438 68.21354Q364.4375 67.36979 364.4375 65.854164Q364.4375 64.291664 365.25 63.43229Q366.0625 62.55729 367.34375 62.55729Q368.59375 62.55729 369.375 63.40104Q370.17188 64.24479 370.17188 65.791664Q370.17188 65.885414 370.17188 66.072914L365.53125 66.072914Q365.59375 67.104164 366.10938 67.65104Q366.625 68.18229 367.40625 68.18229Q367.98438 68.18229 368.39062 67.885414Q368.8125 67.572914 369.04688 66.916664ZM365.59375 65.21354L369.0625 65.21354Q369.0 64.416664 368.67188 64.02604Q368.15625 63.416664 367.35938 63.416664Q366.625 63.416664 366.125 63.90104Q365.64062 64.385414 365.59375 65.21354Z" fill-rule="nonzero"/><path fill="#000000" d="M388.75735 60.674026L393.0 63.416668L397.24265 60.674026L394.5 64.916664L397.24265 69.15931L393.0 66.416664L388.75735 69.15931L391.5 64.916664Z" fill-rule="nonzero"/><path fill="#1a1a1a" d="M407.54688 66.15104L408.60938 66.05729Q408.6875 66.71354 408.96875 67.11979Q409.25 67.52604 409.82812 67.791664Q410.42188 68.041664 411.15625 68.041664Q411.79688 68.041664 412.29688 67.854164Q412.79688 67.65104 413.03125 67.322914Q413.28125 66.979164 413.28125 66.58854Q413.28125 66.18229 413.04688 65.885414Q412.8125 65.572914 412.28125 65.36979Q411.92188 65.229164 410.73438 64.947914Q409.5625 64.666664 409.09375 64.416664Q408.46875 64.08854 408.17188 63.61979Q407.875 63.135414 407.875 62.541664Q407.875 61.90104 408.23438 61.33854Q408.60938 60.760414 409.3125 60.479164Q410.03125 60.18229 410.89062 60.18229Q411.84375 60.18229 412.57812 60.49479Q413.3125 60.791664 413.70312 61.40104Q414.09375 61.99479 414.125 62.74479L413.03125 62.822914Q412.9375 62.010414 412.42188 61.604164Q411.92188 61.18229 410.9375 61.18229Q409.90625 61.18229 409.4375 61.55729Q408.96875 61.93229 408.96875 62.46354Q408.96875 62.93229 409.29688 63.229164Q409.625 63.52604 411.0 63.83854Q412.39062 64.15104 412.90625 64.385414Q413.65625 64.74479 414.01562 65.27604Q414.375 65.791664 414.375 66.49479Q414.375 67.18229 413.98438 67.791664Q413.59375 68.385414 412.85938 68.729164Q412.125 69.05729 411.20312 69.05729Q410.03125 69.05729 409.23438 68.729164Q408.45312 68.385414 408.0 67.697914Q407.5625 67.010414 407.54688 66.15104ZM419.875 68.916664L419.875 67.99479Q419.14062 69.05729 417.89062 69.05729Q417.34375 69.05729 416.85938 68.854164Q416.39062 68.635414 416.15625 68.322914Q415.92188 67.99479 415.82812 67.52604Q415.76562 67.229164 415.76562 66.541664L415.76562 62.697914L416.82812 62.697914L416.82812 66.15104Q416.82812 66.96354 416.89062 67.260414Q416.98438 67.666664 417.29688 67.916664Q417.625 68.15104 418.10938 68.15104Q418.57812 68.15104 418.98438 67.916664Q419.40625 67.666664 419.57812 67.24479Q419.76562 66.822914 419.76562 66.02604L419.76562 62.697914L420.8125 62.697914L420.8125 68.916664L419.875 68.916664ZM423.76562 68.916664L422.78125 68.916664L422.78125 60.322914L423.84375 60.322914L423.84375 63.385414Q424.51562 62.55729 425.54688 62.55729Q426.125 62.55729 426.625 62.791664Q427.14062 63.010414 427.46875 63.43229Q427.8125 63.854164 428.0 64.447914Q428.1875 65.041664 428.1875 65.71354Q428.1875 67.30729 427.39062 68.18229Q426.59375 69.05729 425.5 69.05729Q424.39062 69.05729 423.76562 68.135414L423.76562 68.916664ZM423.75 65.760414Q423.75 66.86979 424.0625 67.36979Q424.5625 68.18229 425.40625 68.18229Q426.09375 68.18229 426.59375 67.58854Q427.10938 66.99479 427.10938 65.791664Q427.10938 64.572914 426.625 63.99479Q426.14062 63.416664 425.45312 63.416664Q424.76562 63.416664 424.25 64.02604Q423.75 64.61979 423.75 65.760414ZM429.76562 68.916664L429.76562 60.322914L430.82812 60.322914L430.82812 68.916664L429.76562 68.916664ZM432.79688 61.541664L432.79688 60.322914L433.85938 60.322914L433.85938 61.541664L432.79688 61.541664ZM432.79688 68.916664L432.79688 62.697914L433.85938 62.697914L433.85938 68.916664L432.79688 68.916664ZM435.79688 68.916664L435.79688 62.697914L436.73438 62.697914L436.73438 63.572914Q437.03125 63.104164 437.51562 62.83854Q438.0 62.55729 438.625 62.55729Q439.3125 62.55729 439.75 62.83854Q440.20312 63.11979 440.375 63.635414Q441.125 62.55729 442.29688 62.55729Q443.23438 62.55729 443.71875 63.072914Q444.21875 63.572914 444.21875 64.65104L444.21875 68.916664L443.17188 68.916664L443.17188 64.99479Q443.17188 64.36979 443.0625 64.08854Q442.96875 63.80729 442.70312 63.635414Q442.4375 63.46354 442.0625 63.46354Q441.40625 63.46354 440.96875 63.90104Q440.54688 64.33854 440.54688 65.30729L440.54688 68.916664L439.48438 68.916664L439.48438 64.86979Q439.48438 64.166664 439.21875 63.822914Q438.96875 63.46354 438.39062 63.46354Q437.9375 63.46354 437.5625 63.697914Q437.1875 63.93229 437.01562 64.385414Q436.84375 64.83854 436.84375 65.68229L436.84375 68.916664L435.79688 68.916664ZM451.04688 66.916664L452.14062 67.041664Q451.89062 67.99479 451.1875 68.52604Q450.48438 69.05729 449.40625 69.05729Q448.04688 69.05729 447.23438 68.21354Q446.4375 67.36979 446.4375 65.854164Q446.4375 64.291664 447.25 63.43229Q448.0625 62.55729 449.34375 62.55729Q450.59375 62.55729 451.375 63.40104Q452.17188 64.24479 452.17188 65.791664Q452.17188 65.885414 452.17188 66.072914L447.53125 66.072914Q447.59375 67.104164 448.10938 67.65104Q448.625 68.18229 449.40625 68.18229Q449.98438 68.18229 450.39062 67.885414Q450.8125 67.572914 451.04688 66.916664ZM447.59375 65.21354L451.0625 65.21354Q451.0 64.416664 450.67188 64.02604Q450.15625 63.416664 449.35938 63.416664Q448.625 63.416664 448.125 63.90104Q447.64062 64.385414 447.59375 65.21354ZM459.10938 68.916664L459.10938 61.33854L456.28125 61.33854L456.28125 60.322914L463.09375 60.322914L463.09375 61.33854L460.25 61.33854L460.25 68.916664L459.10938 68.916664ZM468.04688 66.916664L469.14062 67.041664Q468.89062 67.99479 468.1875 68.52604Q467.48438 69.05729 466.40625 69.05729Q465.04688 69.05729 464.23438 68.21354Q463.4375 67.36979 463.4375 65.854164Q463.4375 64.291664 464.25 63.43229Q465.0625 62.55729 466.34375 62.55729Q467.59375 62.55729 468.375 63.40104Q469.17188 64.24479 469.17188 65.791664Q469.17188 65.885414 469.17188 66.072914L464.53125 66.072914Q464.59375 67.104164 465.10938 67.65104Q465.625 68.18229 466.40625 68.18229Q466.98438 68.18229 467.39062 67.885414Q467.8125 67.572914 468.04688 66.916664ZM464.59375 65.21354L468.0625 65.21354Q468.0 64.416664 467.67188 64.02604Q467.15625 63.416664 466.35938 63.416664Q465.625 63.416664 465.125 63.90104Q464.64062 64.385414 464.59375 65.21354ZM470.09375 68.916664L472.35938 65.68229L470.26562 62.697914L471.57812 62.697914L472.53125 64.15104Q472.79688 64.572914 472.96875 64.854164Q473.21875 64.46354 473.4375 64.166664L474.48438 62.697914L475.75 62.697914L473.59375 65.61979L475.90625 68.916664L474.625 68.916664L473.34375 66.979164L473.0 66.46354L471.35938 68.916664L470.09375 68.916664ZM478.09375 67.979164L478.25 68.90104Q477.79688 68.99479 477.45312 68.99479Q476.875 68.99479 476.5625 68.822914Q476.25 68.635414 476.10938 68.33854Q475.98438 68.041664 475.98438 67.08854L475.98438 63.510414L475.21875 63.510414L475.21875 62.697914L475.98438 62.697914L475.98438 61.15104L477.03125 60.52604L477.03125 62.697914L478.09375 62.697914L478.09375 63.510414L477.03125 63.510414L477.03125 67.15104Q477.03125 67.604164 477.07812 67.729164Q477.14062 67.854164 477.26562 67.93229Q477.39062 68.010414 477.625 68.010414Q477.8125 68.010414 478.09375 67.979164Z" fill-rule="nonzero"/><path fill="#d55e00" d="M500.0 58.916668L506.0 64.916664L500.0 70.916664L494.0 64.916664Z" fill-rule="nonzero"/><path fill="#1a1a1a" d="M514.5781 64.729164Q514.5781 62.58854 515.71875 61.385414Q516.875 60.166664 518.6875 60.166664Q519.8906 60.166664 520.84375 60.74479Q521.7969 61.30729 522.2969 62.322914Q522.7969 63.33854 522.7969 64.635414Q522.7969 65.93229 522.2656 66.96354Q521.7344 67.99479 520.7656 68.52604Q519.8125 69.05729 518.6875 69.05729Q517.46875 69.05729 516.5156 68.479164Q515.5625 67.885414 515.0625 66.885414Q514.5781 65.86979 514.5781 64.729164ZM515.75 64.74479Q515.75 66.30729 516.5781 67.197914Q517.4219 68.08854 518.6875 68.08854Q519.96875 68.08854 520.7969 67.197914Q521.625 66.291664 521.625 64.61979Q521.625 63.572914 521.2656 62.791664Q520.9219 62.010414 520.2344 61.58854Q519.5469 61.15104 518.7031 61.15104Q517.5 61.15104 516.625 61.979164Q515.75 62.80729 515.75 64.74479ZM526.09375 67.979164L526.25 68.90104Q525.7969 68.99479 525.4531 68.99479Q524.875 68.99479 524.5625 68.822914Q524.25 68.635414 524.1094 68.33854Q523.9844 68.041664 523.9844 67.08854L523.9844 63.510414L523.21875 63.510414L523.21875 62.697914L523.9844 62.697914L523.9844 61.15104L525.03125 60.52604L525.03125 62.697914L526.09375 62.697914L526.09375 63.510414L525.03125 63.510414L525.03125 67.15104Q525.03125 67.604164 525.0781 67.729164Q525.1406 67.854164 525.2656 67.93229Q525.3906 68.010414 525.625 68.010414Q525.8125 68.010414 526.09375 67.979164ZM526.7969 68.916664L526.7969 60.322914L527.84375 60.322914L527.84375 63.40104Q528.5781 62.55729 529.7031 62.55729Q530.40625 62.55729 530.90625 62.83854Q531.4219 63.104164 531.6406 63.58854Q531.8594 64.05729 531.8594 64.979164L531.8594 68.916664L530.8125 68.916664L530.8125 64.979164Q530.8125 64.18229 530.46875 63.822914Q530.125 63.46354 529.5 63.46354Q529.03125 63.46354 528.6094 63.71354Q528.2031 63.947914 528.0156 64.36979Q527.84375 64.77604 527.84375 65.510414L527.84375 68.916664L526.7969 68.916664ZM538.0469 66.916664L539.1406 67.041664Q538.8906 67.99479 538.1875 68.52604Q537.4844 69.05729 536.40625 69.05729Q535.0469 69.05729 534.2344 68.21354Q533.4375 67.36979 533.4375 65.854164Q533.4375 64.291664 534.25 63.43229Q535.0625 62.55729 536.34375 62.55729Q537.59375 62.55729 538.375 63.40104Q539.1719 64.24479 539.1719 65.791664Q539.1719 65.885414 539.1719 66.072914L534.53125 66.072914Q534.59375 67.104164 535.1094 67.65104Q535.625 68.18229 536.40625 68.18229Q536.9844 68.18229 537.3906 67.885414Q537.8125 67.572914 538.0469 66.916664ZM534.59375 65.21354L538.0625 65.21354Q538.0 64.416664 537.6719 64.02604Q537.15625 63.416664 536.3594 63.416664Q535.625 63.416664 535.125 63.90104Q534.6406 64.385414 534.59375 65.21354ZM540.78125 68.916664L540.78125 62.697914L541.7344 62.697914L541.7344 63.635414Q542.09375 62.979164 542.3906 62.77604Q542.7031 62.55729 543.0781 62.55729Q543.6094 62.55729 544.15625 62.885414L543.7969 63.86979Q543.40625 63.635414 543.03125 63.635414Q542.6719 63.635414 542.3906 63.854164Q542.125 64.05729 542.0156 64.43229Q541.8281 64.99479 541.8281 65.65104L541.8281 68.916664L540.78125 68.916664ZM549.8125 71.447914Q548.9375 70.33854 548.3281 68.86979Q547.7344 67.385414 547.7344 65.80729Q547.7344 64.416664 548.1719 63.135414Q548.7031 61.65104 549.8125 60.18229L550.5625 60.18229Q549.8594 61.40104 549.625 61.916664Q549.2656 62.729164 549.0625 63.604164Q548.8125 64.697914 548.8125 65.80729Q548.8125 68.635414 550.5625 71.447914L549.8125 71.447914ZM551.7969 71.30729L551.7969 62.697914L552.75 62.697914L552.75 63.49479Q553.09375 63.02604 553.5156 62.791664Q553.9531 62.55729 554.5625 62.55729Q555.3594 62.55729 555.96875 62.96354Q556.5781 63.36979 556.875 64.11979Q557.1875 64.86979 557.1875 65.760414Q557.1875 66.71354 556.84375 67.479164Q556.5156 68.24479 555.8594 68.65104Q555.2031 69.05729 554.4844 69.05729Q553.9531 69.05729 553.53125 68.83854Q553.1094 68.604164 552.84375 68.27604L552.84375 71.30729L551.7969 71.30729ZM552.75 65.83854Q552.75 67.041664 553.2344 67.61979Q553.71875 68.18229 554.40625 68.18229Q555.1094 68.18229 555.6094 67.58854Q556.1094 66.99479 556.1094 65.74479Q556.1094 64.55729 555.625 63.979164Q555.1406 63.385414 554.4531 63.385414Q553.78125 63.385414 553.2656 64.010414Q552.75 64.635414 552.75 65.83854ZM558.7656 68.916664L558.7656 60.322914L559.8281 60.322914L559.8281 68.916664L558.7656 68.916664ZM566.0469 66.916664L567.1406 67.041664Q566.8906 67.99479 566.1875 68.52604Q565.4844 69.05729 564.40625 69.05729Q563.0469 69.05729 562.2344 68.21354Q561.4375 67.36979 561.4375 65.854164Q561.4375 64.291664 562.25 63.43229Q563.0625 62.55729 564.34375 62.55729Q565.59375 62.55729 566.375 63.40104Q567.1719 64.24479 567.1719 65.791664Q567.1719 65.885414 567.1719 66.072914L562.53125 66.072914Q562.59375 67.104164 563.1094 67.65104Q563.625 68.18229 564.40625 68.18229Q564.9844 68.18229 565.3906 67.885414Q565.8125 67.572914 566.0469 66.916664ZM562.59375 65.21354L566.0625 65.21354Q566.0 64.416664 565.6719 64.02604Q565.15625 63.416664 564.3594 63.416664Q563.625 63.416664 563.125 63.90104Q562.6406 64.385414 562.59375 65.21354ZM572.8594 68.15104Q572.2656 68.65104 571.71875 68.854164Q571.1875 69.05729 570.5625 69.05729Q569.53125 69.05729 568.9844 68.55729Q568.4375 68.05729 568.4375 67.27604Q568.4375 66.822914 568.6406 66.447914Q568.84375 66.05729 569.1875 65.83854Q569.53125 65.604164 569.9531 65.49479Q570.25 65.40104 570.8906 65.322914Q572.15625 65.18229 572.7656 64.96354Q572.7656 64.74479 572.7656 64.697914Q572.7656 64.041664 572.46875 63.77604Q572.0625 63.43229 571.2656 63.43229Q570.53125 63.43229 570.1719 63.697914Q569.8125 63.947914 569.6406 64.604164L568.6094 64.46354Q568.75 63.80729 569.0781 63.40104Q569.40625 62.99479 570.0156 62.77604Q570.625 62.55729 571.4219 62.55729Q572.21875 62.55729 572.71875 62.74479Q573.21875 62.93229 573.4531 63.21354Q573.6875 63.49479 573.78125 63.93229Q573.8281 64.197914 573.8281 64.90104L573.8281 66.30729Q573.8281 67.77604 573.8906 68.166664Q573.96875 68.55729 574.1719 68.916664L573.0625 68.916664Q572.90625 68.58854 572.8594 68.15104ZM572.7656 65.791664Q572.1875 66.02604 571.0469 66.197914Q570.3906 66.291664 570.125 66.416664Q569.8594 66.52604 569.7031 66.74479Q569.5625 66.96354 569.5625 67.24479Q569.5625 67.666664 569.875 67.947914Q570.2031 68.229164 570.8125 68.229164Q571.4219 68.229164 571.8906 67.96354Q572.375 67.697914 572.59375 67.229164Q572.7656 66.86979 572.7656 66.18229L572.7656 65.791664ZM575.375 67.05729L576.40625 66.90104Q576.5 67.52604 576.8906 67.854164Q577.2969 68.18229 578.03125 68.18229Q578.75 68.18229 579.09375 67.90104Q579.4531 67.604164 579.4531 67.197914Q579.4531 66.83854 579.1406 66.635414Q578.9219 66.49479 578.0625 66.27604Q576.90625 65.979164 576.4531 65.77604Q576.0156 65.55729 575.78125 65.18229Q575.5469 64.80729 575.5469 64.33854Q575.5469 63.93229 575.7344 63.572914Q575.9219 63.21354 576.25 62.979164Q576.5 62.80729 576.9219 62.68229Q577.34375 62.55729 577.84375 62.55729Q578.5625 62.55729 579.1094 62.77604Q579.6719 62.979164 579.9375 63.33854Q580.2031 63.697914 580.2969 64.291664L579.2656 64.43229Q579.2031 63.96354 578.8594 63.697914Q578.53125 63.416664 577.90625 63.416664Q577.1875 63.416664 576.875 63.666664Q576.5625 63.90104 576.5625 64.229164Q576.5625 64.43229 576.6875 64.58854Q576.8281 64.760414 577.09375 64.86979Q577.25 64.93229 578.03125 65.135414Q579.15625 65.447914 579.59375 65.635414Q580.03125 65.822914 580.28125 66.18229Q580.53125 66.541664 580.53125 67.08854Q580.53125 67.61979 580.21875 68.08854Q579.9219 68.541664 579.34375 68.80729Q578.7656 69.05729 578.03125 69.05729Q576.8125 69.05729 576.1719 68.55729Q575.5469 68.041664 575.375 67.05729ZM587.0469 66.916664L588.1406 67.041664Q587.8906 67.99479 587.1875 68.52604Q586.4844 69.05729 585.40625 69.05729Q584.0469 69.05729 583.2344 68.21354Q582.4375 67.36979 582.4375 65.854164Q582.4375 64.291664 583.25 63.43229Q584.0625 62.55729 585.34375 62.55729Q586.59375 62.55729 587.375 63.40104Q588.1719 64.24479 588.1719 65.791664Q588.1719 65.885414 588.1719 66.072914L583.53125 66.072914Q583.59375 67.104164 584.1094 67.65104Q584.625 68.18229 585.40625 68.18229Q585.9844 68.18229 586.3906 67.885414Q586.8125 67.572914 587.0469 66.916664ZM583.59375 65.21354L587.0625 65.21354Q587.0 64.416664 586.6719 64.02604Q586.15625 63.416664 585.3594 63.416664Q584.625 63.416664 584.125 63.90104Q583.6406 64.385414 583.59375 65.21354ZM592.375 67.05729L593.40625 66.90104Q593.5 67.52604 593.8906 67.854164Q594.2969 68.18229 595.03125 68.18229Q595.75 68.18229 596.09375 67.90104Q596.4531 67.604164 596.4531 67.197914Q596.4531 66.83854 596.1406 66.635414Q595.9219 66.49479 595.0625 66.27604Q593.90625 65.979164 593.4531 65.77604Q593.0156 65.55729 592.78125 65.18229Q592.5469 64.80729 592.5469 64.33854Q592.5469 63.93229 592.7344 63.572914Q592.9219 63.21354 593.25 62.979164Q593.5 62.80729 593.9219 62.68229Q594.34375 62.55729 594.84375 62.55729Q595.5625 62.55729 596.1094 62.77604Q596.6719 62.979164 596.9375 63.33854Q597.2031 63.697914 597.2969 64.291664L596.2656 64.43229Q596.2031 63.96354 595.8594 63.697914Q595.53125 63.416664 594.90625 63.416664Q594.1875 63.416664 593.875 63.666664Q593.5625 63.90104 593.5625 64.229164Q593.5625 64.43229 593.6875 64.58854Q593.8281 64.760414 594.09375 64.86979Q594.25 64.93229 595.03125 65.135414Q596.15625 65.447914 596.59375 65.635414Q597.03125 65.822914 597.28125 66.18229Q597.53125 66.541664 597.53125 67.08854Q597.53125 67.61979 597.21875 68.08854Q596.9219 68.541664 596.34375 68.80729Q595.7656 69.05729 595.03125 69.05729Q593.8125 69.05729 593.1719 68.55729Q592.5469 68.041664 592.375 67.05729ZM599.7969 71.30729L599.7969 62.697914L600.75 62.697914L600.75 63.49479Q601.09375 63.02604 601.5156 62.791664Q601.9531 62.55729 602.5625 62.55729Q603.3594 62.55729 603.96875 62.96354Q604.5781 63.36979 604.875 64.11979Q605.1875 64.86979 605.1875 65.760414Q605.1875 66.71354 604.84375 67.479164Q604.5156 68.24479 603.8594 68.65104Q603.2031 69.05729 602.4844 69.05729Q601.9531 69.05729 601.53125 68.83854Q601.1094 68.604164 600.84375 68.27604L600.84375 71.30729L599.7969 71.30729ZM600.75 65.83854Q600.75 67.041664 601.2344 67.61979Q601.71875 68.18229 602.40625 68.18229Q603.1094 68.18229 603.6094 67.58854Q604.1094 66.99479 604.1094 65.74479Q604.1094 64.55729 603.625 63.979164Q603.1406 63.385414 602.4531 63.385414Q601.78125 63.385414 601.2656 64.010414Q600.75 64.635414 600.75 65.83854ZM611.0469 66.916664L612.1406 67.041664Q611.8906 67.99479 611.1875 68.52604Q610.4844 69.05729 609.40625 69.05729Q608.0469 69.05729 607.2344 68.21354Q606.4375 67.36979 606.4375 65.854164Q606.4375 64.291664 607.25 63.43229Q608.0625 62.55729 609.34375 62.55729Q610.59375 62.55729 611.375 63.40104Q612.1719 64.24479 612.1719 65.791664Q612.1719 65.885414 612.1719 66.072914L607.53125 66.072914Q607.59375 67.104164 608.1094 67.65104Q608.625 68.18229 609.40625 68.18229Q609.9844 68.18229 610.3906 67.885414Q610.8125 67.572914 611.0469 66.916664ZM607.59375 65.21354L611.0625 65.21354Q611.0 64.416664 610.6719 64.02604Q610.15625 63.416664 609.3594 63.416664Q608.625 63.416664 608.125 63.90104Q607.6406 64.385414 607.59375 65.21354ZM617.8594 66.635414L618.8906 66.77604Q618.71875 67.83854 618.0156 68.447914Q617.3125 69.05729 616.2969 69.05729Q615.0156 69.05729 614.2344 68.229164Q613.46875 67.385414 613.46875 65.822914Q613.46875 64.822914 613.7969 64.072914Q614.1406 63.30729 614.8125 62.93229Q615.5 62.55729 616.3125 62.55729Q617.3125 62.55729 617.9531 63.072914Q618.6094 63.572914 618.7969 64.52604L617.7656 64.68229Q617.625 64.05729 617.25 63.74479Q616.875 63.416664 616.34375 63.416664Q615.5469 63.416664 615.0469 63.99479Q614.5469 64.55729 614.5469 65.791664Q614.5469 67.05729 615.03125 67.61979Q615.5156 68.18229 616.28125 68.18229Q616.90625 68.18229 617.3125 67.80729Q617.7344 67.43229 617.8594 66.635414ZM619.7969 61.541664L619.7969 60.322914L620.8594 60.322914L620.8594 61.541664L619.7969 61.541664ZM619.7969 68.916664L619.7969 62.697914L620.8594 62.697914L620.8594 68.916664L619.7969 68.916664ZM623.0469 68.916664L623.0469 63.510414L622.1094 63.510414L622.1094 62.697914L623.0469 62.697914L623.0469 62.02604Q623.0469 61.40104 623.15625 61.104164Q623.3125 60.68229 623.6875 60.43229Q624.0781 60.18229 624.7656 60.18229Q625.21875 60.18229 625.75 60.291664L625.59375 61.197914Q625.2656 61.15104 624.96875 61.15104Q624.4844 61.15104 624.28125 61.354164Q624.09375 61.55729 624.09375 62.11979L624.09375 62.697914L625.3125 62.697914L625.3125 63.510414L624.09375 63.510414L624.09375 68.916664L623.0469 68.916664ZM625.75 71.30729L625.625 70.322914Q625.96875 70.416664 626.2344 70.416664Q626.5781 70.416664 626.78125 70.291664Q627.0 70.18229 627.1406 69.979164Q627.2344 69.80729 627.46875 69.18229Q627.4844 69.104164 627.5625 68.93229L625.1875 62.697914L626.3281 62.697914L627.625 66.291664Q627.875 66.979164 628.0781 67.74479Q628.2656 67.010414 628.5156 66.322914L629.84375 62.697914L630.8906 62.697914L628.53125 69.02604Q628.1406 70.041664 627.9375 70.43229Q627.65625 70.96354 627.28125 71.197914Q626.9219 71.447914 626.4219 71.447914Q626.125 71.447914 625.75 71.30729ZM631.4844 71.447914L630.7344 71.447914Q632.4844 68.635414 632.4844 65.80729Q632.4844 64.71354 632.2344 63.61979Q632.03125 62.74479 631.6719 61.93229Q631.4375 61.416664 630.7344 60.18229L631.4844 60.18229Q632.5781 61.65104 633.1094 63.135414Q633.5625 64.416664 633.5625 65.80729Q633.5625 67.385414 632.9531 68.86979Q632.34375 70.33854 631.4844 71.447914Z" fill-rule="nonzero"/><path fill="#757575" d="M21.896875 39.35L21.896875 25.037498L27.2875 25.037498Q28.725 25.037498 29.475 25.162498Q30.521875 25.349998 31.240625 25.849998Q31.959375 26.334373 32.38125 27.224998Q32.81875 28.115623 32.81875 29.178123Q32.81875 31.006248 31.646875 32.271873Q30.490625 33.521873 27.459375 33.521873L23.7875 33.521873L23.7875 39.35L21.896875 39.35ZM23.7875 31.834373L27.490625 31.834373Q29.31875 31.834373 30.084375 31.162498Q30.865625 30.474998 30.865625 29.224998Q30.865625 28.334373 30.4125 27.693748Q29.959375 27.053123 29.225 26.849998Q28.740625 26.724998 27.44375 26.724998L23.7875 26.724998L23.7875 31.834373ZM34.646873 39.35L34.646873 28.974998L36.225 28.974998L36.225 30.553123Q36.834373 29.443748 37.35 29.099998Q37.865623 28.740623 38.475 28.740623Q39.365623 28.740623 40.2875 29.303123L39.678123 30.943748Q39.0375 30.553123 38.396873 30.553123Q37.81875 30.553123 37.35 30.912498Q36.896873 31.256248 36.69375 31.865623Q36.4125 32.803123 36.4125 33.9125L36.4125 39.35L34.646873 39.35ZM41.678123 27.053123L41.678123 25.037498L43.44375 25.037498L43.44375 27.053123L41.678123 27.053123ZM41.678123 39.35L41.678123 28.974998L43.44375 28.974998L43.44375 39.35L41.678123 39.35ZM45.6625 39.35L45.6625 28.974998L47.240623 28.974998L47.240623 30.428123Q47.725 29.678123 48.5375 29.209373Q49.35 28.740623 50.38125 28.740623Q51.5375 28.740623 52.271873 29.224998Q53.00625 29.693748 53.31875 30.553123Q54.553123 28.740623 56.521873 28.740623Q58.06875 28.740623 58.896873 29.599998Q59.725 30.459373 59.725 32.225L59.725 39.35L57.975 39.35L57.975 32.81875Q57.975 31.756248 57.803123 31.303123Q57.63125 30.834373 57.178123 30.553123Q56.740623 30.271873 56.13125 30.271873Q55.0375 30.271873 54.303123 31.006248Q53.584373 31.724998 53.584373 33.31875L53.584373 39.35L51.834373 39.35L51.834373 32.615623Q51.834373 31.443748 51.396873 30.865623Q50.975 30.271873 49.990623 30.271873Q49.25625 30.271873 48.615623 30.662498Q47.990623 31.053123 47.709373 31.803123Q47.428123 32.553123 47.428123 33.975L47.428123 39.35L45.6625 39.35ZM68.44375 38.06875Q67.45937 38.896873 66.55312 39.240623Q65.64687 39.584373 64.61562 39.584373Q62.9125 39.584373 61.990623 38.75625Q61.06875 37.9125 61.06875 36.615623Q61.06875 35.85 61.4125 35.225Q61.771873 34.6 62.334373 34.225Q62.896873 33.834373 63.6 33.63125Q64.11562 33.50625 65.1625 33.365623Q67.2875 33.115623 68.2875 32.771873Q68.30312 32.4125 68.30312 32.303123Q68.30312 31.240623 67.80312 30.787498Q67.13125 30.193748 65.80312 30.193748Q64.55312 30.193748 63.959373 30.631248Q63.38125 31.068748 63.1 32.178123L61.38125 31.943748Q61.615623 30.834373 62.146873 30.162498Q62.678123 29.474998 63.69375 29.115623Q64.70937 28.740623 66.05312 28.740623Q67.38125 28.740623 68.20937 29.053123Q69.0375 29.365623 69.42812 29.849998Q69.81875 30.318748 69.975 31.037498Q70.06875 31.490623 70.06875 32.6625L70.06875 35.00625Q70.06875 37.459373 70.17812 38.115623Q70.2875 38.75625 70.63125 39.35L68.7875 39.35Q68.52187 38.803123 68.44375 38.06875ZM68.2875 34.146873Q67.33437 34.5375 65.4125 34.803123Q64.33437 34.959373 63.88125 35.1625Q63.44375 35.35 63.19375 35.725Q62.94375 36.1 62.94375 36.56875Q62.94375 37.271873 63.475 37.740623Q64.00625 38.209373 65.0375 38.209373Q66.05312 38.209373 66.83437 37.771873Q67.63125 37.31875 68.00625 36.553123Q68.2875 35.94375 68.2875 34.7875L68.2875 34.146873ZM72.64687 39.35L72.64687 28.974998L74.225 28.974998L74.225 30.553123Q74.83437 29.443748 75.35 29.099998Q75.86562 28.740623 76.475 28.740623Q77.36562 28.740623 78.2875 29.303123L77.67812 30.943748Q77.0375 30.553123 76.39687 30.553123Q75.81875 30.553123 75.35 30.912498Q74.89687 31.256248 74.69375 31.865623Q74.4125 32.803123 74.4125 33.9125L74.4125 39.35L72.64687 39.35ZM79.58437 43.35L79.39687 41.69375Q79.975 41.85 80.39687 41.85Q80.99062 41.85 81.33437 41.646873Q81.69375 41.459373 81.9125 41.115623Q82.08437 40.85 82.45937 39.803123Q82.50625 39.646873 82.61562 39.365623L78.67812 28.974998L80.56875 28.974998L82.725 34.990623Q83.14687 36.13125 83.475 37.38125Q83.7875 36.178123 84.19375 35.021873L86.4125 28.974998L88.17812 28.974998L84.225 39.521873Q83.6 41.240623 83.24062 41.88125Q82.77187 42.75625 82.1625 43.146873Q81.56875 43.553123 80.725 43.553123Q80.20937 43.553123 79.58437 43.35ZM106.11562 34.334373L108.00625 34.803123Q107.4125 37.146873 105.86562 38.38125Q104.31875 39.6 102.06875 39.6Q99.75625 39.6 98.30312 38.6625Q96.86562 37.709373 96.1 35.928123Q95.35 34.13125 95.35 32.084373Q95.35 29.849998 96.19375 28.193748Q97.05312 26.521873 98.63125 25.662498Q100.20937 24.787498 102.1 24.787498Q104.25625 24.787498 105.70937 25.881248Q107.17812 26.974998 107.75625 28.959373L105.89687 29.396873Q105.39687 27.834373 104.44375 27.131248Q103.50625 26.412498 102.06875 26.412498Q100.4125 26.412498 99.30312 27.209373Q98.19375 27.990623 97.74062 29.334373Q97.30312 30.662498 97.30312 32.06875Q97.30312 33.896873 97.83437 35.271873Q98.36562 36.63125 99.49062 37.303123Q100.61562 37.975 101.9125 37.975Q103.50625 37.975 104.61562 37.053123Q105.725 36.13125 106.11562 34.334373ZM109.63125 39.35L109.63125 25.037498L111.38125 25.037498L111.38125 39.35L109.63125 39.35ZM113.02187 34.1625Q113.02187 31.287498 114.61562 29.896873Q115.95937 28.740623 117.88125 28.740623Q120.02187 28.740623 121.36562 30.146873Q122.725 31.553123 122.725 34.021873Q122.725 36.021873 122.13125 37.178123Q121.5375 38.31875 120.38125 38.959373Q119.24062 39.584373 117.88125 39.584373Q115.69375 39.584373 114.35 38.19375Q113.02187 36.7875 113.02187 34.1625ZM114.81875 34.1625Q114.81875 36.1625 115.67812 37.146873Q116.55312 38.13125 117.88125 38.13125Q119.19375 38.13125 120.05312 37.146873Q120.92812 36.146873 120.92812 34.1Q120.92812 32.178123 120.05312 31.193748Q119.17812 30.193748 117.88125 30.193748Q116.55312 30.193748 115.67812 31.193748Q114.81875 32.178123 114.81875 34.1625ZM124.6625 27.068748L124.6625 25.037498L126.4125 25.037498L126.4125 27.068748L124.6625 27.068748ZM122.42812 43.38125L122.75625 41.88125Q123.2875 42.021873 123.6 42.021873Q124.13125 42.021873 124.39687 41.6625Q124.6625 41.303123 124.6625 39.88125L124.6625 28.974998L126.4125 28.974998L126.4125 39.9125Q126.4125 41.834373 125.9125 42.584373Q125.2875 43.553123 123.80312 43.553123Q123.1 43.553123 122.42812 43.38125ZM135.45938 39.35L135.45938 37.81875Q134.25626 39.584373 132.17813 39.584373Q131.25626 39.584373 130.45938 39.240623Q129.6625 38.88125 129.27188 38.35Q128.89688 37.81875 128.74063 37.0375Q128.63126 36.521873 128.63126 35.396873L128.63126 28.974998L130.38126 28.974998L130.38126 34.725Q130.38126 36.1 130.49063 36.584373Q130.6625 37.271873 131.19376 37.678123Q131.74063 38.06875 132.52188 38.06875Q133.31876 38.06875 134.00626 37.6625Q134.70938 37.25625 134.99063 36.56875Q135.2875 35.865623 135.2875 34.5375L135.2875 28.974998L137.0375 28.974998L137.0375 39.35L135.45938 39.35ZM138.64688 39.35L138.64688 28.974998L140.225 28.974998L140.225 30.553123Q140.83438 29.443748 141.35 29.099998Q141.86563 28.740623 142.475 28.740623Q143.36563 28.740623 144.2875 29.303123L143.67813 30.943748Q143.0375 30.553123 142.39688 30.553123Q141.81876 30.553123 141.35 30.912498Q140.89688 31.256248 140.69376 31.865623Q140.4125 32.803123 140.4125 33.9125L140.4125 39.35L138.64688 39.35ZM152.77188 36.00625L154.58438 36.240623Q154.1625 37.81875 152.99063 38.709373Q151.83438 39.584373 150.02188 39.584373Q147.75626 39.584373 146.4125 38.19375Q145.08438 36.7875 145.08438 34.25625Q145.08438 31.631248 146.42813 30.193748Q147.77188 28.740623 149.92813 28.740623Q152.00626 28.740623 153.31876 30.162498Q154.64688 31.568748 154.64688 34.146873Q154.64688 34.303123 154.63126 34.615623L146.89688 34.615623Q146.99063 36.31875 147.86563 37.225Q148.74063 38.13125 150.0375 38.13125Q151.00626 38.13125 151.67813 37.63125Q152.36563 37.115623 152.77188 36.00625ZM146.99063 33.1625L152.7875 33.1625Q152.67813 31.865623 152.13126 31.209373Q151.2875 30.193748 149.94376 30.193748Q148.74063 30.193748 147.9125 31.006248Q147.08438 31.803123 146.99063 33.1625ZM169.39688 39.35L169.39688 38.0375Q168.4125 39.584373 166.49063 39.584373Q165.25626 39.584373 164.20938 38.896873Q163.17813 38.209373 162.6 36.990623Q162.0375 35.771873 162.0375 34.178123Q162.0375 32.615623 162.55313 31.349998Q163.06876 30.084373 164.1 29.412498Q165.14688 28.740623 166.4125 28.740623Q167.35 28.740623 168.08438 29.146873Q168.81876 29.537498 169.2875 30.162498L169.2875 25.037498L171.02188 25.037498L171.02188 39.35L169.39688 39.35ZM163.83438 34.178123Q163.83438 36.1625 164.67813 37.146873Q165.52188 38.13125 166.6625 38.13125Q167.81876 38.13125 168.61563 37.19375Q169.42813 36.25625 169.42813 34.31875Q169.42813 32.19375 168.6 31.193748Q167.7875 30.193748 166.58438 30.193748Q165.4125 30.193748 164.61563 31.162498Q163.83438 32.115623 163.83438 34.178123ZM180.77188 36.00625L182.58438 36.240623Q182.1625 37.81875 180.99063 38.709373Q179.83438 39.584373 178.02188 39.584373Q175.75626 39.584373 174.4125 38.19375Q173.08438 36.7875 173.08438 34.25625Q173.08438 31.631248 174.42813 30.193748Q175.77188 28.740623 177.92813 28.740623Q180.00626 28.740623 181.31876 30.162498Q182.64688 31.568748 182.64688 34.146873Q182.64688 34.303123 182.63126 34.615623L174.89688 34.615623Q174.99063 36.31875 175.86563 37.225Q176.74063 38.13125 178.0375 38.13125Q179.00626 38.13125 179.67813 37.63125Q180.36563 37.115623 180.77188 36.00625ZM174.99063 33.1625L180.7875 33.1625Q180.67813 31.865623 180.13126 31.209373Q179.2875 30.193748 177.94376 30.193748Q176.74063 30.193748 175.9125 31.006248Q175.08438 31.803123 174.99063 33.1625ZM187.55313 39.35L183.6 28.974998L185.45938 28.974998L187.69376 35.19375Q188.05313 36.19375 188.35 37.271873Q188.58438 36.459373 189.00626 35.303123L191.30313 28.974998L193.11563 28.974998L189.19376 39.35L187.55313 39.35ZM200.77188 36.00625L202.58438 36.240623Q202.1625 37.81875 200.99063 38.709373Q199.83438 39.584373 198.02188 39.584373Q195.75626 39.584373 194.4125 38.19375Q193.08438 36.7875 193.08438 34.25625Q193.08438 31.631248 194.42813 30.193748Q195.77188 28.740623 197.92813 28.740623Q200.00626 28.740623 201.31876 30.162498Q202.64688 31.568748 202.64688 34.146873Q202.64688 34.303123 202.63126 34.615623L194.89688 34.615623Q194.99063 36.31875 195.86563 37.225Q196.74063 38.13125 198.0375 38.13125Q199.00626 38.13125 199.67813 37.63125Q200.36563 37.115623 200.77188 36.00625ZM194.99063 33.1625L200.7875 33.1625Q200.67813 31.865623 200.13126 31.209373Q199.2875 30.193748 197.94376 30.193748Q196.74063 30.193748 195.9125 31.006248Q195.08438 31.803123 194.99063 33.1625ZM204.63126 39.35L204.63126 25.037498L206.38126 25.037498L206.38126 39.35L204.63126 39.35ZM208.02188 34.1625Q208.02188 31.287498 209.61563 29.896873Q210.95938 28.740623 212.88126 28.740623Q215.02188 28.740623 216.36563 30.146873Q217.725 31.553123 217.725 34.021873Q217.725 36.021873 217.13126 37.178123Q216.5375 38.31875 215.38126 38.959373Q214.24063 39.584373 212.88126 39.584373Q210.69376 39.584373 209.35 38.19375Q208.02188 36.7875 208.02188 34.1625ZM209.81876 34.1625Q209.81876 36.1625 210.67813 37.146873Q211.55313 38.13125 212.88126 38.13125Q214.19376 38.13125 215.05313 37.146873Q215.92813 36.146873 215.92813 34.1Q215.92813 32.178123 215.05313 31.193748Q214.17813 30.193748 212.88126 30.193748Q211.55313 30.193748 210.67813 31.193748Q209.81876 32.178123 209.81876 34.1625ZM219.6625 43.31875L219.6625 28.974998L221.27188 28.974998L221.27188 30.318748Q221.83438 29.537498 222.5375 29.146873Q223.25626 28.740623 224.27188 28.740623Q225.6 28.740623 226.61563 29.428123Q227.63126 30.115623 228.14688 31.365623Q228.67813 32.6 228.67813 34.084373Q228.67813 35.678123 228.1 36.959373Q227.5375 38.225 226.44376 38.9125Q225.35 39.584373 224.14688 39.584373Q223.27188 39.584373 222.56876 39.209373Q221.88126 38.834373 221.42813 38.271873L221.42813 43.31875L219.6625 43.31875ZM221.25626 34.225Q221.25626 36.225 222.06876 37.178123Q222.88126 38.13125 224.0375 38.13125Q225.20938 38.13125 226.0375 37.146873Q226.88126 36.1625 226.88126 34.06875Q226.88126 32.1 226.05313 31.115623Q225.24063 30.115623 224.11563 30.115623Q222.99063 30.115623 222.11563 31.178123Q221.25626 32.225 221.25626 34.225ZM230.6625 39.35L230.6625 28.974998L232.24063 28.974998L232.24063 30.428123Q232.725 29.678123 233.5375 29.209373Q234.35 28.740623 235.38126 28.740623Q236.5375 28.740623 237.27188 29.224998Q238.00626 29.693748 238.31876 30.553123Q239.55313 28.740623 241.52188 28.740623Q243.06876 28.740623 243.89688 29.599998Q244.725 30.459373 244.725 32.225L244.725 39.35L242.975 39.35L242.975 32.81875Q242.975 31.756248 242.80313 31.303123Q242.63126 30.834373 242.17813 30.553123Q241.74063 30.271873 241.13126 30.271873Q240.0375 30.271873 239.30313 31.006248Q238.58438 31.724998 238.58438 33.31875L238.58438 39.35L236.83438 39.35L236.83438 32.615623Q236.83438 31.443748 236.39688 30.865623Q235.975 30.271873 234.99063 30.271873Q234.25626 30.271873 233.61563 30.662498Q232.99063 31.053123 232.70938 31.803123Q232.42813 32.553123 232.42813 33.975L232.42813 39.35L230.6625 39.35ZM253.77188 36.00625L255.58438 36.240623Q255.1625 37.81875 253.99063 38.709373Q252.83438 39.584373 251.02188 39.584373Q248.75626 39.584373 247.4125 38.19375Q246.08438 36.7875 246.08438 34.25625Q246.08438 31.631248 247.42813 30.193748Q248.77188 28.740623 250.92813 28.740623Q253.00626 28.740623 254.31876 30.162498Q255.64688 31.568748 255.64688 34.146873Q255.64688 34.303123 255.63126 34.615623L247.89688 34.615623Q247.99063 36.31875 248.86563 37.225Q249.74063 38.13125 251.0375 38.13125Q252.00626 38.13125 252.67813 37.63125Q253.36563 37.115623 253.77188 36.00625ZM247.99063 33.1625L253.7875 33.1625Q253.67813 31.865623 253.13126 31.209373Q252.2875 30.193748 250.94376 30.193748Q249.74063 30.193748 248.9125 31.006248Q248.08438 31.803123 247.99063 33.1625ZM257.6625 39.35L257.6625 28.974998L259.25626 28.974998L259.25626 30.459373Q260.39688 28.740623 262.55313 28.740623Q263.49063 28.740623 264.27188 29.084373Q265.06876 29.412498 265.45938 29.959373Q265.85 30.506248 266.00626 31.256248Q266.1 31.756248 266.1 32.975L266.1 39.35L264.33438 39.35L264.33438 33.0375Q264.33438 31.959373 264.13126 31.428123Q263.92813 30.896873 263.39688 30.584373Q262.88126 30.271873 262.17813 30.271873Q261.05313 30.271873 260.24063 30.990623Q259.42813 31.693748 259.42813 33.678123L259.42813 39.35L257.6625 39.35ZM271.50626 37.771873L271.75626 39.334373Q271.02188 39.490623 270.42813 39.490623Q269.475 39.490623 268.94376 39.19375Q268.42813 38.88125 268.20938 38.396873Q267.99063 37.896873 267.99063 36.31875L267.99063 30.349998L266.70938 30.349998L266.70938 28.974998L267.99063 28.974998L267.99063 26.412498L269.74063 25.349998L269.74063 28.974998L271.50626 28.974998L271.50626 30.349998L269.74063 30.349998L269.74063 36.4125Q269.74063 37.1625 269.83438 37.38125Q269.92813 37.584373 270.13126 37.725Q270.35 37.85 270.74063 37.85Q271.02188 37.85 271.50626 37.771873ZM286.77188 36.00625L288.58438 36.240623Q288.1625 37.81875 286.99063 38.709373Q285.83438 39.584373 284.02188 39.584373Q281.75626 39.584373 280.4125 38.19375Q279.08438 36.7875 279.08438 34.25625Q279.08438 31.631248 280.42813 30.193748Q281.77188 28.740623 283.92813 28.740623Q286.00626 28.740623 287.31876 30.162498Q288.64688 31.568748 288.64688 34.146873Q288.64688 34.303123 288.63126 34.615623L280.89688 34.615623Q280.99063 36.31875 281.86563 37.225Q282.74063 38.13125 284.0375 38.13125Q285.00626 38.13125 285.67813 37.63125Q286.36563 37.115623 286.77188 36.00625ZM280.99063 33.1625L286.7875 33.1625Q286.67813 31.865623 286.13126 31.209373Q285.2875 30.193748 283.94376 30.193748Q282.74063 30.193748 281.9125 31.006248Q281.08438 31.803123 280.99063 33.1625ZM290.6625 39.35L290.6625 28.974998L292.25626 28.974998L292.25626 30.459373Q293.39688 28.740623 295.55313 28.740623Q296.49063 28.740623 297.27188 29.084373Q298.06876 29.412498 298.45938 29.959373Q298.85 30.506248 299.00626 31.256248Q299.1 31.756248 299.1 32.975L299.1 39.35L297.33438 39.35L297.33438 33.0375Q297.33438 31.959373 297.13126 31.428123Q296.92813 30.896873 296.39688 30.584373Q295.88126 30.271873 295.17813 30.271873Q294.05313 30.271873 293.24063 30.990623Q292.42813 31.693748 292.42813 33.678123L292.42813 39.35L290.6625 39.35ZM303.55313 39.35L299.6 28.974998L301.45938 28.974998L303.69376 35.19375Q304.05313 36.19375 304.35 37.271873Q304.58438 36.459373 305.00626 35.303123L307.30313 28.974998L309.11563 28.974998L305.19376 39.35L303.55313 39.35ZM309.67813 27.053123L309.67813 25.037498L311.44376 25.037498L311.44376 27.053123L309.67813 27.053123ZM309.67813 39.35L309.67813 28.974998L311.44376 28.974998L311.44376 39.35L309.67813 39.35ZM313.64688 39.35L313.64688 28.974998L315.225 28.974998L315.225 30.553123Q315.83438 29.443748 316.35 29.099998Q316.86563 28.740623 317.475 28.740623Q318.36563 28.740623 319.2875 29.303123L318.67813 30.943748Q318.0375 30.553123 317.39688 30.553123Q316.81876 30.553123 316.35 30.912498Q315.89688 31.256248 315.69376 31.865623Q315.4125 32.803123 315.4125 33.9125L315.4125 39.35L313.64688 39.35ZM320.02188 34.1625Q320.02188 31.287498 321.61563 29.896873Q322.95938 28.740623 324.88126 28.740623Q327.02188 28.740623 328.36563 30.146873Q329.725 31.553123 329.725 34.021873Q329.725 36.021873 329.13126 37.178123Q328.5375 38.31875 327.38126 38.959373Q326.24063 39.584373 324.88126 39.584373Q322.69376 39.584373 321.35 38.19375Q320.02188 36.7875 320.02188 34.1625ZM321.81876 34.1625Q321.81876 36.1625 322.67813 37.146873Q323.55313 38.13125 324.88126 38.13125Q326.19376 38.13125 327.05313 37.146873Q327.92813 36.146873 327.92813 34.1Q327.92813 32.178123 327.05313 31.193748Q326.17813 30.193748 324.88126 30.193748Q323.55313 30.193748 322.67813 31.193748Q321.81876 32.178123 321.81876 34.1625ZM331.6625 39.35L331.6625 28.974998L333.25626 28.974998L333.25626 30.459373Q334.39688 28.740623 336.55313 28.740623Q337.49063 28.740623 338.27188 29.084373Q339.06876 29.412498 339.45938 29.959373Q339.85 30.506248 340.00626 31.256248Q340.1 31.756248 340.1 32.975L340.1 39.35L338.33438 39.35L338.33438 33.0375Q338.33438 31.959373 338.13126 31.428123Q337.92813 30.896873 337.39688 30.584373Q336.88126 30.271873 336.17813 30.271873Q335.05313 30.271873 334.24063 30.990623Q333.42813 31.693748 333.42813 33.678123L333.42813 39.35L331.6625 39.35ZM341.6625 39.35L341.6625 28.974998L343.24063 28.974998L343.24063 30.428123Q343.725 29.678123 344.5375 29.209373Q345.35 28.740623 346.38126 28.740623Q347.5375 28.740623 348.27188 29.224998Q349.00626 29.693748 349.31876 30.553123Q350.55313 28.740623 352.52188 28.740623Q354.06876 28.740623 354.89688 29.599998Q355.725 30.459373 355.725 32.225L355.725 39.35L353.975 39.35L353.975 32.81875Q353.975 31.756248 353.80313 31.303123Q353.63126 30.834373 353.17813 30.553123Q352.74063 30.271873 352.13126 30.271873Q351.0375 30.271873 350.30313 31.006248Q349.58438 31.724998 349.58438 33.31875L349.58438 39.35L347.83438 39.35L347.83438 32.615623Q347.83438 31.443748 347.39688 30.865623Q346.975 30.271873 345.99063 30.271873Q345.25626 30.271873 344.61563 30.662498Q343.99063 31.053123 343.70938 31.803123Q343.42813 32.553123 343.42813 33.975L343.42813 39.35L341.6625 39.35ZM364.77188 36.00625L366.58438 36.240623Q366.1625 37.81875 364.99063 38.709373Q363.83438 39.584373 362.02188 39.584373Q359.75626 39.584373 358.4125 38.19375Q357.08438 36.7875 357.08438 34.25625Q357.08438 31.631248 358.42813 30.193748Q359.77188 28.740623 361.92813 28.740623Q364.00626 28.740623 365.31876 30.162498Q366.64688 31.568748 366.64688 34.146873Q366.64688 34.303123 366.63126 34.615623L358.89688 34.615623Q358.99063 36.31875 359.86563 37.225Q360.74063 38.13125 362.0375 38.13125Q363.00626 38.13125 363.67813 37.63125Q364.36563 37.115623 364.77188 36.00625ZM358.99063 33.1625L364.7875 33.1625Q364.67813 31.865623 364.13126 31.209373Q363.2875 30.193748 361.94376 30.193748Q360.74063 30.193748 359.9125 31.006248Q359.08438 31.803123 358.99063 33.1625ZM368.6625 39.35L368.6625 28.974998L370.25626 28.974998L370.25626 30.459373Q371.39688 28.740623 373.55313 28.740623Q374.49063 28.740623 375.27188 29.084373Q376.06876 29.412498 376.45938 29.959373Q376.85 30.506248 377.00626 31.256248Q377.1 31.756248 377.1 32.975L377.1 39.35L375.33438 39.35L375.33438 33.0375Q375.33438 31.959373 375.13126 31.428123Q374.92813 30.896873 374.39688 30.584373Q373.88126 30.271873 373.17813 30.271873Q372.05313 30.271873 371.24063 30.990623Q370.42813 31.693748 370.42813 33.678123L370.42813 39.35L368.6625 39.35ZM382.50626 37.771873L382.75626 39.334373Q382.02188 39.490623 381.42813 39.490623Q380.475 39.490623 379.94376 39.19375Q379.42813 38.88125 379.20938 38.396873Q378.99063 37.896873 378.99063 36.31875L378.99063 30.349998L377.70938 30.349998L377.70938 28.974998L378.99063 28.974998L378.99063 26.412498L380.74063 25.349998L380.74063 28.974998L382.50626 28.974998L382.50626 30.349998L380.74063 30.349998L380.74063 36.4125Q380.74063 37.1625 380.83438 37.38125Q380.92813 37.584373 381.13126 37.725Q381.35 37.85 381.74063 37.85Q382.02188 37.85 382.50626 37.771873Z" fill-rule="nonzero"/></svg>